<?xml version="1.0" encoding="UTF-8"?>
<svg xmlns="http://www.w3.org/2000/svg" viewBox="0 0 699.75 307.63">
  <defs>
    <style>
      .cls-1, .cls-2, .cls-3, .cls-4, .cls-5, .cls-6, .cls-7, .cls-8, .cls-9 {
        stroke-linecap: round;
        stroke-width: 14.62px;
      }

      .cls-1, .cls-2, .cls-3, .cls-4, .cls-5, .cls-6, .cls-9 {
        stroke-linejoin: round;
      }

      .cls-1, .cls-4, .cls-5 {
        stroke: #7449c8;
      }

      .cls-1, .cls-7, .cls-8 {
        fill: none;
      }

      .cls-10 {
        font-size: 83.78px;
      }

      .cls-10, .cls-11, .cls-12 {
        fill: #8657da;
      }

      .cls-10, .cls-12 {
        font-family: RAINFALL-Black, RAINFALL;
        font-weight: 800;
      }

      .cls-13 {
        fill: #d91acc;
      }

      .cls-12 {
        font-size: 139px;
      }

      .cls-2 {
        stroke: #ffdc79;
      }

      .cls-2, .cls-3, .cls-5, .cls-6, .cls-9 {
        fill: #7449c8;
      }

      .cls-3, .cls-8 {
        stroke: #ff8da0;
      }

      .cls-4 {
        fill: #ff8da0;
      }

      .cls-6 {
        stroke: #73b1ff;
      }

      .cls-7, .cls-8 {
        stroke-miterlimit: 10;
      }

      .cls-7, .cls-9 {
        stroke: #73cfa8;
      }
    </style>
  </defs>
  <g id="Layer_8" data-name="Layer 8">
    <line class="cls-7" x1="146.38" y1="16.02" x2="153.54" y2="18.8"/>
    <line class="cls-7" x1="172.17" y1="25.77" x2="213.23" y2="41.99"/>
    <line class="cls-3" x1="111.39" y1="29.71" x2="118.55" y2="32.49"/>
    <line class="cls-3" x1="137.66" y1="40.69" x2="144.82" y2="43.47"/>
    <line class="cls-3" x1="164.62" y1="51.01" x2="171.78" y2="53.79"/>
    <line class="cls-6" x1="73.5" y1="44.69" x2="114.56" y2="60.91"/>
    <line class="cls-6" x1="134.39" y1="69.33" x2="141.55" y2="72.11"/>
    <line class="cls-7" x1="8.14" y1="85.61" x2="49.2" y2="101.82"/>
    <line class="cls-7" x1="68.28" y1="110.05" x2="75.44" y2="112.83"/>
    <path class="cls-1" d="m234.72,50.1l19.23,7.81s30.05,8.41,30.65,34.86,0,144.23,0,144.23"/>
    <path class="cls-1" d="m193.85,60.91l25.84,9.62s24.64,7.81,26.44,30.65c1.8,22.84,1.2,150.24,1.2,150.24"/>
    <path class="cls-1" d="m159,80.14l25.84,9.62s19.23,5.41,19.83,30.05c.6,24.64,0,148.44,0,148.44"/>
    <line class="cls-9" x1="124.62" y1="169" x2="124.8" y2="176.68"/>
    <line class="cls-3" x1="7.94" y1="115.19" x2="49" y2="131.41"/>
    <line class="cls-3" x1="91.44" y1="182.63" x2="91.76" y2="226.78"/>
    <line class="cls-2" x1="7.31" y1="139.06" x2="48.37" y2="155.27"/>
    <line class="cls-2" x1="63.3" y1="174.77" x2="63.53" y2="182.45"/>
    <line class="cls-2" x1="64.37" y1="204.7" x2="64.47" y2="212.38"/>
    <line class="cls-9" x1="7.74" y1="163.13" x2="14.9" y2="165.91"/>
    <line class="cls-9" x1="33.72" y1="184.23" x2="33.88" y2="191.91"/>
    <path class="cls-1" d="m28.49,62.48l107.76,42.59s24.07,10.64,24.07,28.15,1.28,152.47,1.28,152.47"/>
    <path class="cls-7" d="m94.12,119.98l20.5,7.26s8.54,2.56,8.97,13.67,0,5.55,0,5.55"/>
    <line class="cls-5" x1="124.88" y1="198.42" x2="125.14" y2="283.96"/>
    <path class="cls-8" d="m64.8,137.55l12.86,4.46s12.86,1.57,13.12,13.12,0,3.15,0,3.15"/>
    <line class="cls-4" x1="91.64" y1="247.45" x2="91.61" y2="270.61"/>
    <line class="cls-4" x1="65.09" y1="233.55" x2="64.72" y2="259.92"/>
    <line class="cls-4" x1="34.45" y1="213.24" x2="34.18" y2="247.81"/>
    <line class="cls-4" x1="7.44" y1="185.46" x2="7.4" y2="236.76"/>
  </g>
  <g id="Layer_5" data-name="Layer 5">
    <rect class="cls-11" x="327.89" width="6" height="301" rx="3" ry="3"/>
  </g>
  <g id="Layer_6" data-name="Layer 6">
    <text class="cls-12" transform="translate(363.89 119.98)"><tspan x="0" y="0">Ask</tspan><tspan x="0" y="166.8">Cod</tspan></text>
  </g>
  <g id="Layer_9" data-name="Layer 9">
    <polygon class="cls-13" points="404.48 99.55 423.8 99.55 414.21 118.18 404.48 99.55"/>
  </g>
  <g id="Layer_7" data-name="Layer 7">
    <text class="cls-10" transform="translate(655.59 285.14) scale(1.62 1)"><tspan x="0" y="0">I</tspan></text>
  </g>
  <g id="Layer_10" data-name="Layer 10">
    <polygon class="cls-13" points="663.01 189.48 692.51 189.48 677.87 217.92 663.01 189.48"/>
  </g>
</svg>