<?xml version="1.0" standalone="no"?>
<!DOCTYPE svg PUBLIC "-//W3C//DTD SVG 20010904//EN"
 "http://www.w3.org/TR/2001/REC-SVG-20010904/DTD/svg10.dtd">
<svg version="1.0" xmlns="http://www.w3.org/2000/svg"
 width="2240.000000pt" height="1344.000000pt" viewBox="0 0 2240.000000 1344.000000"
 preserveAspectRatio="xMidYMid meet">

<g transform="translate(0.000000,1344.000000) scale(0.100000,-0.100000)"
fill="#000000" stroke="none">
<path d="M1978 11725 c-3 -154 -6 -336 -6 -405 l-1 -125 -52 -12 c-51 -12 -79
-28 -79 -43 0 -5 22 1 49 12 47 20 81 19 81 -2 0 -6 -8 -13 -17 -16 -58 -17
-116 -60 -227 -168 l-126 -121 0 -485 0 -485 -30 -17 c-28 -16 -30 -20 -30
-81 0 -35 -3 -84 -6 -109 -6 -42 -8 -44 -53 -57 -25 -6 -60 -15 -78 -18 -18
-3 -37 -10 -42 -17 -6 -7 -10 -205 -12 -500 -1 -269 -6 -503 -10 -520 l-7 -31
-8 25 c-28 90 -271 547 -370 697 -69 103 -78 112 -112 117 -51 8 -69 4 -107
-27 -77 -62 -348 -472 -412 -624 -13 -32 -15 -33 -71 -33 -76 0 -106 -16 -110
-58 -3 -31 -5 -32 -48 -32 l-44 0 0 140 c0 127 -2 140 -19 150 -11 5 -22 10
-25 10 -3 0 -6 -2000 -6 -4445 l0 -4445 11200 0 11200 0 0 5228 -1 5227 -32
-37 -33 -36 -54 14 c-72 18 -87 18 -99 -5 -11 -20 -169 -116 -178 -108 -2 3 8
13 24 23 15 10 59 38 97 62 l69 45 -7 251 c-9 346 -2 312 -64 341 -48 22 -52
27 -52 58 l0 35 -57 4 c-57 5 -78 -3 -69 -28 2 -6 0 -17 -5 -25 -6 -9 -9 0 -9
29 l0 42 -49 0 c-58 0 -105 15 -148 46 -34 25 -34 25 -60 -24 -7 -12 -8 -20
-3 -17 16 10 12 -82 -5 -121 -8 -19 -28 -54 -44 -77 -17 -23 -33 -54 -36 -69
-5 -18 -41 -56 -111 -114 -95 -78 -138 -124 -117 -124 11 0 3 -1131 -8 -1150
-8 -13 -5 955 3 1080 3 40 1 45 -19 44 -19 0 -20 3 -11 25 13 35 40 63 123
130 104 84 115 94 115 109 0 7 11 28 25 46 30 39 32 62 6 71 -15 4 -36 -9 -83
-55 -35 -33 -100 -88 -146 -122 -59 -45 -85 -71 -91 -93 -8 -32 -6 -150 4
-188 5 -19 4 -19 -9 3 -18 29 -22 173 -7 213 6 14 52 56 103 94 90 67 153 125
101 92 -13 -8 -23 -17 -23 -22 0 -4 -4 -5 -10 -2 -5 3 -10 2 -10 -2 0 -10 -95
-83 -109 -83 -5 0 -11 -6 -14 -14 -4 -10 -17 -13 -44 -9 -34 4 -40 2 -49 -18
-15 -34 -6 -172 12 -182 11 -6 7 -14 -18 -35 -18 -15 -35 -29 -38 -32 -18 -19
-296 -221 -339 -246 -34 -20 -43 -36 -35 -59 5 -12 13 -9 42 16 19 17 67 51
106 76 39 25 100 68 136 96 90 69 103 76 50 28 -46 -43 -124 -103 -294 -226
-53 -38 -96 -74 -95 -80 0 -5 3 -4 6 3 2 6 16 12 30 12 21 0 24 -4 19 -22 -3
-13 -6 -177 -6 -365 0 -222 -4 -343 -10 -343 -6 0 -10 65 -10 175 0 96 -4 175
-8 175 -4 0 -8 -46 -9 -102 -2 -177 -7 -208 -35 -208 -9 0 -8 25 5 70 2 8 2
12 0 8 -3 -5 -11 -8 -19 -8 -11 0 -14 15 -14 63 0 66 8 107 20 107 4 0 5 -12
2 -26 -3 -19 -1 -25 6 -20 7 4 10 17 8 29 -2 12 2 30 7 39 8 12 7 24 -1 42 -8
17 -8 26 -1 26 6 0 8 4 4 9 -3 5 4 12 15 16 22 7 27 40 9 65 -8 12 -10 11 -7
-5 3 -21 -21 -41 -95 -79 -52 -27 -66 -45 -43 -58 14 -8 15 -13 5 -24 -6 -8
-9 -18 -5 -21 4 -4 11 -1 17 7 6 10 7 4 3 -20 -9 -44 -13 -50 -21 -22 -14 55
-22 11 -22 -125 0 -82 -3 -264 -7 -407 l-7 -259 64 36 c35 19 154 82 264 140
110 57 283 148 385 202 222 118 257 135 267 135 14 0 -55 -39 -216 -122 -86
-44 -181 -95 -211 -113 -30 -18 -149 -81 -265 -140 -115 -59 -214 -111 -220
-115 -30 -21 -108 -61 -97 -49 9 10 12 158 12 670 0 551 2 660 14 672 8 7 46
33 85 58 l71 44 0 73 0 72 48 34 c31 23 48 42 48 56 0 20 -1 20 -19 -4 -10
-14 -23 -26 -27 -26 -5 0 -23 -13 -41 -29 -30 -28 -31 -32 -25 -83 3 -30 2
-60 -4 -68 -5 -8 -10 -11 -10 -7 0 4 -10 -1 -22 -13 -12 -11 -34 -26 -50 -32
-15 -7 -28 -16 -28 -20 0 -5 -10 -8 -22 -8 -19 0 -20 -2 -8 -10 10 -6 11 -10
3 -10 -15 0 -48 -69 -58 -117 -6 -31 -25 -47 -25 -21 0 6 -10 2 -22 -9 -26
-23 -65 -35 -121 -36 -33 -1 -36 -3 -21 -14 9 -7 21 -10 27 -6 6 3 7 1 4 -4
-4 -6 0 -16 9 -24 8 -7 14 -22 13 -33 -3 -47 2 -77 14 -80 6 -3 42 -12 80 -22
37 -9 65 -19 63 -21 -2 -2 -21 0 -42 5 -22 6 -60 13 -86 17 l-48 6 0 59 c0 52
-3 61 -30 83 -16 14 -55 31 -85 38 -30 7 -55 16 -55 21 0 5 4 7 9 4 5 -3 11 0
14 8 4 9 0 12 -13 9 -21 -6 -30 -42 -30 -129 0 -95 -16 -117 -165 -234 -39
-30 -100 -79 -136 -110 -37 -30 -87 -72 -113 -93 -25 -21 -46 -43 -46 -48 0
-6 4 -8 9 -4 17 10 33 -33 21 -55 -6 -11 -8 -25 -4 -31 9 -16 -6 -180 -17
-174 -15 10 -18 -35 -21 -306 -3 -307 6 -279 -114 -360 l-71 -48 -6 -68 c-4
-37 -7 -90 -8 -118 -2 -90 -17 -9 -18 95 l0 95 52 34 c28 19 71 50 95 69 l42
33 0 422 0 422 127 105 c118 98 181 151 227 192 13 12 19 30 19 55 0 21 1 61
4 90 4 47 8 53 44 77 37 25 56 65 25 53 -8 -3 -17 1 -20 8 -4 11 0 12 20 5 14
-6 33 -10 42 -9 9 0 -1 7 -23 15 -30 11 -46 12 -63 4 -16 -7 -29 -7 -43 0 -10
6 -19 7 -19 2 0 -5 -11 -7 -24 -5 -18 4 -27 -1 -36 -17 -10 -18 -14 -20 -21
-9 -6 9 -7 -5 -4 -36 l5 -50 -14 60 c-14 62 -19 50 -16 -35 3 -74 -14 -35 -21
48 -6 74 -6 72 -8 -43 0 -66 -4 -150 -8 -187 -5 -58 -8 -65 -19 -51 -12 17
-13 17 -31 1 -15 -14 -22 -15 -31 -6 -9 9 -12 7 -12 -10 0 -13 -6 -22 -12 -21
-18 3 -48 -11 -48 -22 0 -6 -9 -20 -21 -32 -20 -22 -20 -22 -35 -2 -13 17 -16
18 -24 5 -5 -8 -10 -22 -11 -30 0 -10 -2 -11 -6 -2 -8 19 -23 14 -23 -8 0 -11
-6 -20 -14 -20 -16 0 -26 21 -26 54 0 12 -5 27 -10 32 -6 6 -15 40 -19 75 -8
62 -9 60 -11 -51 -2 -63 -4 -119 -5 -125 -2 -5 -3 -25 -4 -42 0 -18 -6 -33
-12 -33 -5 0 -9 8 -8 18 1 9 1 31 0 47 l-1 30 -20 -30 c-13 -19 -18 -39 -15
-53 4 -17 2 -23 -7 -20 -8 3 -14 24 -16 52 -3 45 -1 48 27 59 l31 11 -1 221
c-2 260 -7 264 -11 8 -3 -176 -4 -183 -25 -198 -13 -9 -23 -22 -23 -30 0 -7
-7 -20 -15 -29 -9 -8 -15 -19 -14 -23 1 -4 1 -19 0 -33 -1 -19 -4 -21 -10 -11
-5 8 -7 21 -4 30 4 14 3 14 -5 1 -6 -8 -8 -18 -5 -24 4 -5 1 -6 -7 -1 -7 4
-16 2 -21 -6 -11 -18 -42 -18 -51 1 -4 10 -7 6 -7 -12 -1 -26 -21 -42 -21 -17
0 5 -4 7 -10 4 -5 -3 -10 -14 -10 -25 0 -15 -10 -18 -79 -21 -75 -4 -81 -6
-109 -37 -22 -25 -28 -39 -24 -60 6 -27 6 -27 13 7 4 18 16 43 28 54 19 19 31
21 119 19 89 -1 101 0 122 20 16 15 25 18 28 10 4 -14 72 -16 72 -2 0 6 7 10
15 10 8 0 15 -4 15 -9 0 -17 -47 -40 -76 -36 -16 1 -38 -2 -49 -8 -11 -6 -62
-10 -115 -9 -52 1 -101 -1 -107 -6 -12 -8 -19 -110 -22 -309 -1 -57 -3 -63
-22 -63 -19 0 -20 5 -17 99 2 55 0 97 -4 94 -5 -2 -8 -1 -8 4 0 4 -54 7 -120
6 -113 -1 -122 -3 -140 -25 -11 -13 -17 -30 -14 -38 7 -17 7 -23 5 -102 -2
-82 -17 -72 -26 17 -6 65 -9 75 -26 75 -18 0 -19 -8 -19 -112 0 -62 -4 -118
-8 -124 -8 -12 -108 -40 -133 -37 -18 2 -29 -33 -29 -89 0 -17 -4 -27 -10 -23
-5 3 -10 30 -10 59 l0 53 43 17 c23 9 53 16 65 16 44 0 62 18 61 58 -1 32 -2
34 -8 12 -7 -22 -12 -25 -52 -23 -31 2 -40 -1 -29 -7 12 -8 9 -10 -12 -10 -20
0 -28 -5 -28 -17 0 -11 -3 -14 -8 -7 -14 22 -53 25 -108 9 -30 -9 -58 -23 -61
-31 -3 -8 -11 -13 -18 -10 -7 2 -25 -2 -41 -10 -15 -8 -34 -12 -41 -9 -8 2
-11 0 -8 -5 3 -6 2 -10 -4 -10 -5 0 -13 5 -16 10 -3 6 -15 10 -26 10 -12 0
-19 7 -19 20 0 11 5 20 10 20 6 0 10 5 10 10 0 6 -11 8 -25 6 -14 -3 -23 -1
-20 5 4 5 13 9 21 9 8 0 14 4 14 10 0 5 21 23 47 39 39 24 51 28 68 19 17 -10
18 -9 8 3 -10 12 -8 17 7 27 20 12 24 44 35 287 3 61 6 131 8 158 1 28 -2 46
-8 44 -6 -2 -13 -95 -17 -231 -5 -139 -12 -233 -18 -241 -6 -7 -49 -35 -95
-62 l-85 -48 0 -80 c0 -44 -4 -85 -8 -92 -4 -6 -26 -14 -49 -16 -23 -3 -58
-17 -79 -31 -21 -14 -44 -26 -50 -26 -6 0 -17 -7 -24 -15 -7 -8 -20 -15 -30
-15 -25 0 -30 37 -30 217 0 124 -3 160 -17 186 -21 41 -42 57 -73 56 -17 -1
-19 -3 -7 -6 9 -2 17 -9 17 -14 0 -5 6 -9 13 -9 24 0 47 -67 47 -138 0 -77
-18 -253 -26 -261 -3 -3 -9 1 -15 9 -8 13 -10 13 -19 0 -5 -8 -10 -10 -10 -5
0 6 -35 10 -83 11 -58 1 -92 6 -116 18 -27 14 -47 17 -93 12 -46 -6 -62 -4
-74 8 -14 15 -13 16 6 16 33 0 92 28 85 40 -4 6 -19 9 -33 6 -15 -3 -89 -8
-164 -11 l-138 -5 0 37 c0 47 -9 83 -21 83 -5 0 -9 -7 -9 -17 0 -9 -3 -13 -7
-10 -3 4 -12 2 -19 -4 -10 -8 -13 -2 -12 29 0 21 -5 48 -11 60 -11 21 -17 21
-204 18 l-192 -3 -12 -39 c-6 -21 -12 -33 -12 -26 -2 22 -18 4 -24 -25 -30
-165 -47 -227 -66 -244 -12 -11 -26 -17 -31 -14 -6 3 -10 0 -10 -8 0 -19 -23
-38 -36 -29 -6 4 -14 17 -18 30 -4 12 -11 22 -16 22 -16 0 -26 117 -31 350 -1
58 -6 -68 -10 -280 -5 -212 -13 -407 -18 -435 -7 -39 -9 -43 -11 -20 -1 17 -3
39 -6 50 -2 11 -4 68 -4 127 -1 59 -5 110 -11 113 -5 4 -10 -5 -11 -19 -1 -14
-2 -39 -3 -54 -3 -49 -16 -107 -28 -120 -8 -10 -8 -19 1 -33 10 -16 10 -21 -2
-25 -33 -13 -39 6 -34 107 3 66 1 100 -6 102 -7 3 -6 15 4 38 18 38 15 79 -4
79 -8 0 -16 -16 -19 -37 -4 -21 -6 -372 -7 -780 l0 -743 42 -1 43 -1 -42 -11
-42 -10 -3 -76 -3 -76 -45 -11 c-40 -10 -46 -14 -50 -44 -5 -34 -15 -43 -62
-60 -28 -9 -28 -11 -28 -95 0 -47 4 -85 9 -85 4 0 20 9 34 20 30 24 37 25 37
5 0 -8 -18 -25 -40 -37 l-40 -23 0 -99 0 -98 30 6 c39 7 39 -12 0 -27 l-30
-11 0 -281 c0 -154 -4 -285 -8 -291 -4 -7 -6 -52 -4 -102 l3 -90 59 1 c51 2
60 -1 64 -18 8 -28 5 -351 -4 -465 -5 -71 -7 -27 -8 177 -2 204 -5 274 -14
279 -7 5 -92 10 -188 12 -135 3 -179 1 -192 -10 -15 -12 -17 -52 -22 -373 -5
-350 -11 -445 -26 -445 -11 0 -15 133 -15 497 0 182 -3 328 -8 324 -4 -4 -8
-163 -8 -353 0 -288 -3 -349 -15 -359 -8 -6 -14 -18 -14 -25 0 -8 -10 -14 -24
-14 -22 0 -26 -6 -31 -44 l-7 -44 -75 1 c-54 0 -78 -4 -84 -14 -5 -8 -9 -85
-9 -172 l0 -158 -22 3 c-14 2 -22 9 -20 18 2 8 3 81 3 161 -2 173 -1 174 94
184 36 4 62 11 59 16 -3 5 -1 9 5 9 5 0 11 -6 13 -12 3 -8 9 -5 16 9 9 17 9
22 -3 26 -9 4 -12 1 -9 -8 4 -10 -1 -12 -18 -8 -13 3 -29 11 -36 16 -10 8 -12
7 -10 -4 3 -14 -31 -15 -42 -1 -3 4 -23 8 -45 8 -22 1 -58 3 -80 5 -37 4 -40
2 -48 -29 -6 -17 -15 -32 -22 -32 -17 0 -27 42 -12 52 8 5 3 8 -12 8 -19 0
-22 -4 -18 -21 3 -12 3 -18 0 -15 -3 3 -12 -2 -21 -11 -12 -12 -29 -14 -74
-10 -57 5 -58 5 -58 -21 0 -50 -11 -72 -35 -72 -16 0 -24 -8 -31 -32 l-10 -33
-91 -3 c-103 -3 -103 -3 -103 -94 l0 -47 -126 1 c-140 1 -144 0 -144 -63 0
-43 -10 -49 -83 -49 -29 0 -58 -4 -64 -8 -9 -6 -13 -42 -14 -115 l-2 -107
-163 0 -163 0 -10 -52 c-6 -29 -13 -81 -17 -116 -6 -60 -16 -70 -27 -27 -4 18
-5 18 -6 -2 -1 -27 -21 -31 -21 -5 0 14 -8 18 -37 19 -21 1 -46 -3 -55 -8 -9
-5 -31 -11 -48 -13 -17 -2 -33 -6 -37 -9 -3 -3 -8 -37 -10 -74 -6 -79 -16 -97
-45 -82 -10 6 -26 9 -34 7 -12 -2 -11 -9 6 -43 22 -43 13 -69 -15 -41 -19 18
-45 21 -45 5 0 -6 7 -9 15 -5 18 6 18 5 5 -28 -8 -22 -13 -25 -42 -19 l-32 6
24 -32 c19 -27 20 -35 9 -42 -8 -5 -17 -9 -21 -9 -5 0 -8 -7 -8 -15 0 -18 -20
-19 -54 -4 -29 14 -56 -1 -56 -31 0 -20 -37 -70 -52 -70 -7 0 -6 5 1 14 11 12
7 13 -26 3 -44 -13 -53 -22 -53 -59 0 -20 -7 -29 -27 -36 -26 -10 -25 -10 19
-11 l46 -1 -11 30 c-16 42 0 55 41 35 33 -17 34 -45 2 -45 -10 0 -21 -8 -25
-19 -4 -14 -19 -20 -62 -24 -32 -3 -62 -2 -68 3 -6 5 -27 5 -50 0 -50 -12 -55
-12 -55 -1 0 5 11 12 25 15 14 4 24 12 22 19 -1 6 4 11 11 10 6 -2 12 1 12 6
0 12 -31 25 -50 22 -9 -2 -3 8 13 23 40 37 33 67 -18 84 -22 7 -42 18 -46 24
-4 6 -12 7 -19 3 -7 -4 4 18 24 49 26 41 31 53 16 44 -11 -7 -20 -16 -20 -20
0 -5 -4 -8 -10 -8 -5 0 -10 24 -10 53 0 60 -7 73 -35 73 -18 0 -20 -6 -18 -53
1 -40 -2 -53 -13 -53 -16 0 -15 -2 -20 67 -2 37 1 57 12 68 14 13 14 15 -1 15
-8 0 -20 -10 -25 -22 -9 -24 -12 -19 -14 22 -1 21 -8 26 -43 34 -27 5 -44 16
-51 30 -8 19 -11 16 -19 -24 -8 -40 -10 -43 -20 -25 -13 23 -21 254 -10 272 4
6 0 17 -9 24 -12 10 -20 10 -34 1 -14 -8 -21 -8 -26 -1 -4 6 0 15 7 20 12 7
11 9 -1 10 -8 1 -22 2 -30 3 -9 0 -18 15 -21 36 -5 28 -7 30 -8 9 -1 -19 -10
-31 -33 -42 -31 -15 -33 -15 -40 4 -10 27 -54 26 -61 -2 -5 -17 -10 -20 -29
-14 -13 3 -32 7 -43 6 -10 0 -25 5 -32 11 -7 6 -27 11 -45 13 l-33 2 -3 64 -3
64 -97 0 c-89 0 -97 1 -94 19 3 16 -1 18 -30 12 -39 -8 -43 -8 -135 2 l-72 7
-6 -37 c-10 -60 -24 -44 -27 30 l-3 67 -74 5 -74 5 2 80 c2 73 0 83 -21 102
-13 12 -34 23 -48 25 -23 3 -25 7 -28 66 l-3 62 -47 2 c-26 1 -58 2 -71 2
l-24 1 2 173 3 172 -106 0 -106 0 -1 -262 c0 -272 -6 -438 -14 -447 -3 -2 -5
28 -5 67 l0 72 -36 0 c-24 0 -34 4 -31 13 2 6 18 12 35 12 l32 0 0 126 c0 69
-3 194 -7 277 l-6 151 -41 3 -41 3 -3 48 -3 47 -82 0 c-45 0 -87 4 -94 8 -6 4
-13 23 -15 42 -3 30 -7 35 -30 38 l-28 3 0 88 0 88 -46 6 c-26 2 -55 13 -67
25 -16 15 -39 21 -85 24 l-62 3 -5 -30 c-3 -16 -5 -184 -3 -373 2 -243 0 -342
-8 -342 -16 0 -24 214 -24 642 l0 368 -25 10 c-15 6 -25 17 -25 30 0 12 -9 24
-24 29 -27 11 -36 29 -36 77 0 19 -12 58 -27 86 -15 29 -30 60 -33 68 -4 8
-12 15 -19 14 -6 -1 -60 -2 -121 -2 l-110 -2 -26 -40 c-32 -47 -45 -99 -51
-197 l-5 -73 -31 0 c-18 0 -42 -3 -54 -6 -22 -6 -22 -7 -16 -146 5 -117 4
-139 -8 -138 -31 5 -39 -1 -39 -27 0 -21 -3 -24 -12 -15 -9 9 -12 55 -9 167
l3 155 -28 11 c-16 5 -32 16 -36 22 -4 7 -8 58 -8 115 0 63 -4 102 -10 102 -6
0 -13 -7 -16 -15 -4 -8 -15 -15 -26 -15 -10 0 -16 -4 -13 -10 4 -6 -7 -10 -25
-10 -17 0 -33 6 -36 13 -3 8 -20 20 -39 27 -19 8 -35 17 -35 22 0 4 -9 8 -20
8 -11 0 -20 7 -20 15 0 9 -9 15 -25 15 -23 0 -25 4 -25 45 0 41 2 45 25 45 18
0 25 5 25 20 0 15 -7 20 -27 20 -27 0 -28 1 -25 50 4 48 5 50 33 50 22 0 29 5
29 20 0 16 -7 20 -30 20 -29 0 -30 2 -30 46 0 43 1 45 26 42 21 -2 28 2 30 20
3 19 -1 22 -26 22 -30 0 -30 1 -30 55 0 54 0 55 30 55 23 0 30 4 30 20 0 16
-7 20 -30 20 -28 0 -30 2 -30 41 0 40 0 40 30 34 28 -6 30 -5 30 24 0 29 -2
30 -30 25 l-30 -6 0 54 0 55 30 -5 c27 -4 30 -1 30 22 0 22 -4 26 -30 26 l-30
0 0 61 0 61 30 -4 c28 -4 30 -2 30 27 0 29 -2 31 -30 27 -28 -4 -30 -2 -30 27
0 28 3 31 30 31 27 0 30 3 30 30 0 27 -3 30 -30 30 -28 0 -30 3 -30 36 0 35 1
36 30 32 28 -4 30 -3 30 29 0 30 -3 33 -30 33 -28 0 -30 2 -30 40 0 38 2 40
30 40 l30 0 0 68 0 67 -78 91 c-204 240 -278 329 -284 346 -6 15 -19 18 -83
18 l-75 0 0 34 c0 59 -3 59 -298 56 -147 -1 -312 -5 -367 -9 l-100 -6 -3 -47
-3 -48 -107 0 c-81 0 -113 -4 -130 -16 l-22 -15 0 -807 c0 -444 -3 -831 -6
-859 -6 -47 -9 -53 -30 -53 -19 0 -24 5 -24 24 0 42 -12 86 -24 86 -7 0 -65
23 -130 51 -65 28 -119 49 -121 47 -1 -2 -7 -32 -13 -68 l-9 -65 -2 78 -1 77
-88 0 -87 0 6 73 c3 41 1 77 -4 85 -6 7 -9 48 -8 92 l2 79 -51 28 c-28 15 -73
41 -98 57 -44 28 -52 29 -141 27 -94 -3 -94 -3 -88 21 5 20 -1 27 -44 51 -43
23 -60 27 -133 27 -95 0 -103 -7 -90 -75 6 -34 5 -35 -25 -35 -23 0 -34 -6
-41 -22 -5 -13 -9 -19 -9 -15 -1 4 -10 3 -20 -3 -15 -8 -18 -18 -15 -47 7 -54
-22 -106 -61 -113 l-30 -5 0 -113 c0 -70 -4 -111 -10 -109 -5 2 -11 21 -13 43
-2 21 -10 44 -19 51 -9 7 -17 28 -18 47 -2 24 -13 45 -37 70 -40 41 -48 44
-48 16 0 -23 -28 -27 -36 -5 -4 8 -15 15 -25 15 -12 0 -23 10 -29 25 -6 17
-20 27 -40 31 -16 4 -30 13 -30 20 0 21 -10 17 -32 -11 -11 -14 -28 -25 -38
-25 -11 0 -23 -6 -27 -14 -4 -8 -22 -22 -38 -30 -27 -14 -31 -14 -42 0 -9 12
-12 8 -18 -25 -4 -23 -10 -41 -14 -41 -4 0 -12 -12 -18 -27 -12 -31 -15 29
-13 260 1 64 -3 117 -8 117 -4 0 -17 8 -28 18 -63 59 -243 206 -262 215 -24
11 -25 28 -2 35 7 3 10 0 6 -7 -4 -6 4 -16 21 -23 30 -14 40 -21 110 -80 24
-21 48 -38 54 -38 5 0 9 -7 9 -16 0 -8 5 -12 10 -9 6 3 10 2 10 -3 0 -13 48
-32 65 -26 25 10 7 55 -39 99 -71 68 -208 190 -217 193 -10 4 -12 42 -3 42 6
0 103 -84 200 -174 35 -33 66 -57 68 -55 2 2 6 30 10 62 l6 58 -47 45 c-27 25
-95 84 -153 132 -136 111 -129 104 -120 127 7 18 9 17 20 -10 7 -16 14 -25 17
-18 3 7 16 0 36 -19 45 -43 113 -98 121 -98 4 0 29 -18 57 -40 59 -47 69 -49
69 -15 0 31 -34 69 -179 205 -109 100 -116 109 -119 148 -2 44 7 53 28 27 7
-8 10 -15 6 -15 -3 0 3 -9 14 -20 12 -12 18 -25 15 -30 -4 -6 -2 -10 3 -10 5
0 29 -20 54 -45 28 -27 52 -43 60 -40 8 3 21 -1 28 -10 8 -10 9 -15 1 -15 -6
0 -11 5 -11 10 0 6 -4 10 -8 10 -17 0 -8 -33 10 -38 10 -2 15 -8 12 -13 -3 -5
2 -9 10 -9 8 0 25 -14 37 -32 13 -18 25 -26 27 -19 2 6 -2 18 -8 26 -7 9 -8
15 -2 15 17 0 23 30 9 54 -11 21 -116 117 -249 230 -32 27 -58 55 -58 64 0 12
5 11 23 -6 13 -12 27 -20 30 -17 4 3 5 2 2 -1 -6 -9 86 -74 106 -74 20 0 62
-44 52 -55 -5 -4 -3 -5 4 -1 7 4 17 -2 23 -14 6 -11 18 -20 28 -19 15 0 15 1
1 7 -11 5 -14 13 -9 26 6 17 9 15 33 -15 l27 -34 0 37 c0 34 -8 44 -122 149
-68 62 -126 115 -130 119 -10 8 -27 100 -19 100 3 0 20 -23 36 -50 25 -40 219
-250 231 -250 2 0 4 11 4 25 0 50 -57 120 -203 250 -107 96 -111 96 -105 1 1
-30 0 -52 -4 -49 -12 7 -10 153 2 153 13 0 176 -145 253 -225 42 -44 57 -54
57 -40 0 21 -277 305 -297 305 -6 0 -15 5 -19 11 -4 8 1 9 17 4 13 -4 26 -12
27 -16 2 -5 8 -7 13 -4 4 3 14 -3 21 -15 7 -11 18 -20 25 -20 7 0 16 -6 20
-14 4 -7 18 -18 31 -25 12 -6 22 -18 22 -26 0 -8 9 -19 20 -25 11 -6 20 -16
20 -23 0 -7 10 -18 21 -26 19 -11 21 -11 16 4 -4 9 -3 14 3 10 6 -3 10 -16 10
-27 0 -19 25 -47 43 -48 4 0 6 31 4 69 l-4 70 -120 128 c-66 70 -130 137 -142
147 -21 19 -27 36 -13 36 4 0 21 -12 37 -27 16 -16 32 -27 35 -26 10 3 26 -13
102 -99 42 -47 79 -95 83 -107 14 -47 25 -16 25 74 l0 95 -82 88 c-46 48 -107
113 -136 144 -64 69 -77 79 -70 50 4 -12 2 -22 -3 -22 -5 0 -9 13 -9 30 0 23
-5 31 -23 35 -13 4 -27 5 -33 4 -5 -1 -25 0 -44 1 -26 2 -19 5 30 12 l65 9 60
-63 c33 -35 65 -72 72 -83 10 -16 12 0 12 88 1 81 -2 107 -11 105 -18 -3 -60
12 -75 28 -7 7 -22 11 -33 9 -18 -4 -20 2 -20 60 0 98 4 95 -120 95 -76 0
-111 -4 -117 -12 -4 -7 -6 -66 -4 -130 l3 -118 -108 0 c-60 0 -116 -4 -124
-10 -10 -6 -14 -30 -15 -87 l0 -78 -35 -11 -35 -12 -2 -308 c-1 -170 -3 -457
-3 -639 -1 -216 -5 -320 -11 -300 -5 17 -11 64 -15 105 -4 60 -10 80 -28 99
-19 18 -30 22 -55 16 -24 -5 -32 -14 -41 -43 -5 -20 -10 -52 -10 -70 0 -46
-35 -61 -84 -38 -56 26 -89 89 -103 199 -4 32 -8 36 -28 33 -33 -6 -73 -48
-78 -81 -4 -29 -4 -29 -6 5 -1 19 -6 44 -10 55 -7 18 -9 17 -25 -13 -9 -17
-19 -32 -22 -32 -3 0 -2 5 2 12 4 7 3 8 -4 4 -6 -4 -9 -13 -5 -21 8 -23 -3
-19 -83 34 -40 27 -74 45 -74 39 0 -22 23 -49 68 -79 48 -32 72 -56 72 -71 0
-9 -74 38 -124 80 -33 26 -31 19 -40 220 -4 86 -3 142 2 142 17 0 22 -29 22
-114 l0 -82 43 -24 c23 -13 47 -29 52 -36 6 -7 22 -16 38 -20 45 -11 23 19
-48 66 -60 39 -80 61 -68 74 3 3 19 -6 35 -19 32 -27 104 -52 116 -41 11 12
-49 56 -93 68 -39 10 -40 13 -37 45 4 30 -2 39 -45 81 -27 26 -61 56 -75 68
l-26 20 -6 -50 c-3 -28 -6 -98 -7 -156 0 -87 -11 -160 -20 -140 -1 3 -5 111
-8 240 l-6 235 -141 3 -141 3 4 47 c4 36 3 44 -6 36 -7 -6 -13 -28 -14 -48
l-2 -36 -132 0 -133 0 -1 -322 c-1 -280 -2 -314 -13 -258 -12 71 -21 90 -39
90 -8 0 -9 -3 -1 -8 7 -5 6 -15 -3 -32 l-13 -25 0 30 c-1 17 -3 51 -6 78 -4
40 -2 47 13 47 17 1 17 1 1 11 -16 9 -18 30 -19 202 -2 269 -10 381 -29 385
-13 2 -15 -18 -12 -143 l3 -145 -60 29 c-33 16 -72 36 -86 45 l-25 16 0 -44
c0 -39 4 -48 33 -69 17 -14 53 -34 80 -46 26 -12 47 -28 47 -36 0 -11 -21 -4
-76 26 -42 22 -79 38 -82 35 -11 -11 34 -49 93 -78 54 -28 79 -47 71 -55 -2
-2 -32 10 -67 26 -35 17 -77 33 -93 37 -27 6 -28 5 -16 -15 6 -13 44 -38 88
-58 84 -38 88 -41 80 -48 -6 -6 -178 64 -179 74 0 3 -2 17 -4 31 -4 29 -12
182 -20 383 -6 141 2 172 26 100 13 -44 28 -65 39 -58 10 6 69 -24 94 -47 28
-26 38 -22 33 14 -3 29 -14 39 -123 105 -65 39 -122 72 -126 73 -4 0 -3 -13 1
-28 13 -43 25 -636 13 -628 -5 3 -12 98 -16 223 -4 120 -11 259 -17 308 -5 50
-10 102 -11 117 -1 15 -7 24 -12 21 -5 -4 -7 1 -3 11 4 9 3 15 -2 12 -11 -7
-21 43 -21 106 l0 49 -321 -3 c-257 -2 -315 -1 -292 9 15 7 66 13 113 14 47 1
77 3 68 6 -16 4 -18 18 -18 104 0 99 0 99 -25 99 -27 0 -33 14 -37 93 l-3 48
-35 -26 c-30 -22 -36 -32 -40 -78 l-5 -52 -47 -12 c-26 -6 -52 -14 -59 -18 -8
-5 -11 -64 -9 -204 1 -108 -2 -408 -6 -668 l-7 -472 -77 -3 -77 -3 -7 775 c-4
426 -9 792 -12 813 -18 120 -39 -83 -31 -296 3 -73 3 -114 1 -92 -3 22 -11 83
-19 135 -8 52 -17 212 -21 355 -3 143 -7 283 -7 310 -2 49 -3 50 -36 53 -28 3
-33 1 -27 -13 3 -9 6 -25 6 -36 0 -14 7 -19 25 -19 l25 0 0 -199 c0 -249 -1
-255 -51 -275 -37 -15 -39 -18 -40 -63 0 -36 -3 -43 -9 -28 -5 11 -9 162 -10
335 -2 173 -5 360 -9 415 -6 93 -8 100 -32 114 -28 16 -115 7 -89 -9 9 -5 19
-5 27 1 9 8 19 4 38 -15 l25 -25 0 -352 c0 -316 -2 -351 -16 -345 -9 3 -18 6
-20 6 -10 0 -3 87 8 98 9 9 9 12 0 12 -9 0 -12 45 -12 173 -1 94 -5 192 -9
216 -10 51 -54 102 -72 84 -9 -9 -7 -16 5 -29 30 -30 34 -56 34 -232 l0 -172
-23 0 c-26 0 -35 17 -35 66 0 31 2 35 21 29 16 -5 20 -3 17 6 -3 8 -12 13 -20
11 -14 -2 -16 34 -20 280 -3 156 -8 290 -12 299 -6 14 5 18 81 29 48 6 110 16
136 21 26 5 83 9 127 9 48 0 82 4 86 11 11 18 -239 5 -358 -17 l-98 -18 0 -37
c0 -19 -3 -39 -6 -42 -4 -3 -26 5 -50 19 -30 18 -54 24 -81 22 l-38 -3 -5
-375 -5 -375 -3 340 c-2 187 -5 397 -8 468 -5 112 -3 127 11 127 27 0 76 -30
69 -42 -4 -7 -3 -8 5 -4 14 9 64 -21 56 -33 -2 -5 3 -15 13 -22 15 -13 16 -12
3 4 -19 24 2 22 24 -3 33 -36 45 -26 45 41 l0 60 58 -6 c31 -4 74 -11 95 -15
53 -11 47 7 -10 32 -27 11 -49 25 -51 29 -2 5 -23 6 -46 3 -36 -5 -44 -3 -50
12 -5 12 -1 23 10 31 17 12 16 15 -11 43 -16 16 -34 30 -41 30 -7 0 -15 4 -18
8 -3 5 16 9 42 9 81 0 383 21 389 27 4 3 -88 6 -204 6 -115 0 -251 3 -302 7
l-91 6 0 504 c1 423 3 503 15 503 8 0 17 -4 20 -10 3 -5 0 -10 -7 -10 -8 0 -9
-3 -3 -8 6 -4 10 -20 9 -37 -1 -37 5 -55 18 -55 6 0 8 11 4 24 -4 17 -1 26 11
30 9 4 18 4 21 1 3 -3 0 -5 -6 -5 -7 0 -12 -9 -12 -20 0 -28 18 -25 26 4 6 24
6 24 25 5 10 -10 24 -19 30 -19 5 0 7 -4 4 -10 -3 -6 1 -7 9 -4 9 3 16 2 16
-4 0 -5 12 -18 28 -27 15 -10 0 10 -33 45 -38 39 -85 74 -127 96 -38 19 -68
41 -68 49 0 21 23 19 71 -6 22 -11 46 -18 52 -16 16 5 -75 57 -101 57 -21 0
-22 2 -23 203 0 111 -4 294 -8 407 l-7 205 -6 -280z m122 -650 c0 -2 -6 -5
-13 -8 -8 -3 -14 1 -14 8 0 7 6 11 14 8 7 -3 13 -6 13 -8z m19678 -33 c2 -7
-3 -12 -12 -12 -9 0 -16 7 -16 16 0 17 22 14 28 -4z m99 -8 c-3 -3 -12 -4 -19
-1 -8 3 -5 6 6 6 11 1 17 -2 13 -5z m-157 -61 c0 -23 -6 -30 -58 -75 -61 -55
-71 -47 -12 10 27 26 50 56 50 65 0 9 5 17 10 17 6 0 10 -8 10 -17z m-260
-277 c0 -3 -4 -8 -10 -11 -5 -3 -10 -1 -10 4 0 6 5 11 10 11 6 0 10 -2 10 -4z
m45 -51 c0 -9 -11 -25 -25 -34 l-25 -16 18 28 c15 23 15 27 2 27 -8 0 -15 -5
-15 -11 0 -5 -5 -7 -11 -3 -8 4 -9 -3 -5 -22 3 -16 2 -35 -3 -43 -5 -8 -9 3
-9 32 -1 41 2 47 26 55 35 13 47 10 47 -13z m5 -169 c0 -68 -4 -97 -14 -105
-12 -10 -13 2 -9 74 5 74 4 85 -11 85 -9 0 -16 3 -16 6 0 8 32 33 43 34 4 0 7
-42 7 -94z m-77 50 c3 -8 -4 -22 -16 -32 -12 -10 -16 -12 -9 -4 6 8 12 22 12
32 0 22 6 23 13 4z m-121 -548 c-2 -325 -6 -536 -12 -542 -7 -7 -10 154 -10
448 l0 457 -37 -21 c-21 -11 -124 -84 -230 -160 -105 -77 -194 -140 -197 -140
-23 0 17 33 172 142 97 69 203 142 235 162 l57 37 0 58 c0 59 6 91 19 91 3 0
5 -240 3 -532z m148 454 c0 -4 -9 -8 -20 -9 -11 -1 -18 2 -15 8 7 11 35 12 35
1z m137 -8 c-3 -3 -12 -4 -19 -1 -8 3 -5 6 6 6 11 1 17 -2 13 -5z m-197 -38
c0 -3 -4 -8 -10 -11 -5 -3 -10 -1 -10 4 0 6 5 11 10 11 6 0 10 -2 10 -4z m21
-49 c-13 -12 -20 -15 -16 -7 14 26 28 41 33 35 3 -3 -5 -16 -17 -28z m550 -55
c-7 -18 -34 -42 -68 -63 -101 -62 -95 -43 -88 -262 3 -106 2 -358 -3 -562 l-9
-370 -1 576 -2 577 68 38 c50 30 68 45 70 64 5 33 22 54 35 41 7 -7 6 -20 -2
-39z m-461 -11 c0 -27 -15 -49 -26 -39 -7 8 8 68 17 68 5 0 9 -13 9 -29z m50
12 c0 -10 -5 -25 -10 -33 -7 -11 -10 -7 -10 18 0 17 5 32 10 32 6 0 10 -8 10
-17z m521 -36 c-13 -13 -26 -3 -16 12 3 6 11 8 17 5 6 -4 6 -10 -1 -17z m-624
-24 c-3 -10 -5 -4 -5 12 0 17 2 24 5 18 2 -7 2 -21 0 -30z m53 -127 c0 -26
-15 -43 -24 -28 -7 12 4 52 15 52 5 0 9 -11 9 -24z m-60 -11 c0 -16 -6 -25
-15 -25 -16 0 -19 9 -9 34 9 25 24 19 24 -9z m-194 2 c-11 -7 -67 -44 -125
-83 -58 -39 -132 -84 -164 -100 -32 -16 -53 -30 -47 -32 16 -6 12 -29 -5 -29
-8 0 -15 5 -15 10 0 5 -7 6 -16 3 -10 -4 -14 -1 -12 6 3 7 49 38 104 69 54 31
139 81 188 112 49 31 94 57 100 56 6 0 2 -6 -8 -12z m301 -19 c-3 -8 -6 -5 -6
6 -1 11 2 17 5 13 3 -3 4 -12 1 -19z m505 9 c-6 -7 -43 -30 -81 -52 l-71 -40
0 -234 c0 -129 -3 -231 -7 -228 -3 4 -7 123 -8 264 -2 142 -1 248 2 236 6 -31
18 -28 93 22 66 44 91 56 72 32z m-19917 -53 c72 -42 88 -59 80 -82 -6 -21
-13 -22 -106 -22 l-99 0 0 69 0 69 43 -5 c23 -3 60 -16 82 -29z m19943 -496
l-3 -493 -5 460 c-5 430 -4 525 6 525 2 0 3 -222 2 -492z m-1698 462 c5 8 7 3
7 -13 -2 -19 -5 -23 -14 -15 -7 6 -13 18 -12 27 0 12 2 12 6 2 4 -10 7 -11 13
-1z m1118 -36 c-3 -14 -5 -12 -10 9 -3 19 -2 25 4 19 6 -6 8 -18 6 -28z m-32
15 c3 -6 0 -15 -7 -20 -14 -8 -32 9 -23 23 7 11 22 10 30 -3z m-632 -35 c-11
-17 -20 -22 -27 -15 -12 12 8 41 29 41 12 0 11 -5 -2 -26z m304 -31 c-2 -10
-11 -19 -21 -21 -16 -3 -17 -1 -7 17 13 25 33 28 28 4z m-65 -41 c-8 -55 -19
-59 -26 -11 -6 49 -2 60 18 53 9 -4 12 -16 8 -42z m-46 19 c1 -11 -5 -25 -13
-31 -8 -7 -12 -21 -8 -34 3 -11 -2 -30 -11 -41 -15 -19 -15 -16 -9 40 4 37 12
65 22 73 9 6 16 12 17 12 0 0 1 -9 2 -19z m-18826 -11 c18 -10 27 -40 12 -40
-11 0 -73 39 -73 45 0 9 41 5 61 -5z m18492 -116 c-4 -29 -2 -35 9 -28 11 6
11 5 0 -9 -10 -12 -19 -14 -38 -7 -16 6 -24 6 -24 -1 0 -6 -5 -7 -10 -4 -6 4
-8 16 -5 28 2 12 2 16 -1 10 -3 -7 -11 -13 -17 -13 -18 0 7 21 50 41 21 9 39
18 39 18 1 1 0 -15 -3 -35z m911 -65 c-8 -14 -34 -10 -34 5 0 9 7 12 20 9 11
-3 17 -9 14 -14z m-963 -36 c-9 -16 -10 -15 -9 9 2 16 6 24 11 19 5 -5 5 -17
-2 -28z m-556 -18 c-16 -13 -34 -24 -40 -24 -5 0 4 11 20 24 17 14 35 25 40
25 6 0 -3 -11 -20 -25z m-17930 -17 c24 -21 26 -29 23 -85 l-3 -62 -42 19 -43
19 0 66 c0 58 2 65 19 65 11 0 32 -10 46 -22z m17875 -8 c0 -13 -48 -35 -57
-27 -8 8 26 36 45 37 6 0 12 -5 12 -10z m80 -53 c0 -13 -58 -52 -66 -44 -5 4
53 57 62 57 2 0 4 -6 4 -13z m1640 -1 c0 -3 -4 -8 -10 -11 -5 -3 -10 -1 -10 4
0 6 5 11 10 11 6 0 10 -2 10 -4z m-289 -46 c-19 -16 -37 -27 -40 -24 -7 7 50
54 64 54 6 -1 -5 -14 -24 -30z m-1451 -30 c0 -13 -5 -18 -15 -14 -16 7 -19 17
-8 27 12 13 23 7 23 -13z m-650 0 c0 -5 -2 -10 -4 -10 -3 0 -8 5 -11 10 -3 6
-1 10 4 10 6 0 11 -4 11 -10z m420 0 c0 -5 -5 -10 -11 -10 -5 0 -7 5 -4 10 3
6 8 10 11 10 2 0 4 -4 4 -10z m-17683 -22 c-3 -8 -6 -5 -6 6 -1 11 2 17 5 13
3 -3 4 -12 1 -19z m17645 -3 c-8 -16 -9 -16 -15 -1 -4 10 -3 15 3 11 6 -3 10
-1 10 6 0 7 3 10 6 6 3 -3 2 -13 -4 -22z m-17564 -62 c-1 -47 -3 -55 -5 -28
-3 22 -10 44 -16 48 -9 6 -9 10 1 14 6 2 12 11 12 19 0 8 2 14 5 14 3 0 4 -30
3 -67z m18507 37 c3 -5 1 -10 -4 -10 -6 0 -11 5 -11 10 0 6 2 10 4 10 3 0 8
-4 11 -10z m-25 -27 c0 -13 3 -14 12 -5 15 15 32 16 23 2 -7 -11 -79 -50 -92
-50 -4 0 1 6 11 13 9 7 19 21 21 32 2 11 4 21 4 23 4 10 21 -2 21 -15z m615
-13 c-3 -5 -12 -10 -19 -10 -8 0 -19 -7 -26 -15 -7 -8 -18 -15 -24 -15 -17 1
43 50 60 50 8 0 12 -4 9 -10z m-507 -127 l-2 -128 -5 115 c-6 107 -5 140 5
140 2 0 3 -57 2 -127z m392 79 c0 -4 -14 -13 -31 -21 -18 -8 -28 -18 -25 -27
3 -7 1 -16 -4 -19 -6 -4 -10 7 -10 22 0 24 6 31 33 40 17 5 33 11 35 12 1 0 2
-2 2 -7z m-490 -83 c-4 -52 -9 -65 -31 -82 -15 -10 -33 -17 -40 -15 -9 3 -2
11 19 22 31 16 32 19 32 76 0 41 4 60 13 60 9 0 11 -16 7 -61z m400 16 c0 -6
-77 -45 -90 -45 -24 0 -7 17 33 32 48 18 57 20 57 13z m-1290 -24 c0 -5 -7
-12 -16 -15 -14 -5 -15 -4 -4 9 14 17 20 19 20 6z m1674 -13 c19 -31 29 -78
16 -78 -5 0 -10 10 -10 23 -1 36 -25 60 -52 52 -23 -7 -23 -7 -3 9 27 21 32
20 49 -6z m-81 -28 c-7 -26 -19 -34 -29 -19 -4 7 1 18 11 26 24 17 24 17 18
-7z m-463 -18 c0 -11 -87 -52 -94 -45 -4 4 15 17 41 29 57 27 53 26 53 16z
m200 -2 c0 -5 -5 -10 -11 -10 -5 0 -7 5 -4 10 3 6 8 10 11 10 2 0 4 -4 4 -10z
m210 0 c0 -5 -7 -10 -16 -10 -8 0 -12 5 -9 10 3 6 10 10 16 10 5 0 9 -4 9 -10z
m-2546 -67 c-7 -75 -14 -81 -14 -11 0 47 5 68 16 68 1 0 0 -26 -2 -57z m933 5
c-3 -7 -5 -2 -5 12 0 14 2 19 5 13 2 -7 2 -19 0 -25z m1548 12 c4 -6 11 -8 16
-5 23 15 6 -5 -26 -29 -39 -30 -47 -28 -13 4 12 11 16 20 10 20 -7 0 -12 5
-12 10 0 13 17 13 25 0z m-1905 -4 c0 -3 -25 -10 -55 -16 -64 -13 -89 -33 -82
-67 3 -19 0 -23 -19 -23 -13 0 -24 3 -24 6 0 19 66 85 93 93 34 10 87 14 87 7z
m1975 -5 c3 -5 2 -12 -3 -15 -5 -3 -9 1 -9 9 0 17 3 19 12 6z m-135 -27 c0
-22 -2 -24 -15 -14 -12 10 -16 9 -21 -5 -4 -9 -1 -20 6 -25 8 -5 9 -10 2 -14
-6 -3 -13 3 -17 14 -8 27 -35 26 -35 -1 0 -17 -3 -19 -13 -10 -10 8 -17 7 -26
-2 -11 -10 -13 -9 -9 3 5 17 74 58 101 59 9 1 17 6 17 11 0 6 2 10 5 10 3 0 5
-12 5 -26z m-1393 -29 c-7 -14 -16 -25 -20 -25 -11 0 -5 43 8 52 17 12 23 -2
12 -27z m38 -5 c-5 -8 -11 -8 -17 -2 -6 6 -7 16 -3 22 5 8 11 8 17 2 6 -6 7
-16 3 -22z m836 -7 c-8 -15 -10 -15 -11 -2 0 17 10 32 18 25 2 -3 -1 -13 -7
-23z m839 9 c0 -7 -163 -92 -177 -92 -14 0 11 17 85 56 84 45 92 48 92 36z
m-472 -46 c-2 -21 -5 -23 -21 -14 -17 9 -18 7 -12 -14 l8 -23 -23 20 -22 20 3
-24 c3 -17 -3 -28 -21 -38 l-25 -15 24 21 c13 11 18 22 12 23 -30 4 -36 2 -36
-11 0 -8 -6 -16 -12 -18 -7 -3 -13 3 -13 11 0 10 23 27 58 44 31 15 59 30 60
35 8 17 22 5 20 -17z m82 -58 c0 -41 -16 -34 -18 9 -2 20 -5 41 -8 47 -3 6 2
2 10 -8 9 -11 16 -32 16 -48z m-2160 -293 c-4 -176 -7 -259 -8 -185 -1 74 -5
206 -9 293 l-6 158 -29 -28 -28 -27 0 -153 c0 -139 -7 -181 -24 -137 -3 9 -6
77 -6 152 l0 136 57 58 c31 32 57 56 58 55 0 -1 -2 -146 -5 -322z m2840 268
c0 -25 -2 -44 -4 -42 -7 7 -15 72 -10 81 10 17 14 7 14 -39z m-501 24 c-21
-18 -136 -71 -132 -61 5 14 99 62 122 63 8 1 12 -1 10 -2z m-436 -27 c-3 -11
-9 -18 -13 -15 -5 3 -29 -4 -55 -15 -33 -14 -45 -25 -41 -35 3 -8 1 -15 -3
-15 -5 0 -11 6 -14 13 -4 12 -9 10 -176 -79 -36 -18 -67 -31 -70 -29 -2 3 -2
7 0 9 7 6 364 185 371 186 3 0 4 -9 1 -20z m-18596 -12 c-3 -8 -6 -5 -6 6 -1
11 2 17 5 13 3 -3 4 -12 1 -19z m16333 8 c0 -3 -4 -8 -10 -11 -5 -3 -10 -1
-10 4 0 6 5 11 10 11 6 0 10 -2 10 -4z m2270 -36 c8 -5 11 -10 5 -10 -5 0 -17
5 -25 10 -8 5 -10 10 -5 10 6 0 17 -5 25 -10z m40 -19 c0 -5 -9 -11 -20 -14
-22 -6 -28 8 -7 16 19 8 27 8 27 -2z m195 -11 c-22 -24 -302 -166 -311 -157
-3 3 52 35 122 71 71 36 143 74 159 85 39 26 53 26 30 1z m590 10 c3 -6 -1 -7
-9 -4 -18 7 -21 14 -7 14 6 0 13 -4 16 -10z m102 -647 c-1 -120 -2 -22 -2 217
0 239 1 337 2 218 2 -120 2 -316 0 -435z m-888 620 c0 -5 -4 -17 -9 -28 -8
-18 -9 -17 -9 8 -1 15 4 27 9 27 6 0 10 -3 9 -7z m-174 -13 c-3 -5 -10 -10
-16 -10 -5 0 -9 5 -9 10 0 6 7 10 16 10 8 0 12 -4 9 -10z m-52 -15 c4 -8 2
-17 -3 -20 -6 -4 -10 3 -10 14 0 25 6 27 13 6z m-49 -33 c-11 -9 -30 -24 -43
-32 -19 -13 -24 -27 -28 -83 -3 -37 -2 -67 1 -67 4 0 33 14 66 30 39 20 60 26
60 18 -1 -15 -180 -102 -180 -87 0 5 10 14 23 20 21 9 22 14 16 77 -3 37 -7
74 -10 82 -3 11 3 14 19 13 13 -2 25 4 28 12 4 8 15 15 25 15 10 0 19 5 19 10
0 6 6 10 13 10 7 -1 3 -8 -9 -18z m-2584 -55 c0 -2 -34 -25 -75 -51 -62 -39
-75 -52 -76 -74 0 -27 0 -27 -10 -4 -9 25 3 62 21 62 5 0 33 16 62 34 46 30
78 44 78 33z m1910 -47 c0 -5 -5 -10 -11 -10 -5 0 -7 5 -4 10 3 6 8 10 11 10
2 0 4 -4 4 -10z m-19432 -37 c-2 -10 -13 -19 -26 -21 -24 -4 -25 -2 -16 22 9
23 46 21 42 -1z m19347 -3 c-3 -5 -11 -10 -16 -10 -6 0 -7 5 -4 10 3 6 11 10
16 10 6 0 7 -4 4 -10z m-3418 -32 c-3 -8 -6 -5 -6 6 -1 11 2 17 5 13 3 -3 4
-12 1 -19z m972 2 c31 -1 33 -2 17 -11 -22 -13 -94 -6 -110 12 -8 9 -3 10 23
5 18 -3 50 -6 70 -6z m-141 -9 c8 -5 -28 -10 -90 -13 l-105 -5 -69 -56 c-38
-31 -89 -73 -114 -94 -71 -59 -26 -11 73 80 l90 82 71 6 c112 9 130 9 144 0z
m-16243 -23 c28 -12 35 -34 8 -23 -10 4 -26 10 -35 12 -19 6 -25 23 -8 23 5 0
21 -5 35 -12z m18965 -8 c0 -5 -2 -10 -4 -10 -3 0 -8 5 -11 10 -3 6 -1 10 4
10 6 0 11 -4 11 -10z m-70 -10 c0 -5 -4 -10 -10 -10 -5 0 -10 5 -10 10 0 6 5
10 10 10 6 0 10 -4 10 -10z m1470 1 c0 -10 -30 -24 -37 -17 -3 3 -2 9 2 15 8
13 35 15 35 2z m-2742 -49 l-63 -49 -1 -84 c-2 -87 -18 -118 -28 -52 -16 113
-4 143 84 202 72 48 77 36 8 -17z m-17457 -20 l124 -59 1 -74 c1 -68 1 -71 -7
-29 -5 25 -8 54 -7 65 2 16 -12 28 -69 56 -92 47 -131 60 -138 49 -3 -5 -6
-34 -7 -65 -2 -86 -16 -65 -20 30 -2 47 -2 85 -2 85 1 0 57 -26 125 -58z
m18574 28 c-3 -5 -11 -10 -16 -10 -6 0 -7 5 -4 10 3 6 11 10 16 10 6 0 7 -4 4
-10z m106 -43 c-8 -8 -11 -7 -11 4 0 20 13 34 18 19 3 -7 -1 -17 -7 -23z m829
18 c0 -8 -7 -15 -15 -15 -26 0 -18 20 13 29 1 1 2 -6 2 -14z m-163 -377 c-1
-73 -3 -16 -3 127 0 143 2 203 3 133 2 -70 2 -187 0 -260z m-1897 228 c-7 -7
-10 11 -10 60 0 92 14 106 18 18 2 -38 -2 -72 -8 -78z m1023 130 c6 -16 -2
-28 -14 -20 -12 7 -11 34 0 34 5 0 11 -6 14 -14z m1787 4 c0 -5 -7 -10 -16
-10 -8 0 -12 5 -9 10 3 6 10 10 16 10 5 0 9 -4 9 -10z m-18603 -82 c-3 -7 -5
-2 -5 12 0 14 2 19 5 13 2 -7 2 -19 0 -25z m16733 23 c0 -10 -30 -24 -37 -17
-3 3 -2 9 2 15 8 13 35 15 35 2z m-13569 -42 c36 -3 69 -24 69 -44 0 -6 24
-32 53 -58 38 -33 53 -53 53 -71 0 -23 -5 -20 -65 37 -37 34 -92 84 -123 111
-32 27 -58 54 -58 60 1 6 9 1 19 -11 10 -12 32 -22 52 -24z m13899 20 c0 -5
-4 -9 -10 -9 -5 0 -10 7 -10 16 0 8 5 12 10 9 6 -3 10 -10 10 -16z m-18644 0
c3 -6 1 -16 -5 -22 -8 -8 -11 -8 -11 0 0 15 -33 25 -54 17 -10 -4 -22 -16 -26
-28 -9 -21 -9 -21 -9 0 -1 11 4 25 11 32 15 15 84 16 94 1z m17031 -30 c-14
-37 -27 -37 -27 -1 0 33 7 43 25 36 10 -4 10 -12 2 -35z m1783 31 c0 -5 -7
-10 -16 -10 -8 0 -12 5 -9 10 3 6 10 10 16 10 5 0 9 -4 9 -10z m1318 -11 c-2
-6 -8 -10 -13 -10 -5 0 -11 4 -13 10 -2 6 4 11 13 11 9 0 15 -5 13 -11z
m-1708 -19 c0 -5 -4 -10 -10 -10 -5 0 -10 5 -10 10 0 6 5 10 10 10 6 0 10 -4
10 -10z m-84 -37 c-10 -10 -19 5 -10 18 6 11 8 11 12 0 2 -7 1 -15 -2 -18z
m-18529 -15 c-3 -7 -5 -2 -5 12 0 14 2 19 5 13 2 -7 2 -19 0 -25z m17013 23
c0 -5 -7 -14 -15 -21 -12 -10 -15 -10 -15 2 0 8 3 18 7 21 9 10 23 9 23 -2z
m3620 -16 c0 -8 -2 -15 -4 -15 -2 0 -6 7 -10 15 -3 8 -1 15 4 15 6 0 10 -7 10
-15z m-20453 -62 c-2 -16 -4 -5 -4 22 0 28 2 40 4 28 2 -13 2 -35 0 -50z
m18653 58 c0 -12 -20 -25 -27 -18 -7 7 6 27 18 27 5 0 9 -4 9 -9z m-16400 -31
c17 -9 18 -28 19 -282 0 -150 -3 -289 -8 -308 -6 -23 -9 70 -10 264 -1 264 -3
302 -18 318 -18 20 -11 23 17 8z m12780 -10 c0 -5 -2 -10 -4 -10 -3 0 -8 5
-11 10 -3 6 -1 10 4 10 6 0 11 -4 11 -10z m1630 -18 c0 -10 -7 -27 -15 -38
-14 -19 -14 -19 -15 3 0 28 10 53 21 53 5 0 9 -8 9 -18z m610 8 c0 -14 -79
-64 -88 -55 -4 4 4 15 17 24 14 9 30 21 35 28 13 15 36 17 36 3z m1830 -1 c0
-4 -4 -11 -10 -14 -5 -3 -11 -32 -12 -63 l-2 -57 -3 49 c-2 27 -11 58 -19 71
-13 21 -13 22 16 22 16 0 30 -4 30 -8z m-19043 -51 c-2 -13 -4 -5 -4 17 -1 22
1 32 4 23 2 -10 2 -28 0 -40z m4600 12 c1 -11 -2 -18 -8 -15 -11 7 -12 35 -1
35 4 0 8 -9 9 -20z m12683 16 c0 -5 -157 -96 -165 -96 -22 0 10 25 75 59 74
38 90 45 90 37z m2790 -6 c0 -5 -9 -10 -21 -10 -11 0 -17 5 -14 10 3 6 13 10
21 10 8 0 14 -4 14 -10z m-4405 -58 c-17 -15 -52 -45 -79 -68 -32 -27 -47 -47
-44 -59 2 -15 16 -7 76 44 40 35 76 60 79 57 5 -5 -16 -25 -126 -122 -21 -19
-32 -37 -30 -48 3 -16 10 -14 49 20 24 21 57 51 72 66 l28 26 0 -24 c0 -17 -6
-24 -20 -24 -11 0 -20 -7 -20 -15 0 -8 -4 -15 -9 -15 -18 0 -104 -86 -99 -100
3 -9 15 -3 40 19 20 17 39 31 44 31 10 0 -88 -89 -98 -90 -5 0 -8 46 -8 103
l0 103 78 62 c77 62 123 85 67 34z m1621 9 c-6 -9 -150 -91 -161 -91 -3 0 -5
4 -5 9 0 5 24 19 53 31 28 12 63 31 76 41 25 20 46 25 37 10z m4 -55 c0 -10
-164 -96 -174 -93 -6 2 30 25 79 50 99 51 95 49 95 43z m-2222 -648 c-2 -373
-6 -490 -15 -500 -10 -10 -13 93 -13 514 0 289 3 547 7 574 l7 49 8 -75 c5
-41 7 -294 6 -562z m5000 600 c-6 -18 -28 -21 -28 -4 0 9 7 16 16 16 9 0 14
-5 12 -12z m-1438 -16 c0 -8 -73 -52 -195 -117 -38 -21 -77 -43 -85 -50 -8 -8
-44 -30 -80 -50 -45 -25 -59 -30 -46 -16 10 11 42 34 70 51 28 16 112 66 186
110 135 80 150 87 150 72z m-13815 -21 c3 -5 1 -12 -5 -16 -5 -3 -10 1 -10 9
0 18 6 21 15 7z m12445 4 c0 -2 -13 -11 -30 -20 -38 -19 -40 -11 -2 9 31 17
32 18 32 11z m2120 -4 c0 -5 -7 -11 -15 -15 -15 -5 -20 5 -8 17 9 10 23 9 23
-2z m-19156 -36 c16 -17 42 -29 82 -36 68 -14 77 -19 68 -43 -6 -15 -9 -15
-23 -3 -9 8 -50 23 -91 33 -41 10 -76 19 -78 20 -4 2 9 54 15 54 2 0 14 -11
27 -25z m15457 2 c-10 -9 -11 -8 -5 6 3 10 9 15 12 12 3 -3 0 -11 -7 -18z
m-10823 -23 c-4 -3 -12 5 -18 18 -12 22 -12 22 6 6 10 -10 15 -20 12 -24z
m11522 -1 c-56 -49 -82 -63 -50 -28 22 24 78 65 89 65 3 0 -15 -17 -39 -37z
m780 2 c-38 -28 -40 -29 -40 -15 0 10 47 39 64 40 6 0 -5 -11 -24 -25z m-1541
-106 c-74 -69 -99 -82 -99 -54 0 8 7 15 15 15 16 0 54 32 113 93 21 23 38 33
41 26 2 -6 -30 -43 -70 -80z m4466 61 c-3 -5 -10 -10 -16 -10 -5 0 -9 5 -9 10
0 6 7 10 16 10 8 0 12 -4 9 -10z m-19609 -28 c12 -7 13 -11 4 -17 -12 -7 -80
24 -80 37 0 7 50 -5 76 -20z m-277 -5 c7 -18 25 -28 78 -42 37 -11 71 -18 76
-17 4 1 7 -16 7 -38 0 -37 -11 -52 -24 -31 -3 5 -23 12 -43 15 -21 4 -55 12
-75 17 l-38 10 0 54 c0 59 5 68 19 32z m16946 13 c-3 -5 -12 -10 -18 -10 -7 0
-6 4 3 10 19 12 23 12 15 0z m-995 -4 c0 -9 -212 -167 -217 -162 -2 2 41 41
98 85 91 73 119 90 119 77z m-15590 -51 c0 -8 -4 -15 -8 -15 -13 0 -43 36 -36
43 10 10 44 -12 44 -28z m15099 -16 c-19 -16 -56 -51 -82 -76 -46 -44 -65 -52
-51 -22 7 16 157 137 163 132 3 -2 -11 -17 -30 -34z m-13216 -18 c37 -18 67
-37 67 -42 0 -13 -6 -12 -64 16 -29 14 -61 35 -72 46 -22 25 -23 25 69 -20z
m2322 19 c3 -5 2 -10 -4 -10 -5 0 -13 5 -16 10 -3 6 -2 10 4 10 5 0 13 -4 16
-10z m15295 -20 c0 -16 -2 -30 -4 -30 -2 0 -6 14 -8 30 -3 17 -1 30 4 30 4 0
8 -13 8 -30z m-15466 4 c3 -8 2 -12 -4 -9 -6 3 -10 10 -10 16 0 14 7 11 14 -7z
m10880 7 c6 -10 -26 -21 -61 -21 -23 0 -30 10 -16 23 10 10 71 8 77 -2z m4056
-15 c0 -8 -4 -18 -10 -21 -5 -3 -10 3 -10 14 0 12 5 21 10 21 6 0 10 -6 10
-14z m-19087 -39 c3 -15 5 -11 6 11 2 49 25 35 29 -16 3 -35 0 -42 -15 -42
-29 0 -40 13 -47 54 -7 35 -6 38 8 27 8 -7 17 -22 19 -34z m4367 22 c0 -6 -4
-7 -10 -4 -5 3 -10 11 -10 16 0 6 5 7 10 4 6 -3 10 -11 10 -16z m10845 -32
c-27 -23 -68 -59 -89 -80 -38 -37 -56 -43 -39 -13 9 16 162 136 172 136 3 -1
-16 -20 -44 -43z m2535 28 c-7 -8 -17 -15 -23 -15 -6 0 -2 7 9 15 25 19 30 19
14 0z m-13476 -42 c28 -26 55 -54 60 -63 9 -16 -20 9 -86 73 -56 54 -34 46 26
-10z m-4304 12 c0 -9 -6 -12 -15 -9 -8 4 -15 10 -15 15 0 5 7 9 15 9 8 0 15
-7 15 -15z m140 -31 c0 -59 -24 -55 -28 4 -2 33 0 42 12 42 12 0 16 -11 16
-46z m19590 21 c0 -8 -4 -15 -10 -15 -5 0 -10 7 -10 15 0 8 5 15 10 15 6 0 10
-7 10 -15z m-814 -4 c-7 -11 -46 -21 -46 -12 0 13 13 21 32 21 11 0 17 -4 14
-9z m-16019 -248 c1 -129 -1 -195 -6 -173 -14 59 -22 405 -8 391 7 -7 12 -80
14 -218z m16223 192 c0 -8 -7 -15 -15 -15 -16 0 -20 12 -8 23 11 12 23 8 23
-8z m-19231 -38 c25 -1 43 -9 50 -19 9 -14 8 -18 -4 -18 -11 0 -15 -11 -15
-41 0 -22 -4 -38 -9 -35 -5 3 -7 24 -4 45 l5 39 -71 13 c-76 13 -85 18 -75 43
5 14 11 13 45 -5 22 -10 57 -20 78 -22z m4291 28 c0 -8 -4 -15 -10 -15 -5 0
-10 7 -10 15 0 8 5 15 10 15 6 0 10 -7 10 -15z m11005 -43 c-33 -31 -62 -53
-64 -49 -4 11 37 54 79 83 53 35 50 29 -15 -34z m-10791 17 c-2 -4 3 -15 12
-23 8 -9 12 -16 7 -16 -8 0 -43 36 -43 43 0 2 7 4 15 4 8 0 12 -4 9 -8z
m11326 7 c0 -2 -30 -26 -67 -52 -38 -26 -83 -59 -102 -73 -19 -14 -32 -20 -30
-13 2 7 45 42 94 77 82 59 105 72 105 61z m-775 -15 c8 -14 -28 -31 -44 -21
-8 4 -10 13 -7 19 9 13 43 15 51 2z m-105 -10 c0 -10 -24 -21 -46 -21 -20 0
-17 18 4 23 29 8 42 7 42 -2z m-120 -10 c0 -12 -28 -22 -34 -12 -3 5 -3 11 1
15 9 9 33 7 33 -3z m-14740 -11 c0 -5 -4 -10 -10 -10 -5 0 -10 5 -10 10 0 6 5
10 10 10 6 0 10 -4 10 -10z m16560 6 c0 -3 -33 -26 -72 -52 -40 -26 -79 -54
-85 -62 -14 -17 -18 -5 -5 14 9 13 144 104 154 104 5 0 8 -2 8 -4z m2341 -9
c-19 -24 -88 -50 -108 -42 -14 6 -10 9 19 15 20 4 47 14 60 23 28 20 44 22 29
4z m-18841 -12 c0 -8 -7 -15 -15 -15 -8 0 -15 7 -15 15 0 8 7 15 15 15 8 0 15
-7 15 -15z m100 -21 c0 -13 -4 -24 -10 -24 -5 0 -10 14 -10 31 0 17 4 28 10
24 6 -3 10 -17 10 -31z m149 -16 c-1 -43 -3 -47 -8 -23 -6 28 -3 75 5 75 2 0
3 -24 3 -52z m17568 46 c-3 -3 -12 -4 -19 -1 -8 3 -5 6 6 6 11 1 17 -2 13 -5z
m-2673 -32 c-49 -47 -64 -57 -64 -40 0 7 19 26 42 41 53 34 58 34 22 -1z
m3564 -7 c-2 -3 -98 -45 -211 -94 -114 -49 -218 -96 -232 -105 -29 -19 -34
-56 -8 -56 15 0 14 -2 -2 -14 -11 -8 -23 -12 -26 -10 -8 5 6 73 18 84 7 7 89
43 413 183 36 16 57 21 48 12z m-18958 -19 c0 -8 11 -18 25 -23 33 -11 18 -33
-18 -26 -22 4 -27 11 -27 34 0 16 5 29 10 29 6 0 10 -6 10 -14z m20359 1 c-12
-11 -137 -67 -148 -67 -6 0 -23 -7 -36 -16 -13 -9 -29 -14 -35 -12 -7 2 39 27
101 55 63 29 116 50 118 47 2 -2 2 -6 0 -7z m-18164 -17 c13 -6 15 -9 5 -9 -8
0 -22 4 -30 9 -18 12 -2 12 25 0z m13212 -7 c-9 -10 -31 -26 -49 -36 l-33 -18
39 35 c40 37 72 50 43 19z m-16091 -2 c11 9 14 8 14 -5 0 -9 -8 -16 -20 -16
-13 0 -20 6 -19 18 0 11 2 12 6 4 4 -10 8 -10 19 -1z m792 -12 c2 6 8 11 13
11 12 0 11 -101 -1 -120 -7 -11 -10 -2 -10 31 0 43 -2 46 -25 44 -14 -2 -27 1
-31 6 -3 5 -1 9 5 9 6 0 8 7 4 16 -5 14 -3 15 18 4 17 -10 24 -10 27 -1z m242
-59 c0 -33 -4 -60 -10 -60 -6 0 -10 27 -10 60 0 33 4 60 10 60 6 0 10 -27 10
-60z m1945 39 c5 -5 -5 -4 -23 2 -17 6 -32 13 -32 16 0 7 43 -8 55 -18z
m13627 -2 c-17 -21 -182 -130 -188 -124 -4 4 183 136 195 137 2 0 -1 -6 -7
-13z m-15936 -55 c-12 -11 -17 7 -9 34 l8 29 3 -28 c2 -16 1 -31 -2 -35z
m7604 43 c0 -11 -11 -15 -40 -15 -29 0 -40 4 -40 15 0 11 11 15 40 15 29 0 40
-4 40 -15z m-444 -16 c9 -15 -14 -29 -48 -29 -28 0 -43 13 -33 30 8 14 72 13
81 -1z m8264 3 c0 -13 -60 -54 -73 -49 -7 2 -1 10 13 17 14 7 29 19 33 26 9
15 27 19 27 6z m-8440 -17 c0 -11 -11 -15 -40 -15 -29 0 -40 4 -40 15 0 11 11
15 40 15 29 0 40 -4 40 -15z m13135 -7 c-11 -7 -58 -29 -105 -49 l-85 -37 -6
-73 -6 -74 1 78 1 79 100 43 c97 42 141 56 100 33z m-20110 -53 c0 -24 6 -31
30 -40 34 -11 45 -22 45 -47 0 -15 -9 -18 -44 -18 l-43 0 -7 46 c-9 70 -8 96
6 92 7 -3 12 -17 13 -33z m17325 28 c0 -5 -7 -16 -14 -26 -12 -16 -14 -16 -20
-1 -10 26 -7 34 14 34 11 0 20 -3 20 -7z m-1936 -37 c-3 -8 -13 -17 -22 -21
-13 -5 -13 -2 3 15 21 24 26 25 19 6z m-15996 -13 c-16 -2 -40 -2 -55 0 -16 2
-3 4 27 4 30 0 43 -2 28 -4z m738 -120 c-3 -8 -10 -11 -16 -8 -14 9 -12 89 3
104 10 10 13 3 15 -35 2 -25 1 -53 -2 -61z m15615 -43 c6 0 49 23 96 50 48 28
80 43 73 35 -7 -9 -34 -28 -59 -42 -25 -14 -62 -36 -82 -49 l-37 -23 -6 22
c-3 12 -5 54 -4 92 l2 70 3 -77 c2 -46 8 -78 14 -78z m-14902 111 c20 -16 82
-54 139 -86 l102 -57 0 -39 c0 -32 -4 -39 -19 -39 -14 0 -21 11 -27 46 -10 53
-28 63 -32 17 -3 -27 -32 -58 -32 -33 0 6 -7 10 -15 10 -10 0 -15 -17 -18 -67
-2 -42 -4 -21 -5 55 -1 67 -6 122 -10 122 -5 0 -31 17 -59 38 -28 20 -59 42
-70 49 -12 8 -13 12 -4 12 7 1 30 -12 50 -28z m14531 5 c0 -2 -8 -10 -17 -17
-16 -13 -17 -12 -4 4 13 16 21 21 21 13z m-15020 -91 c0 -30 -4 -55 -10 -55
-11 0 -14 93 -3 103 12 12 13 8 13 -48z m19663 20 c-54 -24 -101 -41 -93 -32
8 8 124 56 135 56 6 0 -13 -11 -42 -24z m-4653 -70 c-13 -14 -26 -23 -28 -20
-7 6 29 44 42 44 5 1 -1 -10 -14 -24z m3660 6 c0 -12 -20 -25 -27 -18 -7 7 6
27 18 27 5 0 9 -4 9 -9z m-18986 -47 c3 -7 -3 -18 -13 -24 -12 -6 -22 -26 -26
-50 -10 -61 -25 -37 -25 40 l0 69 29 -10 c16 -6 32 -17 35 -25z m91 -132 c-20
-20 -33 105 -14 139 13 22 14 18 17 -55 2 -43 0 -81 -3 -84z m3181 144 c3 -8
41 -40 85 -73 43 -32 75 -59 71 -60 -4 -2 -6 -53 -5 -114 1 -80 -2 -109 -10
-106 -8 2 -12 39 -12 114 l0 109 -55 40 c-68 49 -75 51 -61 26 6 -12 8 -23 4
-25 -5 -3 -8 -96 -8 -206 0 -111 -3 -201 -7 -201 -4 0 -9 109 -10 242 l-3 242
-25 13 -25 13 28 0 c15 0 30 -6 33 -14z m11994 5 c0 -10 -101 -74 -107 -67 -7
7 51 58 77 69 22 8 30 8 30 -2z m442 -111 c10 0 117 56 166 88 19 12 22 12 17
0 -3 -8 -31 -27 -63 -44 -135 -70 -132 -66 -132 -139 0 -36 4 -65 9 -65 18 0
152 71 172 91 19 19 21 19 17 2 -2 -11 -39 -36 -100 -68 l-98 -50 0 -72 c0
-40 4 -73 9 -73 4 0 41 14 82 30 40 17 77 29 82 27 6 -2 -31 -20 -81 -41 l-92
-39 0 -63 c0 -35 3 -64 8 -64 25 0 182 67 185 80 2 8 4 6 3 -5 -1 -16 -22 -28
-98 -59 l-98 -39 0 -63 c0 -47 4 -64 13 -64 8 0 47 11 87 25 41 14 79 24 85
22 5 -2 -34 -18 -87 -36 l-98 -33 0 -69 c0 -53 3 -69 14 -69 14 0 113 30 149
45 10 4 17 3 17 -3 0 -10 -53 -30 -137 -52 l-43 -11 0 -69 c0 -50 4 -70 13
-70 7 0 46 9 86 20 40 12 76 18 79 16 3 -3 -1 -8 -9 -11 -31 -11 -134 -35
-151 -35 -16 0 -18 -10 -18 -73 l0 -74 58 9 c31 5 70 13 86 18 27 9 46 7 35
-4 -3 -3 -44 -13 -91 -22 l-87 -17 -4 -81 c-1 -45 -3 236 -3 624 0 388 1 677
3 643 2 -37 8 -63 15 -63z m-12072 86 c0 -3 -4 -8 -10 -11 -5 -3 -10 -1 -10 4
0 6 5 11 10 11 6 0 10 -2 10 -4z m16270 -6 c-20 -13 -33 -13 -25 0 3 6 14 10
23 10 15 0 15 -2 2 -10z m-18940 -50 c0 -22 -5 -40 -11 -40 -5 0 -8 4 -5 9 4
5 0 11 -6 14 -10 3 -10 9 1 30 8 15 16 27 18 27 2 0 3 -18 3 -40z m-650 -31
c0 -21 -4 -39 -10 -39 -5 0 -10 21 -10 46 0 27 4 43 10 39 6 -3 10 -24 10 -46z
m18350 41 c-8 -5 -22 -9 -30 -9 -10 0 -8 3 5 9 27 12 43 12 25 0z m-17621 -32
c-1 -36 -15 -99 -19 -83 -1 6 -5 1 -10 -10 -6 -14 -9 3 -9 53 -1 66 1 72 19
72 16 0 20 -6 19 -32z m14848 -30 c-2 -13 -4 -3 -4 22 0 25 2 35 4 23 2 -13 2
-33 0 -45z m-8808 36 c10 -9 -14 -24 -39 -24 -31 0 -45 13 -35 31 6 9 62 4 74
-7z m151 1 c0 -10 -11 -15 -35 -15 -24 0 -35 5 -35 15 0 10 11 15 35 15 24 0
35 -5 35 -15z m11378 10 c-9 -10 -492 -185 -496 -180 -3 2 4 7 14 11 10 4 46
17 79 30 119 45 390 142 399 143 5 1 7 -1 4 -4z m-15268 -46 c0 -5 -7 -9 -15
-9 -15 0 -20 12 -9 23 8 8 24 -1 24 -14z m13731 2 c-12 -7 -21 -24 -21 -37 0
-12 -4 -26 -10 -29 -6 -3 -10 5 -10 19 0 14 -9 33 -19 43 -19 17 -18 18 30 18
46 0 49 -1 30 -14z m-17556 -2 c-41 -9 -165 -11 -165 -1 0 4 44 7 98 8 57 0
85 -2 67 -7z m3855 -19 c0 -5 -2 -10 -4 -10 -3 0 -8 5 -11 10 -3 6 -1 10 4 10
6 0 11 -4 11 -10z m-3423 -22 c-3 -8 -6 -5 -6 6 -1 11 2 17 5 13 3 -3 4 -12 1
-19z m3360 -40 c-3 -7 -5 -2 -5 12 0 14 2 19 5 13 2 -7 2 -19 0 -25z m71 13
c3 -10 0 -12 -11 -8 -14 5 -16 0 -12 -33 2 -22 6 -44 10 -50 3 -5 -1 -10 -9
-10 -13 0 -16 12 -16 61 0 51 3 60 17 57 9 -2 18 -9 21 -17z m-3416 -28 c9
-10 19 -33 23 -50 6 -29 4 -33 -14 -33 -19 0 -21 -6 -21 -60 0 -33 5 -61 10
-61 6 -1 15 -3 20 -4 6 -1 17 -3 25 -4 11 -1 15 -13 15 -42 0 -39 -1 -41 -25
-35 -18 5 -27 2 -31 -9 -4 -8 -12 -15 -19 -15 -10 0 -14 36 -15 165 0 91 3
165 8 165 5 0 16 -8 24 -17z m124 -79 c-3 -8 -12 -14 -21 -14 -23 0 -21 76 3
89 15 8 17 5 20 -26 2 -19 1 -41 -2 -49z m3224 -39 c0 -63 -3 -115 -7 -115 -5
0 -7 51 -6 112 3 132 2 118 8 118 3 0 5 -52 5 -115z m14177 99 c9 -23 -11 -38
-26 -20 -13 16 -7 36 10 36 5 0 12 -7 16 -16z m2953 7 c0 -12 -28 -22 -34 -12
-3 5 -3 11 1 15 9 9 33 7 33 -3z m-15955 -81 c11 -13 -6 -3 -37 20 -32 24 -58
47 -58 52 0 11 65 -39 95 -72z m10265 50 c0 -5 -16 -10 -35 -10 -19 0 -35 5
-35 10 0 6 16 10 35 10 19 0 35 -4 35 -10z m-14440 -49 c0 -22 -4 -43 -10 -46
-6 -4 -10 12 -10 39 0 25 5 46 10 46 6 0 10 -18 10 -39z m797 -1 c47 0 35 -12
-16 -17 -29 -3 -40 0 -45 13 -5 12 -2 15 10 10 8 -3 32 -6 51 -6z m3428 -40
c10 -11 16 -20 13 -20 -3 0 -13 9 -23 20 -10 11 -16 20 -13 20 3 0 13 -9 23
-20z m-1117 -41 c-3 -8 -7 -3 -11 10 -4 17 -3 21 5 13 5 -5 8 -16 6 -23z
m13365 24 c-7 -2 -14 -19 -14 -36 -1 -25 -3 -27 -6 -9 -6 30 3 52 19 51 10 0
10 -2 1 -6z m-12253 -50 c0 -7 -39 17 -46 28 -3 6 5 3 20 -6 14 -10 26 -19 26
-22z m11357 15 c-3 -8 -6 -5 -6 6 -1 11 2 17 5 13 3 -3 4 -12 1 -19z m-10115
-5 c-40 -2 -103 -2 -140 0 -37 2 -4 3 73 3 77 0 107 -2 67 -3z m-2354 -57 c-4
-43 -18 -29 -18 17 1 32 3 38 10 25 6 -9 9 -28 8 -42z m-3336 -20 c-3 -31 -9
-46 -18 -46 -18 0 -20 86 -1 93 20 7 22 1 19 -47z m228 -16 c0 -27 -4 -50 -10
-50 -5 0 -10 23 -10 50 0 28 5 50 10 50 6 0 10 -22 10 -50z m879 12 c19 -9 36
-22 39 -29 2 -7 -17 -1 -42 13 -65 36 -62 48 3 16z m2564 -37 l76 -50 0 -77
c0 -43 -4 -78 -8 -78 -3 0 -16 7 -28 15 -18 12 -20 22 -16 57 3 24 10 51 14
60 7 13 4 20 -10 28 -11 5 -22 10 -24 10 -10 0 -4 -56 7 -62 7 -5 4 -8 -7 -8
-13 0 -18 6 -16 23 2 12 0 28 -4 35 -5 7 -3 12 5 12 7 1 3 9 -11 20 -30 25
-41 25 -34 0 3 -11 0 -26 -6 -34 -8 -10 -9 -16 -1 -21 6 -3 8 -11 5 -16 -15
-24 -24 -3 -27 66 -2 41 0 74 3 73 3 -2 40 -25 82 -53z m-3295 -350 c0 -115
-3 -232 -8 -260 -4 -29 -7 98 -7 300 0 226 3 318 8 260 4 -49 7 -184 7 -300z
m2805 354 l47 -31 29 21 c54 39 46 42 456 -204 72 -42 154 -91 183 -109 33
-19 51 -35 47 -44 -3 -8 -5 -75 -5 -150 0 -96 -3 -132 -10 -122 -6 8 -9 46 -8
83 3 67 2 69 -26 84 -15 8 -25 17 -22 21 4 3 12 0 18 -6 22 -22 28 -12 26 45
l-3 56 -85 50 c-47 28 -122 74 -167 104 -46 29 -85 53 -87 53 -3 0 -42 21 -88
48 -46 26 -100 56 -121 67 -20 11 -37 23 -37 27 0 15 -38 8 -63 -12 -32 -25
-43 -25 -92 5 -22 14 -48 25 -58 25 -10 0 -15 5 -12 10 10 17 29 12 78 -21z
m44 -1 c-3 -8 -6 -5 -6 6 -1 11 2 17 5 13 3 -3 4 -12 1 -19z m1067 16 c23 -9
20 -23 -4 -17 -11 3 -20 9 -20 14 0 11 3 11 24 3z m1601 -92 c-2 -3 -29 9 -59
26 -31 17 -59 26 -62 21 -3 -5 -49 -8 -102 -8 -79 1 -89 3 -57 10 22 4 66 8
98 7 32 0 60 2 64 5 3 4 32 -8 64 -26 31 -17 56 -33 54 -35z m9093 -63 c-2
-83 -6 -104 -18 -107 -13 -2 -15 13 -12 100 3 115 7 137 23 121 6 -6 9 -53 7
-114z m819 99 c-3 -8 -6 -5 -6 6 -1 11 2 17 5 13 3 -3 4 -12 1 -19z m-12464
-78 c-2 -25 -5 -58 -7 -73 -2 -20 0 -25 7 -18 16 16 23 13 23 -9 0 -23 -1 -23
-25 -10 -12 6 -18 19 -16 42 1 18 3 62 4 98 2 47 5 58 10 40 4 -14 6 -45 4
-70z m42 39 c-3 -5 0 -6 8 -3 23 8 31 -15 13 -35 -20 -22 -20 -30 2 -54 16
-19 16 -20 -4 -9 -44 23 -55 62 -18 62 19 0 18 16 -1 24 -8 3 -15 13 -15 21 0
9 5 13 10 10 6 -4 8 -11 5 -16z m12422 -11 c-3 -8 -6 -5 -6 6 -1 11 2 17 5 13
3 -3 4 -12 1 -19z m3793 12 c-20 -13 -33 -13 -25 0 3 6 14 10 23 10 15 0 15
-2 2 -10z m-18506 -6 c15 -6 15 -8 -1 -20 -17 -13 -17 -15 1 -29 19 -15 19
-15 -1 -15 -16 0 -22 8 -25 35 -4 36 -1 39 26 29z m-1604 -14 c0 -4 -7 -7 -15
-6 -23 3 -26 12 -5 13 11 1 20 -2 20 -7z m380 -5 c0 -8 -4 -15 -10 -15 -5 0
-10 7 -10 15 0 8 5 15 10 15 6 0 10 -7 10 -15z m19674 0 c-22 -17 -34 -19 -34
-6 0 5 8 12 18 14 32 9 36 7 16 -8z m-16042 -35 c30 -16 43 -27 35 -32 -7 -4
-17 -1 -23 7 -9 12 -33 21 -66 24 -5 1 -8 11 -8 24 0 12 4 17 8 12 4 -6 28
-22 54 -35z m-3496 -35 c0 -47 -3 -55 -18 -55 -15 0 -18 8 -18 49 0 44 6 56
30 60 3 1 5 -24 6 -54z m3665 27 c10 -26 -11 -21 -28 7 -10 16 -9 19 4 17 9
-2 20 -12 24 -24z m-3801 -32 c0 -27 -4 -50 -10 -50 -5 0 -10 23 -10 50 0 28
5 50 10 50 6 0 10 -22 10 -50z m62 -4 c-6 -48 -12 -46 -12 5 0 22 4 38 8 35 4
-3 6 -21 4 -40z m298 -6 c0 -27 -4 -50 -10 -50 -11 0 -14 83 -3 93 12 12 13 8
13 -43z m1046 25 c-1 -29 -8 -31 -30 -9 -23 22 -20 34 8 34 19 0 24 -5 22 -25z
m4239 4 c0 -7 -8 -15 -17 -17 -18 -3 -25 18 -11 32 10 10 28 1 28 -15z m13240
-19 c-5 -8 -11 -8 -17 -2 -6 6 -7 16 -3 22 5 8 11 8 17 2 6 -6 7 -16 3 -22z
m-15311 9 c-4 -7 -1 -10 7 -7 14 5 49 -32 49 -52 0 -7 6 -5 16 4 22 23 30 20
9 -4 -17 -19 -19 -19 -47 -2 -16 9 -34 23 -40 29 -10 12 -5 43 7 43 4 0 3 -5
-1 -11z m136 -20 c0 -5 4 -8 9 -4 6 3 15 -4 21 -15 6 -11 15 -18 20 -15 4 3
15 2 24 -1 12 -5 13 -9 3 -24 -6 -11 -14 -16 -17 -12 -3 4 -21 15 -42 26 -37
19 -58 56 -32 56 8 0 14 -5 14 -11z m10957 -86 c-4 -54 -11 -113 -16 -131 -9
-30 -8 -33 7 -27 9 4 26 9 37 12 16 4 15 1 -7 -18 l-28 -24 -6 -260 c-4 -143
-10 -267 -15 -275 -5 -8 -9 106 -10 260 -2 335 -2 291 7 438 6 98 10 122 22
122 13 0 14 -15 9 -97z m1283 45 c0 -15 -4 -30 -10 -33 -6 -4 -10 12 -10 42 0
35 3 44 10 33 5 -8 10 -27 10 -42z m2830 32 c0 -5 -4 -10 -10 -10 -5 0 -10 5
-10 10 0 6 5 10 10 10 6 0 10 -4 10 -10z m-15248 -89 c-6 -61 -9 -62 -13 -3
-3 31 0 49 7 49 7 0 9 -16 6 -46z m-2122 18 c0 -15 -4 -19 -16 -15 -9 3 -19 6
-24 6 -4 0 -10 7 -14 15 -4 11 2 15 24 15 24 0 30 -4 30 -21z m2063 4 c4 -3 3
-11 -2 -17 -5 -6 -11 -29 -14 -51 -3 -33 -4 -29 -5 18 -2 52 4 67 21 50z m127
3 c0 -3 -4 -8 -10 -11 -5 -3 -10 -1 -10 4 0 6 5 11 10 11 6 0 10 -2 10 -4z
m14860 0 c0 -2 -19 -14 -42 -26 -71 -36 -88 -57 -88 -108 0 -25 -2 -43 -5 -40
-10 9 -11 82 -3 101 11 22 138 89 138 73z m-3480 -81 c0 -51 -3 -65 -15 -65
-12 0 -15 13 -15 58 0 32 3 62 7 65 17 17 23 2 23 -58z m4010 61 c0 -11 -19
-15 -25 -6 -3 5 1 10 9 10 9 0 16 -2 16 -4z m-15180 -37 c0 -5 -9 -9 -20 -9
-19 0 -27 20 -13 33 7 8 33 -11 33 -24z m15070 15 c0 -9 -5 -14 -12 -12 -18 6
-21 28 -4 28 9 0 16 -7 16 -16z m-16965 -4 c3 -5 1 -10 -4 -10 -6 0 -11 5 -11
10 0 6 2 10 4 10 3 0 8 -4 11 -10z m85 0 c0 -5 -5 -10 -11 -10 -5 0 -7 5 -4
10 3 6 8 10 11 10 2 0 4 -4 4 -10z m110 0 c0 -5 -7 -10 -15 -10 -8 0 -15 5
-15 10 0 6 7 10 15 10 8 0 15 -4 15 -10z m115 0 c3 -5 -1 -10 -9 -10 -9 0 -16
5 -16 10 0 6 4 10 9 10 6 0 13 -4 16 -10z m1418 -54 c-6 -19 -8 -18 -13 9 -8
40 0 66 12 35 5 -13 5 -32 1 -44z m67 55 c0 -5 -11 -8 -24 -7 -13 0 -22 4 -19
9 6 10 43 9 43 -2z m-2303 -23 c-3 -8 -6 -5 -6 6 -1 11 2 17 5 13 3 -3 4 -12
1 -19z m17383 13 c0 -5 -7 -11 -15 -15 -9 -3 -15 0 -15 9 0 8 7 15 15 15 8 0
15 -4 15 -9z m-15024 -22 c6 -5 19 -10 30 -12 23 -3 175 -79 170 -85 -2 -2
-33 10 -67 26 -35 17 -90 41 -121 55 -32 14 -58 28 -58 31 0 7 31 -4 46 -15z
m-3766 -34 c0 -25 -4 -45 -10 -45 -5 0 -10 20 -10 45 0 25 5 45 10 45 6 0 10
-20 10 -45z m130 0 c0 -33 -4 -45 -15 -45 -11 0 -15 12 -15 45 0 33 4 45 15
45 11 0 15 -12 15 -45z m230 -15 c0 -22 -4 -40 -10 -40 -11 0 -14 63 -3 73 11
12 13 8 13 -33z m3525 30 c3 -5 2 -10 -4 -10 -5 0 -13 5 -16 10 -3 6 -2 10 4
10 5 0 13 -4 16 -10z m-140 -49 c3 -6 30 -22 60 -37 30 -14 55 -30 55 -35 0
-4 -26 4 -57 19 -73 35 -83 41 -83 53 0 12 17 12 25 0z m12855 -61 c-8 -5 -19
-10 -25 -10 -5 0 -3 5 5 10 8 5 20 10 25 10 6 0 3 -5 -5 -10z m-16253 -97 c-2
-21 -4 -6 -4 32 0 39 2 55 4 38 2 -18 2 -50 0 -70z m3673 68 c0 -5 -9 -7 -20
-4 -11 3 -20 7 -20 9 0 2 9 4 20 4 11 0 20 -4 20 -9z m-280 -16 c5 3 11 1 14
-4 4 -5 -2 -8 -11 -7 -9 2 -18 8 -19 15 -1 6 0 7 3 1 2 -5 9 -8 13 -5z m12861
-31 c-19 -8 -36 -12 -39 -9 -6 6 37 24 58 24 8 0 0 -6 -19 -15z m-16596 -47
c0 -65 -19 -64 -23 2 -2 40 0 52 10 49 8 -3 13 -22 13 -51z m125 -8 c0 -45 -2
-50 -15 -39 -15 12 -21 71 -8 83 16 17 23 3 23 -44z m19264 27 c-10 -8 -21
-12 -24 -10 -5 6 21 24 34 24 6 0 1 -6 -10 -14z m-4782 -28 c-7 -7 -12 -8 -12
-2 0 14 12 26 19 19 2 -3 -1 -11 -7 -17z m-10856 -13 c18 -14 18 -15 -5 -11
-14 1 -27 8 -29 14 -5 16 10 15 34 -3z m110 -66 c4 -8 1 -8 -14 0 -12 6 -24
16 -28 22 -4 8 -1 8 14 0 12 -6 24 -16 28 -22z m4304 -10 c0 -3 -3 -9 -7 -12
-12 -12 -12 -57 0 -57 16 0 -14 -20 -30 -20 -9 0 -13 17 -13 50 0 47 1 50 25
48 14 -1 25 -5 25 -9z m6970 -29 c0 -5 -5 -10 -10 -10 -6 0 -15 -12 -20 -26
-6 -14 -14 -22 -20 -19 -17 10 -11 33 12 49 26 18 38 20 38 6z m-15740 -9 c0
-6 -4 -13 -10 -16 -5 -3 -10 1 -10 9 0 9 5 16 10 16 6 0 10 -4 10 -9z m17250
-1 c0 -5 -5 -10 -11 -10 -5 0 -7 5 -4 10 3 6 8 10 11 10 2 0 4 -4 4 -10z
m-16303 -67 c-2 -16 -4 -5 -4 22 0 28 2 40 4 28 2 -13 2 -35 0 -50z m4393 32
c9 -8 30 -17 46 -19 16 -2 63 -18 104 -35 l75 -32 -65 6 c-36 3 -93 7 -127 10
l-63 4 0 -61 c0 -88 -6 -68 -14 45 -7 88 -6 97 10 97 10 0 25 -7 34 -15z
m-4743 -32 c-3 -10 -5 -4 -5 12 0 17 2 24 5 18 2 -7 2 -21 0 -30z m8180 -15
c-3 -8 -6 -5 -6 6 -1 11 2 17 5 13 3 -3 4 -12 1 -19z m-22 -16 c-11 -8 -12
-34 -1 -76 5 -22 3 -26 -14 -26 -18 0 -20 6 -20 55 0 50 2 55 23 55 12 0 17
-4 12 -8z m7760 -1 c-11 -5 -45 -12 -75 -15 -30 -4 -63 -10 -72 -12 -10 -3
-18 -1 -18 4 0 9 100 28 155 30 25 1 26 -1 10 -7z m-14283 -83 c-7 -7 -12 -23
-12 -37 l0 -25 -16 22 c-12 17 -25 22 -59 22 -76 0 -86 14 -15 21 116 10 115
10 102 -3z m73 -8 c3 -5 -1 -10 -9 -10 -9 0 -16 5 -16 10 0 6 4 10 9 10 6 0
13 -4 16 -10z m87 -11 c29 -6 58 -16 63 -21 7 -7 3 -8 -10 -5 -11 3 -41 9 -68
13 -26 3 -50 10 -53 15 -7 12 4 11 68 -2z m168 -44 c31 -7 44 -14 30 -14 -14
0 -45 6 -70 13 -58 19 -32 19 40 1z m6212 2 c-18 -8 -22 -18 -22 -58 0 -28 5
-49 13 -52 6 -3 0 -6 -15 -6 -28 -1 -28 0 -28 62 l0 62 37 1 c33 1 34 -1 15
-9z m7736 -17 c-9 -6 -52 -12 -95 -15 l-78 -4 75 13 c41 7 84 14 95 14 18 1
18 0 3 -8z m-13819 -16 c2 -2 -7 -4 -22 -4 -14 0 -29 5 -32 10 -6 10 42 4 54
-6z m94 -21 c-7 -2 -19 -2 -25 0 -7 3 -2 5 12 5 14 0 19 -2 13 -5z m64 -19
c-3 -3 -12 -4 -19 -1 -8 3 -5 6 6 6 11 1 17 -2 13 -5z m3972 -8 c-2 -2 -40 -6
-84 -9 -46 -3 -69 -2 -55 3 24 8 147 14 139 6z m-1122 -22 c-3 -3 -12 -4 -19
-1 -8 3 -5 6 6 6 11 1 17 -2 13 -5z m1218 -4 c3 -5 1 -10 -4 -10 -6 0 -11 5
-11 10 0 6 2 10 4 10 3 0 8 -4 11 -10z m11207 -35 c-2 -14 -8 -25 -13 -25 -5
0 -9 11 -9 25 0 14 6 25 14 25 9 0 12 -8 8 -25z m2378 -5 c0 -5 -2 -10 -4 -10
-3 0 -8 5 -11 10 -3 6 -1 10 4 10 6 0 11 -4 11 -10z m-4127 -47 c-7 -2 -19 -2
-25 0 -7 3 -2 5 12 5 14 0 19 -2 13 -5z m1427 -27 c0 -2 -7 -7 -16 -10 -8 -3
-12 -2 -9 4 6 10 25 14 25 6z m-11870 -46 c0 -25 -4 -30 -23 -30 -31 0 -35 5
-29 35 3 18 11 25 28 25 20 0 24 -5 24 -30z m11946 5 c-11 -8 -28 -15 -39 -15
-11 0 -17 -5 -14 -12 2 -7 14 -12 26 -11 30 4 27 -25 -5 -37 -37 -15 -39 -13
-38 27 1 33 5 38 35 49 46 17 58 16 35 -1z m71 -24 c1 -21 -3 -30 -17 -34 -21
-5 -24 3 -14 41 9 32 29 27 31 -7z m1720 23 c-3 -3 -12 -4 -19 -1 -8 3 -5 6 6
6 11 1 17 -2 13 -5z m-10522 -70 c4 -37 4 -155 1 -263 -4 -108 -7 -211 -6
-229 1 -41 -8 -72 -21 -72 -5 0 -9 94 -9 228 0 125 -4 232 -8 238 -4 6 -15 13
-24 17 -22 8 -24 50 -4 66 11 9 15 6 20 -14 15 -58 32 -8 29 83 -1 6 3 12 7
12 5 0 12 -30 15 -66z m10458 59 c-7 -2 -19 -2 -25 0 -7 3 -2 5 12 5 14 0 19
-2 13 -5z m-48 -8 c-25 -10 -116 -22 -108 -15 8 9 50 16 93 18 14 0 21 -1 15
-3z m-1795 -13 c0 -5 -25 -14 -55 -21 -46 -10 -58 -18 -71 -43 -15 -28 -15
-30 0 -25 15 6 14 4 -1 -18 -26 -35 -32 -31 -27 17 5 50 8 54 70 77 54 21 84
25 84 13z m-8867 -49 c-7 -2 -19 -2 -25 0 -7 3 -2 5 12 5 14 0 19 -2 13 -5z
m7520 0 c-7 -2 -21 -2 -30 0 -10 3 -4 5 12 5 17 0 24 -2 18 -5z m1320 -20 c-7
-2 -21 -2 -30 0 -10 3 -4 5 12 5 17 0 24 -2 18 -5z m217 -22 c0 -11 -31 -24
-39 -16 -3 3 1 10 9 15 19 12 30 12 30 1z m-100 -21 c0 -5 -12 -10 -27 -9 -25
0 -26 1 -8 9 27 12 35 12 35 0z m-12320 -31 c0 -29 2 -30 38 -27 20 2 35 7 34
12 -2 5 2 13 10 17 11 7 10 11 -2 19 -11 7 0 10 38 10 l52 0 0 -35 0 -35 -105
0 -105 0 0 35 c0 28 4 35 20 35 16 0 20 -7 20 -31z m12240 17 c0 -3 -26 -10
-57 -16 -88 -18 -103 -31 -103 -90 0 -50 0 -50 33 -51 l32 -1 -40 -10 c-49
-13 -57 -24 -51 -66 3 -19 1 -30 -5 -27 -15 10 -11 85 6 91 10 4 15 21 15 53
0 82 4 87 78 104 74 17 92 19 92 13z m-11837 -286 c-12 -5 -34 -5 -50 0 -24 7
-21 8 22 9 38 0 45 -2 28 -9z m230 3 c-34 -2 -93 -2 -130 0 -37 2 -9 3 62 3
72 0 102 -1 68 -3z m11495 -8 c-2 -1 -20 -5 -40 -9 -28 -5 -38 -4 -38 6 0 10
12 12 41 10 22 -2 39 -5 37 -7z m55 8 c-7 -2 -19 -2 -25 0 -7 3 -2 5 12 5 14
0 19 -2 13 -5z m-11294 -29 c2 -2 -15 -3 -37 -1 -24 1 -42 7 -42 14 0 8 10 9
38 1 20 -5 39 -12 41 -14z m-1725 -46 c13 -49 8 -58 -30 -58 -30 0 -35 3 -29
18 4 9 8 26 10 37 3 26 2 25 24 25 11 0 21 -9 25 -22z m12896 7 c0 -8 -4 -15
-10 -15 -5 0 -10 7 -10 15 0 8 5 15 10 15 6 0 10 -7 10 -15z m-12410 -30 c0
-34 -1 -35 -39 -35 l-39 0 11 35 c9 29 15 35 39 35 25 0 28 -3 28 -35z m12493
-22 c-7 -2 -21 -2 -30 0 -10 3 -4 5 12 5 17 0 24 -2 18 -5z m-76 -50 c-3 -10
-5 -2 -5 17 0 19 2 27 5 18 2 -10 2 -26 0 -35z m-16293 22 c-4 -8 -8 -15 -10
-15 -2 0 -4 7 -4 15 0 8 4 15 10 15 5 0 7 -7 4 -15z m18336 -15 c0 -5 -7 -10
-16 -10 -8 0 -12 5 -9 10 3 6 10 10 16 10 5 0 9 -4 9 -10z m120 6 c0 -3 -4 -8
-10 -11 -5 -3 -10 -1 -10 4 0 6 5 11 10 11 6 0 10 -2 10 -4z m-13890 -56 c0
-25 -4 -30 -25 -30 -20 0 -25 5 -25 23 0 28 7 37 32 37 13 0 18 -8 18 -30z
m-1390 -86 c0 -105 0 -106 -22 -100 -13 3 -28 6 -34 6 -8 0 -11 30 -10 95 1
98 2 101 49 104 15 1 17 -10 17 -105z m4866 80 c39 -30 43 -44 14 -44 -13 0
-20 7 -20 19 0 11 -10 27 -22 35 -12 9 -19 16 -15 16 5 0 24 -12 43 -26z
m8251 4 c-3 -8 -6 -5 -6 6 -1 11 2 17 5 13 3 -3 4 -12 1 -19z m-16109 -38 c0
-22 -3 -40 -7 -40 -4 0 -8 18 -9 40 -2 22 2 40 7 40 5 0 9 -18 9 -40z m-138
-43 c0 -38 -3 -44 -30 -54 l-30 -11 0 48 c0 48 7 58 43 59 14 1 17 -7 17 -42z
m4310 -6 l0 -41 -100 0 c-60 0 -100 4 -100 10 0 6 8 10 18 10 9 0 23 9 30 20
10 17 10 20 -5 21 -28 2 46 14 105 17 l52 3 0 -40z m4245 9 c10 -11 16 -20 13
-20 -3 0 -13 9 -23 20 -10 11 -16 20 -13 20 3 0 13 -9 23 -20z m-3564 -10 c13
-10 21 -19 17 -20 -14 0 -58 23 -58 32 0 14 16 9 41 -12z m79 -6 c0 -2 -12 -4
-26 -4 -14 0 -23 4 -20 9 6 8 46 4 46 -5z m-5400 -44 c0 -27 -4 -50 -10 -50
-5 0 -10 23 -10 50 0 28 5 50 10 50 6 0 10 -22 10 -50z m5465 30 c7 -12 -2
-12 -30 0 -19 8 -19 9 2 9 12 1 25 -3 28 -9z m3770 1 c-7 -13 -62 -24 -75 -16
-20 12 1 25 41 25 22 0 38 -4 34 -9z m-5497 -58 c3 -31 1 -33 -27 -33 -27 0
-31 3 -31 28 0 35 8 44 35 40 15 -2 21 -12 23 -35z m1849 31 c-3 -3 -12 -4
-19 -1 -8 3 -5 6 6 6 11 1 17 -2 13 -5z m7523 -19 c0 -16 -6 -25 -15 -25 -15
0 -21 31 -8 43 13 14 23 6 23 -18z m1000 -71 c0 -40 -3 -55 -12 -51 -7 2 -13
9 -12 15 1 7 2 30 3 52 2 62 21 47 21 -16z m-13773 -39 c-1 -19 -7 -35 -14
-35 -6 0 -18 -3 -27 -6 -13 -5 -16 1 -16 29 0 35 9 45 42 46 13 1 16 -7 15
-34z m9233 -1 c0 -9 -7 -14 -17 -12 -25 5 -28 28 -4 28 12 0 21 -6 21 -16z
m-82 -6 c-3 -7 -15 -13 -28 -13 -13 0 -25 6 -27 13 -3 8 6 12 27 12 21 0 30
-4 28 -12z m4432 -16 c0 -5 -16 -16 -35 -25 -19 -9 -35 -22 -35 -27 0 -6 -4
-8 -10 -5 -18 11 -10 24 28 44 41 22 52 25 52 13z m2570 -7 c-7 -8 -20 -15
-29 -15 -11 1 -8 5 9 15 32 18 35 18 20 0z m2490 -20 c0 -8 -4 -15 -10 -15 -5
0 -10 7 -10 15 0 8 5 15 10 15 6 0 10 -7 10 -15z m-14050 -25 c0 -5 -6 -10
-14 -10 -8 0 -17 -8 -20 -17 -4 -10 -4 -14 0 -11 6 7 34 -15 34 -26 0 -3 -38
-6 -85 -6 -86 0 -104 7 -62 25 12 6 23 20 25 33 3 20 9 22 63 22 33 0 59 -4
59 -10z m8488 -12 c-2 -17 -11 -24 -31 -26 l-28 -3 22 25 c28 32 41 33 37 4z
m1650 15 c-10 -2 -26 -2 -35 0 -10 3 -2 5 17 5 19 0 27 -2 18 -5z m4702 -17
c0 -16 -18 -31 -27 -22 -8 8 5 36 17 36 5 0 10 -6 10 -14z m-180 -10 c0 -17
-14 -29 -23 -20 -8 8 3 34 14 34 5 0 9 -6 9 -14z m-6472 -2 c38 -11 24 -24
-24 -24 -30 0 -56 -7 -75 -21 -22 -16 -29 -17 -29 -6 0 25 34 44 100 56 3 0
15 -2 28 -5z m229 -10 c-3 -3 -12 -4 -19 -1 -8 3 -5 6 6 6 11 1 17 -2 13 -5z
m-412 -49 c6 -2 -54 -4 -131 -4 -100 -1 -144 -5 -152 -13 -5 -7 -12 -80 -14
-161 -3 -92 -9 -152 -17 -160 -8 -8 -11 9 -11 68 -1 44 -3 112 -5 150 -5 95 1
113 39 123 28 8 267 5 291 -3z m-437 -85 c-2 -21 -7 -29 -16 -25 -7 3 -18 5
-23 5 -10 0 -12 33 -2 43 3 4 15 7 25 7 14 0 18 -7 16 -30z m6109 8 c-3 -8 -6
-5 -6 6 -1 11 2 17 5 13 3 -3 4 -12 1 -19z m-5807 -4 c0 -8 -5 -12 -10 -9 -6
4 -8 11 -5 16 9 14 15 11 15 -7z m157 10 c-3 -3 -12 -4 -19 -1 -8 3 -5 6 6 6
11 1 17 -2 13 -5z m63 -14 c0 -11 -4 -20 -10 -20 -5 0 -10 9 -10 20 0 11 5 20
10 20 6 0 10 -9 10 -20z m5710 6 c0 -15 -18 -31 -26 -23 -7 7 7 37 17 37 5 0
9 -6 9 -14z m154 -11 c-4 -8 -10 -13 -15 -10 -4 3 -6 12 -3 20 4 8 10 13 15
10 4 -3 6 -12 3 -20z m-14372 -35 c4 -40 3 -40 -31 -40 -27 0 -32 3 -23 12 20
20 14 48 -10 49 -19 1 -17 3 7 9 50 13 53 11 57 -30z m5298 0 c0 -5 -2 -10 -4
-10 -3 0 -8 5 -11 10 -3 6 -1 10 4 10 6 0 11 -4 11 -10z m3937 -13 c-12 -13
-26 -21 -31 -19 -5 3 1 13 13 24 33 26 45 22 18 -5z m-3939 -22 c-3 -11 -175
-14 -273 -5 -48 4 -34 6 70 10 181 7 205 6 203 -5z m-505 -2 c-7 -2 -19 -2
-25 0 -7 3 -2 5 12 5 14 0 19 -2 13 -5z m107 -3 c0 -5 -9 -10 -20 -10 -11 0
-20 5 -20 10 0 6 9 10 20 10 11 0 20 -4 20 -10z m4062 -12 c-8 -8 -12 -50 -12
-125 0 -86 -3 -111 -12 -108 -17 7 -12 226 5 237 19 12 32 9 19 -4z m-3349
-17 c5 -5 6 -14 2 -21 -5 -8 -11 -5 -21 9 -8 11 -24 22 -37 24 -12 2 -7 3 12
1 19 -2 39 -8 44 -13z m-6666 -21 c-16 -5 -35 -17 -42 -27 -12 -16 -10 -19 18
-24 22 -4 10 -7 -38 -8 l-70 -1 -2 35 -2 35 82 -1 c62 -1 75 -3 54 -9z m6743
-30 c0 -29 -4 -40 -15 -40 -16 0 -20 35 -9 64 11 29 24 16 24 -24z m-7000 -5
c0 -19 -4 -35 -10 -35 -5 0 -10 11 -10 24 0 14 -4 28 -10 31 -6 3 -10 -5 -10
-19 0 -14 -4 -28 -10 -31 -6 -4 -10 8 -10 29 0 33 2 36 30 36 28 0 30 -3 30
-35z m668 -18 c3 -34 1 -37 -22 -37 -23 0 -26 4 -26 33 0 38 7 49 30 45 9 -2
16 -16 18 -41z m5982 -23 c0 -8 -4 -14 -8 -14 -4 0 -8 9 -8 19 0 11 4 17 8 15
4 -3 8 -12 8 -20z m3410 -14 c-8 -5 -17 -7 -19 -4 -3 3 1 9 9 14 8 5 17 7 19
4 3 -3 -1 -9 -9 -14z m-2485 -93 c-1 -42 1 -77 3 -77 2 0 11 4 21 9 13 8 17 5
19 -14 1 -12 -5 -28 -13 -35 -11 -9 -16 -7 -24 9 -7 12 -17 18 -26 15 -12 -5
-14 9 -13 85 1 78 4 91 17 89 13 -3 16 -18 16 -81z m-7115 33 c0 -36 -2 -40
-25 -40 -22 0 -25 4 -25 40 0 36 3 40 25 40 23 0 25 -4 25 -40z m6663 19 c4
-15 1 -19 -11 -17 -21 4 -29 38 -9 38 8 0 17 -9 20 -21z m2249 4 c-23 -4 -31
-16 -36 -47 -5 -35 -16 -26 -16 12 l0 42 38 -1 c24 -1 29 -3 14 -6z m-2247
-53 c3 -5 1 -10 -4 -10 -6 0 -11 5 -11 10 0 6 2 10 4 10 3 0 8 -4 11 -10z m18
-59 c6 -25 -7 -29 -67 -22 -50 6 -71 26 -41 38 11 4 21 0 27 -10 13 -23 45
-21 53 3 7 23 20 19 28 -9z m2197 9 c0 -11 -2 -20 -4 -20 -2 0 -6 9 -9 20 -3
11 -1 20 4 20 5 0 9 -9 9 -20z m920 -24 c0 -6 -3 -22 -7 -34 -7 -30 -23 -10
-23 30 0 20 4 26 15 22 8 -4 15 -11 15 -18z m-3280 5 c0 -11 -39 -25 -47 -18
-3 3 -2 10 2 16 8 13 45 15 45 2z m208 -33 c7 -7 12 -27 12 -45 0 -29 -3 -33
-26 -33 -22 0 -25 3 -20 23 3 12 6 32 6 45 0 24 10 28 28 10z m2142 5 c0 -5
-4 -15 -10 -23 -8 -12 -10 -12 -15 2 -4 9 -13 14 -21 11 -8 -3 -14 0 -14 6 0
6 14 11 30 11 17 0 30 -3 30 -7z m-3040 -13 c0 -5 -18 -10 -40 -10 -22 0 -40
5 -40 10 0 6 18 10 40 10 22 0 40 -4 40 -10z m2890 -6 c0 -8 -5 -12 -10 -9 -6
4 -8 11 -5 16 9 14 15 11 15 -7z m-14020 -31 c0 -22 -2 -25 -10 -13 -6 10 -10
11 -10 3 0 -7 -4 -13 -10 -13 -5 0 -10 9 -10 21 0 15 5 19 15 15 8 -3 15 -1
15 4 0 6 2 10 5 10 3 0 5 -12 5 -27z m12240 19 c0 -12 -38 -42 -53 -42 -25 0
-26 12 -4 31 22 19 57 25 57 11z m1360 -22 c0 -13 -7 -20 -20 -20 -19 0 -27
20 -13 33 13 14 33 6 33 -13z m391 -10 c24 -13 25 -30 2 -30 -19 1 -53 22 -53
34 0 9 29 7 51 -4z m-1715 -37 c-15 -67 -19 -136 -8 -129 7 4 12 1 12 -7 0
-10 -7 -13 -20 -10 -18 5 -20 14 -20 83 0 75 4 87 34 89 4 1 6 -11 2 -26z
m244 3 c0 -21 -23 -36 -40 -26 -8 6 -50 10 -92 10 -107 0 -99 18 10 23 48 1
95 4 105 5 9 1 17 -4 17 -12z m-6180 -56 l0 -40 -62 1 c-35 0 -57 3 -50 6 6 2
12 20 12 39 l0 34 50 0 50 0 0 -40z m7655 19 c5 -5 1 -9 -12 -9 -11 0 -27 7
-34 16 -12 15 -11 16 11 9 14 -4 29 -11 35 -16z m-9095 -65 l0 -55 -47 3 c-57
4 -62 18 -13 34 22 7 36 19 38 31 2 16 -6 22 -40 30 l-43 11 53 1 52 1 0 -56z
m228 4 c3 -47 3 -48 -27 -48 -30 0 -31 1 -31 51 0 49 1 50 28 47 25 -3 27 -7
30 -50z m7192 3 c-10 -20 -30 -29 -30 -13 0 4 8 18 17 32 19 27 30 12 13 -19z
m1604 2 c15 -93 16 -91 -79 -95 -78 -3 -90 0 -82 19 1 3 33 5 71 4 l69 -2 -6
55 c-4 42 -2 56 7 56 8 0 16 -17 20 -37z m-269 -32 c-38 -6 -40 -8 -45 -46
l-6 -40 -5 40 c-4 22 -4 43 -2 48 2 4 25 6 51 6 l47 -2 -40 -6z m-955 -11 c0
-12 -49 -45 -56 -37 -3 3 -1 15 6 26 11 21 50 30 50 11z m-1643 -12 c-21 -7
-32 -7 -40 1 -8 8 0 11 29 10 39 -1 39 -1 11 -11z m-9007 -48 c0 -5 -4 -10
-10 -10 -5 0 -10 5 -10 10 0 6 5 10 10 10 6 0 10 -4 10 -10z m10398 -50 c6 0
12 -7 12 -15 0 -12 -8 -14 -40 -9 -27 5 -45 2 -57 -7 -15 -13 -15 -12 -5 8 14
25 30 33 57 28 11 -3 26 -5 33 -5z m1397 -10 c-41 -6 -65 -3 -65 9 0 3 24 4
52 2 l53 -5 -40 -6z m1115 10 c0 -5 -7 -10 -15 -10 -8 0 -15 5 -15 10 0 6 7
10 15 10 8 0 15 -4 15 -10z m-11800 -46 c0 -2 -9 -4 -20 -4 -11 0 -20 4 -20 9
0 5 9 7 20 4 11 -3 20 -7 20 -9z m9424 -75 c-9 -22 -21 -39 -26 -39 -10 0 -1
42 20 90 14 33 16 33 20 11 2 -13 -4 -41 -14 -62z m-824 -4 c-24 -25 -46 -42
-49 -40 -3 3 15 25 39 50 24 25 46 42 49 40 3 -3 -15 -25 -39 -50z m545 -44
c-19 -39 -40 -71 -46 -71 -14 0 -7 19 38 100 48 85 54 62 8 -29z m515 50 c9
-1 10 -4 5 -10 -11 -10 -65 -3 -65 9 0 4 10 6 23 5 12 -1 29 -3 37 -4z m-569
-28 c-12 -20 -14 -14 -5 12 4 9 9 14 11 11 3 -2 0 -13 -6 -23z m-7091 10 c0
-5 -63 -9 -140 -9 -77 -1 -140 2 -140 7 0 5 63 9 140 9 77 0 140 -3 140 -7z
m8788 -5 c-6 -18 -28 -21 -28 -4 0 9 7 16 16 16 9 0 14 -5 12 -12z m6832 -22
c0 -8 -4 -18 -10 -21 -5 -3 -10 3 -10 14 0 12 5 21 10 21 6 0 10 -6 10 -14z
m-6792 -15 c3 -8 -1 -12 -9 -9 -7 2 -15 10 -17 17 -3 8 1 12 9 9 7 -2 15 -10
17 -17z m702 -17 c55 -27 118 -74 102 -74 -13 0 -192 99 -192 107 0 7 41 -8
90 -33z m-4018 -3 c-33 -28 -37 -29 -115 -24 -45 3 -84 7 -86 9 -2 2 35 4 83
4 79 0 88 2 93 20 4 14 14 20 32 20 l26 -1 -33 -28z m3697 -15 c29 -30 55 -46
75 -49 31 -4 31 -4 -4 -5 -29 -2 -45 7 -90 48 -32 28 -48 49 -40 50 9 0 35
-20 59 -44z m569 25 c3 -8 -1 -12 -9 -9 -7 2 -15 10 -17 17 -3 8 1 12 9 9 7
-2 15 -10 17 -17z m-2288 2 c0 -5 -9 -21 -20 -38 -15 -22 -20 -25 -20 -12 0
23 18 57 30 57 6 0 10 -3 10 -7z m-1657 -70 c-7 -2 -19 -2 -25 0 -7 3 -2 5 12
5 14 0 19 -2 13 -5z m1127 -21 c0 -5 -14 -29 -31 -53 -17 -24 -40 -59 -51 -76
-19 -32 -38 -43 -38 -23 0 6 4 10 9 10 5 0 28 34 52 75 38 67 59 91 59 67z
m-6062 -14 c-6 -18 -25 -20 -31 -3 -5 10 0 15 14 15 12 0 19 -5 17 -12z m8122
-54 c20 -37 8 -36 -17 2 -11 18 -15 30 -9 28 7 -3 19 -16 26 -30z m-3000 -24
c-25 -22 -52 -40 -60 -39 -11 0 -11 3 4 12 10 7 35 24 55 39 52 39 53 33 1
-12z m2146 -20 c63 0 114 -3 114 -7 0 -5 -59 -10 -130 -11 -117 -4 -130 -2
-130 13 0 12 5 15 16 11 9 -3 67 -6 130 -6z m-7162 -8 c7 -12 -229 -20 -764
-28 -253 -4 -453 -11 -464 -16 -13 -7 -21 -6 -27 3 -4 7 -7 15 -5 16 1 2 185
6 407 9 222 4 476 10 564 14 239 11 283 11 289 2z m6771 -42 c15 -6 11 -8 -17
-7 -21 1 -38 5 -38 10 0 9 29 8 55 -3z m455 -10 c0 -5 -11 -10 -25 -10 -14 0
-25 5 -25 10 0 6 11 10 25 10 14 0 25 -4 25 -10z m6494 -9 c3 -4 -2 -32 -11
-62 l-16 -54 -12 30 c-7 17 -16 44 -19 61 -7 29 -5 31 23 32 17 0 33 -3 35 -7z
m-6859 -11 c-27 -12 -43 -12 -25 0 8 5 22 9 30 9 10 0 8 -3 -5 -9z m-195 -15
c0 -16 -55 -22 -64 -6 -8 13 5 21 36 21 18 0 28 -5 28 -15z m-350 -15 c-8 -5
-19 -10 -25 -10 -5 0 -3 5 5 10 8 5 20 10 25 10 6 0 3 -5 -5 -10z m9120 -33
c0 -13 -6 -32 -14 -42 -15 -20 -13 -23 -32 48 -4 13 1 17 20 17 20 0 26 -5 26
-23z m-9153 -79 c-3 -8 -6 -5 -6 6 -1 11 2 17 5 13 3 -3 4 -12 1 -19z m469
-29 c5 -8 -66 -20 -78 -13 -4 3 -6 10 -2 15 6 10 73 9 80 -2z m1524 -161 c0
-12 -6 -9 -26 13 -19 22 -19 22 4 8 12 -8 22 -17 22 -21z m-1540 2 c0 -5 -7
-10 -16 -10 -8 0 -12 5 -9 10 3 6 10 10 16 10 5 0 9 -4 9 -10z m1074 -16 c3
-8 2 -12 -4 -9 -6 3 -10 10 -10 16 0 14 7 11 14 -7z m-7479 -44 c3 -5 -1 -10
-10 -10 -9 0 -13 5 -10 10 3 6 8 10 10 10 2 0 7 -4 10 -10z m-60 -19 c-14 -12
-145 -54 -151 -48 -3 3 28 16 68 30 81 28 97 32 83 18z m-1515 -56 c0 -9 -6
-12 -15 -9 -8 4 -15 10 -15 15 0 5 7 9 15 9 8 0 15 -7 15 -15z m6929 1 c-10
-9 -79 -14 -74 -5 4 5 22 9 42 9 20 0 34 -2 32 -4z m8696 -48 c47 -1 62 -3 38
-5 -24 -2 -43 -8 -43 -14 0 -5 19 -22 42 -39 22 -16 37 -30 31 -30 -5 0 -30
16 -56 36 -51 40 -101 55 -136 42 -21 -7 -22 -7 -11 8 8 9 22 13 34 10 12 -3
57 -7 101 -8z m-9730 -17 c-3 -6 -11 -11 -17 -11 -6 0 -6 6 2 15 14 17 26 13
15 -4z m1185 -66 c0 -11 -11 -15 -42 -15 -47 0 -42 16 7 23 17 2 31 5 33 6 1
0 2 -6 2 -14z m-5390 -20 c-14 -8 -29 -14 -35 -14 -5 0 1 6 15 14 14 8 30 14
35 14 6 0 -1 -6 -15 -14z m5243 -2 c-7 -2 -19 -2 -25 0 -7 3 -2 5 12 5 14 0
19 -2 13 -5z m8907 -13 c0 -5 -2 -10 -4 -10 -3 0 -8 5 -11 10 -3 6 -1 10 4 10
6 0 11 -4 11 -10z m10 -60 c0 -5 -8 -10 -17 -10 -15 0 -16 2 -3 10 19 12 20
12 20 0z m-13964 -9 c-10 -16 -206 -107 -206 -95 0 4 192 99 208 103 2 1 1 -3
-2 -8z m13879 -1 c-3 -5 -12 -10 -18 -10 -7 0 -6 4 3 10 19 12 23 12 15 0z
m-8889 -122 c-8 -13 -31 -63 -51 -111 -21 -48 -39 -86 -41 -84 -4 3 59 165 77
200 6 9 14 17 20 17 5 0 3 -10 -5 -22z m1227 -85 c-35 -2 -91 -2 -125 0 -35 2
-7 3 62 3 69 0 97 -1 63 -3z m-8138 -15 c14 -6 25 -15 25 -20 0 -5 -11 -1 -25
8 -13 8 -30 12 -36 8 -8 -4 -9 -3 -5 4 9 15 9 15 41 0z m2524 -51 c-2 -1 -13
-9 -24 -17 -19 -14 -19 -14 -6 3 7 9 18 17 24 17 6 0 8 -1 6 -3z m4390 -101
c-18 -41 -35 -74 -37 -72 -2 2 11 38 28 81 18 42 34 74 37 72 2 -3 -10 -39
-28 -81z m-4079 9 c-7 -8 -18 -15 -24 -15 -6 0 -2 7 8 15 25 19 32 19 16 0z
m-270 -165 c-32 -24 -100 -63 -100 -56 0 5 112 76 120 76 3 0 -6 -9 -20 -20z
m-150 -95 c-7 -8 -17 -15 -23 -15 -6 0 -2 7 9 15 25 19 30 19 14 0z m-220
-136 c-25 -17 -76 -42 -68 -34 13 14 62 44 73 44 6 0 3 -4 -5 -10z m-115 -69
c-3 -5 -16 -15 -28 -21 -21 -10 -21 -9 2 10 25 23 36 27 26 11z m-65 -50 c0
-5 -4 -10 -9 -10 -6 0 -13 5 -16 10 -3 6 1 10 9 10 9 0 16 -4 16 -10z m6854
-66 c25 -9 19 -24 -9 -24 -24 0 -32 10 -18 23 8 8 8 8 27 1z m-1014 -86 c0 -4
-76 -8 -170 -8 -93 0 -170 3 -170 8 0 4 77 7 170 8 94 0 170 -3 170 -8z m805
-138 c-3 -5 -37 -10 -76 -10 -39 0 -69 4 -69 10 0 6 32 10 76 10 47 0 73 -4
69 -10z"/>
<path d="M1660 7826 c0 -2 7 -6 15 -10 8 -3 15 -1 15 4 0 6 -7 10 -15 10 -8 0
-15 -2 -15 -4z"/>
<path d="M1550 6720 c0 -11 4 -20 9 -20 11 0 22 26 14 34 -12 12 -23 5 -23
-14z"/>
<path d="M6780 4780 c0 -5 5 -10 10 -10 6 0 10 5 10 10 0 6 -4 10 -10 10 -5 0
-10 -4 -10 -10z"/>
<path d="M21471 11616 c-1 -24 1 -27 14 -16 16 14 21 25 6 15 -5 -3 -12 3 -14
12 -3 11 -5 6 -6 -11z"/>
<path d="M22357 11344 c-3 -10 -8 -36 -12 -56 -3 -21 -10 -38 -15 -38 -6 0
-10 -10 -11 -22 0 -20 -2 -19 -16 10 -9 17 -19 32 -23 32 -3 0 -14 -17 -24
-37 -17 -34 -19 -36 -27 -18 -6 17 -8 15 -9 -10 0 -26 -39 -85 -55 -85 -3 0
-5 12 -5 28 -1 26 -1 26 -13 7 -7 -11 -21 -31 -32 -43 -16 -18 -34 -94 -18
-78 3 2 13 -4 24 -15 10 -10 28 -19 38 -19 11 0 23 -5 26 -10 4 -6 9 -8 13 -6
4 2 6 -121 5 -274 l-1 -278 23 -10 c12 -6 43 -14 69 -17 39 -6 46 -5 46 9 0 9
13 25 30 34 l30 17 0 425 c0 399 -2 426 -19 449 -17 23 -19 23 -24 5z m-197
-324 c0 -5 -5 -10 -11 -10 -5 0 -7 5 -4 10 3 6 8 10 11 10 2 0 4 -4 4 -10z"/>
<path d="M21634 11188 c-3 -5 -10 -6 -15 -3 -5 3 -6 0 -4 -7 3 -8 -11 -26 -35
-43 -22 -17 -40 -34 -40 -38 0 -5 -5 -5 -12 -1 -7 4 -8 3 -4 -4 6 -11 -30 -33
-57 -36 -4 -1 -11 -6 -15 -12 -4 -6 -15 -10 -25 -8 -9 1 -15 -2 -11 -7 3 -5 0
-9 -6 -9 -6 0 -9 -4 -5 -9 3 -6 -3 -14 -12 -20 -10 -6 -14 -11 -10 -11 5 0 29
14 53 31 25 17 51 28 59 25 8 -3 21 4 28 14 8 11 31 33 53 49 21 15 57 45 79
64 l40 36 -28 -2 c-16 -1 -31 -5 -33 -9z"/>
<path d="M16900 11066 c0 -2 8 -10 18 -17 15 -13 16 -12 3 4 -13 16 -21 21
-21 13z"/>
<path d="M21319 10933 c-13 -16 -12 -17 4 -4 9 7 17 15 17 17 0 8 -8 3 -21
-13z"/>
<path d="M2072 10893 c2 -11 31 -24 88 -39 98 -27 123 -29 118 -11 -3 6 -51
24 -107 39 -87 23 -102 24 -99 11z"/>
<path d="M21190 10853 c-14 -9 -31 -23 -38 -30 -8 -7 -33 -27 -58 -44 -24 -16
-44 -32 -44 -35 0 -6 98 63 145 101 34 29 31 33 -5 8z"/>
<path d="M21145 10774 c-28 -14 -57 -35 -66 -46 -9 -12 -20 -18 -25 -15 -5 3
-21 -4 -34 -15 -14 -11 -20 -17 -13 -14 6 4 16 -2 22 -11 7 -13 10 -14 11 -4
0 8 3 12 6 8 4 -3 38 19 78 51 39 31 73 58 75 59 2 2 2 5 0 7 -2 3 -27 -7 -54
-20z m-5 -18 c0 -2 -8 -10 -17 -17 -16 -13 -17 -12 -4 4 13 16 21 21 21 13z
m-50 -39 c0 -2 -10 -12 -22 -23 l-23 -19 19 23 c18 21 26 27 26 19z"/>
<path d="M2067 10773 c-4 -3 -7 -17 -7 -29 0 -17 7 -25 23 -28 47 -8 153 -29
175 -34 15 -3 22 0 22 12 0 18 -41 37 -125 56 -33 7 -65 17 -71 22 -6 4 -14 5
-17 1z"/>
<path d="M21004 10718 l-19 -23 25 20 c14 11 27 21 29 22 2 2 0 3 -6 3 -5 0
-18 -10 -29 -22z"/>
<path d="M20954 10685 c-12 -8 -24 -11 -28 -8 -3 3 -6 1 -6 -6 0 -7 -4 -10 -8
-7 -5 3 -9 -1 -9 -8 0 -10 12 -6 39 11 21 14 38 27 38 29 0 7 -5 5 -26 -11z"/>
<path d="M21126 10691 c-3 -4 -6 -23 -7 -42 -2 -19 -5 -38 -8 -44 -8 -16 -9
-73 0 -87 6 -10 9 -9 13 2 5 14 13 180 9 180 -1 0 -4 -4 -7 -9z"/>
<path d="M20992 10657 c-8 -10 -6 -13 7 -13 10 0 18 6 18 13 0 7 -4 13 -7 13
-4 0 -12 -6 -18 -13z"/>
<path d="M2050 10645 c0 -8 16 -18 38 -24 20 -5 65 -17 99 -26 34 -8 69 -18
78 -21 10 -4 15 0 15 14 0 17 -16 23 -105 46 -122 30 -125 31 -125 11z"/>
<path d="M20875 10629 c-4 -6 -14 -8 -23 -4 -9 3 -13 3 -9 -1 4 -4 1 -14 -6
-23 -6 -8 3 -5 21 8 17 12 32 24 32 27 0 8 -9 4 -15 -7z"/>
<path d="M20915 10630 c-3 -6 1 -7 9 -4 18 7 21 14 7 14 -6 0 -13 -4 -16 -10z"/>
<path d="M21007 10553 c-3 -4 -2 -32 0 -61 4 -32 9 -49 14 -41 7 12 4 97 -4
106 -3 2 -7 1 -10 -4z"/>
<path d="M2060 10525 c0 -8 12 -17 28 -21 15 -3 62 -15 106 -26 71 -17 99 -18
83 -2 -10 11 -172 64 -194 64 -14 0 -23 -6 -23 -15z"/>
<path d="M19225 10520 c4 -6 11 -8 16 -4 6 3 20 -2 31 -13 21 -18 21 -18 7 5
-8 12 -24 22 -37 22 -13 0 -20 -4 -17 -10z"/>
<path d="M20835 10471 c-3 -5 -2 -12 3 -15 5 -3 9 1 9 9 0 17 -3 19 -12 6z"/>
<path d="M20781 10430 c-13 -11 -18 -20 -13 -20 6 0 14 5 17 11 4 6 17 14 29
19 12 5 15 9 6 9 -8 0 -26 -9 -39 -19z"/>
<path d="M2056 10421 c-12 -19 20 -35 105 -52 94 -20 136 -20 88 -1 -61 24
-189 60 -193 53z"/>
<path d="M20806 10415 c-18 -14 -18 -14 1 -12 11 0 20 7 20 14 0 7 -1 13 -1
13 -1 0 -9 -7 -20 -15z"/>
<path d="M2047 10291 c6 -22 41 -36 156 -61 52 -12 80 -9 64 6 -3 4 -48 19
-99 34 -51 16 -101 31 -110 35 -13 5 -15 2 -11 -14z"/>
<path d="M19552 10240 c-4 -3 -16 -16 -27 -30 l-20 -25 26 23 c21 18 38 22
100 23 41 1 108 5 149 9 61 6 47 7 -73 6 -82 0 -151 -3 -155 -6z"/>
<path d="M16637 10234 c-13 -14 5 -24 43 -24 24 0 40 5 44 15 4 12 -4 15 -38
15 -23 0 -46 -3 -49 -6z"/>
<path d="M20665 10199 c3 -8 -4 -18 -17 -24 -15 -6 -26 -24 -32 -48 -8 -31 -6
-42 10 -65 13 -17 21 -46 23 -79 1 -29 4 -60 6 -70 1 -11 -1 -39 -5 -63 -10
-52 -7 -59 17 -38 10 8 26 18 37 22 15 5 17 13 12 46 -3 22 -2 41 4 45 13 8
13 45 0 45 -13 0 -24 70 -13 81 6 6 20 11 32 12 17 1 21 8 21 32 -1 27 -2 28
-14 13 -15 -20 -31 -24 -20 -5 4 7 3 9 -2 4 -5 -5 -9 -14 -9 -20 0 -7 -10 -13
-23 -15 -18 -3 -21 -8 -16 -30 l6 -27 -14 25 c-8 14 -10 27 -6 28 4 2 8 8 8
14 0 5 8 17 19 26 14 13 16 23 11 42 -7 21 -8 22 -10 5 -1 -11 -2 -23 -1 -27
0 -5 -7 -8 -18 -8 -10 0 -26 -10 -34 -22 l-16 -23 0 22 c-1 11 12 32 27 45 39
33 44 44 27 58 -13 11 -14 10 -10 -1z m39 -260 c-21 -23 -39 -11 -29 20 5 18
10 19 27 10 19 -10 19 -11 2 -30z"/>
<path d="M20491 10144 c0 -11 3 -14 6 -6 3 7 2 16 -1 19 -3 4 -6 -2 -5 -13z"/>
<path d="M16803 10133 c9 -2 23 -2 30 0 6 3 -1 5 -18 5 -16 0 -22 -2 -12 -5z"/>
<path d="M20132 10080 c1 -35 6 -36 47 -12 31 17 39 31 21 34 -29 4 -35 1 -42
-22 -7 -24 -8 -24 -4 3 2 17 -1 27 -10 27 -8 0 -12 -12 -12 -30z"/>
<path d="M20485 10090 c3 -5 8 -10 11 -10 2 0 4 5 4 10 0 6 -5 10 -11 10 -5 0
-7 -4 -4 -10z"/>
<path d="M16720 10080 c0 -4 -21 -11 -47 -16 -35 -7 2 -8 137 -7 230 3 220 2
190 15 -27 11 -280 18 -280 8z"/>
<path d="M20100 10068 c0 -4 4 -8 9 -8 6 0 12 4 15 8 3 5 -1 9 -9 9 -8 0 -15
-4 -15 -9z"/>
<path d="M20258 10073 c7 -3 16 -2 19 1 4 3 -2 6 -13 5 -11 0 -14 -3 -6 -6z"/>
<path d="M16380 10050 c6 -11 13 -20 15 -20 2 0 3 9 2 20 -1 11 -7 20 -14 20
-11 0 -11 -5 -3 -20z"/>
<path d="M20316 10059 c4 -6 0 -15 -7 -20 -8 -5 -9 -9 -3 -9 6 0 17 6 23 14 9
11 8 15 -4 20 -10 4 -14 2 -9 -5z"/>
<path d="M20270 10050 c-8 -5 -10 -10 -5 -10 6 0 17 5 25 10 8 5 11 10 5 10
-5 0 -17 -5 -25 -10z"/>
<path d="M16438 10043 c6 -2 18 -2 25 0 6 3 1 5 -13 5 -14 0 -19 -2 -12 -5z"/>
<path d="M20065 9928 c-7 -21 -11 -148 -4 -148 8 0 34 31 48 57 8 16 7 29 -4
56 -17 40 -33 55 -40 35z"/>
<path d="M16424 9615 c0 -170 2 -242 3 -158 2 83 2 223 0 310 -1 87 -3 19 -3
-152z"/>
<path d="M17224 9805 c0 -66 1 -92 3 -57 2 34 2 88 0 120 -2 31 -3 3 -3 -63z"/>
<path d="M2525 9840 c-7 -12 283 -12 330 0 18 4 -44 8 -147 9 -108 1 -179 -3
-183 -9z"/>
<path d="M2060 9816 c0 -2 9 -6 20 -9 11 -3 20 -1 20 4 0 5 -9 9 -20 9 -11 0
-20 -2 -20 -4z"/>
<path d="M16672 9799 c3 -10 28 -15 94 -17 114 -4 103 14 -15 24 -70 6 -83 5
-79 -7z"/>
<path d="M2110 9793 c0 -9 72 -75 76 -70 10 10 -11 38 -42 56 -19 11 -34 18
-34 14z"/>
<path d="M2086 9773 c-6 -14 -5 -15 5 -6 7 7 10 15 7 18 -3 3 -9 -2 -12 -12z"/>
<path d="M16275 9355 c0 -198 1 -280 2 -183 2 97 2 259 0 360 -1 101 -2 21 -2
-177z"/>
<path d="M7363 9579 c-12 -30 -12 -31 7 -14 10 9 16 23 13 31 -7 19 -7 19 -20
-17z"/>
<path d="M20701 9584 c0 -11 3 -14 6 -6 3 7 2 16 -1 19 -3 4 -6 -2 -5 -13z"/>
<path d="M17214 9508 c2 -35 -1 -66 -7 -69 -6 -4 -5 -21 4 -45 l13 -39 6 30
c8 40 0 185 -10 185 -5 0 -7 -28 -6 -62z"/>
<path d="M16371 9504 c0 -11 3 -14 6 -6 3 7 2 16 -1 19 -3 4 -6 -2 -5 -13z"/>
<path d="M16732 9435 l-12 -25 53 1 c28 1 54 5 57 9 3 4 32 4 65 1 33 -3 76
-3 95 0 33 6 32 6 -13 8 -34 1 -46 4 -41 13 5 8 -5 9 -36 5 -29 -4 -39 -2 -29
4 9 6 -10 9 -57 9 -66 0 -72 -2 -82 -25z"/>
<path d="M16696 9348 c-3 -13 -6 -56 -6 -96 l0 -72 28 6 c15 4 68 8 117 10 50
2 111 9 137 15 53 12 63 32 52 104 -7 51 -6 51 -195 54 -124 2 -126 2 -133
-21z"/>
<path d="M17620 9347 c0 -22 9 -33 45 -55 37 -23 44 -32 45 -59 0 -49 15 -47
16 2 1 41 0 44 -37 58 -28 11 -44 26 -54 49 l-14 33 -1 -28z"/>
<path d="M17290 9340 c-38 -4 -53 -8 -35 -10 47 -5 89 0 99 10 6 6 8 9 6 8 -3
-1 -34 -4 -70 -8z"/>
<path d="M19702 9290 c0 -14 2 -19 5 -12 2 6 2 18 0 25 -3 6 -5 1 -5 -13z"/>
<path d="M17092 9240 c0 -14 2 -19 5 -12 2 6 2 18 0 25 -3 6 -5 1 -5 -13z"/>
<path d="M17134 9245 c-3 -8 -4 -20 -2 -27 3 -7 7 -1 10 15 6 29 1 36 -8 12z"/>
<path d="M19701 9214 c0 -11 3 -14 6 -6 3 7 2 16 -1 19 -3 4 -6 -2 -5 -13z"/>
<path d="M18685 9190 c-3 -6 1 -7 9 -4 18 7 21 14 7 14 -6 0 -13 -4 -16 -10z"/>
<path d="M3233 9128 c-23 -24 -23 -27 -23 -326 l0 -302 28 0 27 0 -3 212 c-1
117 -3 264 -5 326 l-2 114 -22 -24z"/>
<path d="M16785 9114 c-11 -3 -24 -10 -29 -15 -13 -12 -83 -11 -107 1 -29 16
-24 -6 9 -36 29 -28 46 -28 152 -5 25 6 96 10 158 11 61 0 112 4 112 8 0 23
-237 51 -295 36z"/>
<path d="M16270 8978 c-1 -28 -1 -294 -1 -313 1 -17 3 -18 11 -5 12 17 10 319
-2 326 -4 3 -8 -1 -8 -8z"/>
<path d="M18214 8964 c-18 -14 -18 -15 4 -4 12 6 22 13 22 15 0 8 -5 6 -26
-11z"/>
<path d="M18485 8950 c-3 -5 -1 -10 4 -10 6 0 11 5 11 10 0 6 -2 10 -4 10 -3
0 -8 -4 -11 -10z"/>
<path d="M17625 8920 c3 -5 13 -10 21 -10 8 0 14 5 14 10 0 6 -9 10 -21 10
-11 0 -17 -4 -14 -10z"/>
<path d="M3336 8795 c-3 -9 -6 -82 -6 -161 l0 -145 98 3 97 3 0 155 0 155 -91
3 c-77 2 -93 0 -98 -13z"/>
<path d="M17600 8781 c0 -11 101 -24 123 -15 36 14 14 24 -53 24 -38 0 -70 -4
-70 -9z"/>
<path d="M3548 8678 c-5 -163 -4 -167 82 -231 40 -31 75 -55 75 -54 1 1 -1 40
-4 87 -6 84 -6 85 -33 88 -28 3 -28 3 -28 -53 l0 -56 -29 15 c-16 9 -31 23
-35 31 -3 9 -6 73 -6 141 0 144 -17 169 -22 32z"/>
<path d="M3296 8515 c-3 -8 -1 -15 4 -15 6 0 10 7 10 15 0 8 -2 15 -4 15 -2 0
-6 -7 -10 -15z"/>
<path d="M3555 8438 c4 -13 7 -31 8 -41 1 -10 12 -20 24 -23 13 -4 20 -11 16
-17 -3 -6 -1 -7 6 -3 6 4 28 -6 50 -23 21 -17 42 -31 46 -31 8 0 95 -59 113
-77 7 -7 23 -13 35 -13 12 0 41 -11 65 -25 23 -13 42 -22 42 -20 0 2 -30 25
-67 52 -38 26 -127 91 -199 145 -72 54 -135 98 -139 98 -4 0 -4 -10 0 -22z"/>
<path d="M10853 8215 c0 -82 -3 -157 -6 -165 -4 -8 -5 -24 -3 -35 2 -11 0 -32
-5 -47 -5 -20 -4 -25 6 -22 7 3 12 18 11 34 -1 16 4 32 10 34 9 3 11 20 8 53
-3 26 -9 104 -13 173 l-8 125 0 -150z m17 -185 c0 -5 -2 -10 -4 -10 -3 0 -8 5
-11 10 -3 6 -1 10 4 10 6 0 11 -4 11 -10z"/>
<path d="M3807 8349 c7 -7 15 -10 18 -7 3 3 -2 9 -12 12 -14 6 -15 5 -6 -5z"/>
<path d="M3850 8176 c0 -2 7 -6 15 -10 8 -3 15 -1 15 4 0 6 -7 10 -15 10 -8 0
-15 -2 -15 -4z"/>
<path d="M3700 8076 c0 -27 4 -34 18 -34 9 1 41 -10 70 -25 30 -15 56 -27 58
-27 12 0 1 32 -15 47 -19 17 -115 73 -126 73 -3 0 -5 -15 -5 -34z"/>
<path d="M4118 8053 c-14 -3 -18 -15 -18 -54 l0 -49 70 0 70 0 0 55 0 55 -52
-1 c-29 -1 -61 -3 -70 -6z"/>
<path d="M3700 7984 c0 -20 4 -33 10 -29 5 3 37 -8 71 -25 33 -16 63 -30 65
-30 2 0 4 9 4 20 0 12 -14 29 -35 42 -19 13 -35 30 -35 38 0 12 -2 13 -9 1 -7
-11 -13 -11 -32 3 -34 23 -39 20 -39 -20z"/>
<path d="M4615 7920 c10 -11 20 -20 23 -20 3 0 -3 9 -13 20 -10 11 -20 20 -23
20 -3 0 3 -9 13 -20z"/>
<path d="M4590 7874 c0 -17 6 -28 20 -31 11 -3 20 -9 20 -14 0 -5 15 -16 33
-25 17 -9 57 -38 88 -65 59 -51 105 -77 115 -66 11 11 -15 35 -132 123 -62 46
-115 88 -119 94 -12 19 -25 10 -25 -16z"/>
<path d="M10653 7893 c9 -2 25 -2 35 0 9 3 1 5 -18 5 -19 0 -27 -2 -17 -5z"/>
<path d="M5120 7840 c-11 -8 -8 -9 12 -4 20 4 27 2 31 -13 4 -15 5 -14 6 5 1
24 -22 30 -49 12z"/>
<path d="M4756 7815 c10 -8 23 -15 28 -15 6 0 1 7 -10 15 -10 8 -23 15 -28 15
-6 0 -1 -7 10 -15z"/>
<path d="M5061 7704 c2 -69 6 -127 10 -130 10 -6 21 111 15 171 -2 27 0 58 5
67 8 15 6 18 -11 18 -21 0 -21 -4 -19 -126z"/>
<path d="M4805 7784 c6 -5 23 -20 40 -34 29 -24 29 -24 10 -2 -11 13 -29 28
-40 34 -11 6 -15 6 -10 2z"/>
<path d="M6205 7590 c3 -5 11 -10 16 -10 6 0 7 5 4 10 -3 6 -11 10 -16 10 -6
0 -7 -4 -4 -10z"/>
<path d="M4710 7496 c0 -19 32 -50 88 -82 58 -34 77 -25 25 13 -23 17 -39 34
-35 38 4 5 2 5 -5 2 -6 -4 -25 5 -42 19 -24 19 -31 22 -31 10z"/>
<path d="M6765 6630 c-8 -13 5 -13 25 0 13 8 13 10 -2 10 -9 0 -20 -4 -23 -10z"/>
<path d="M6726 6585 c4 -8 11 -15 16 -15 6 0 5 6 -2 15 -7 8 -14 15 -16 15 -2
0 -1 -7 2 -15z"/>
<path d="M6730 6549 c0 -5 5 -7 10 -4 6 3 10 8 10 11 0 2 -4 4 -10 4 -5 0 -10
-5 -10 -11z"/>
<path d="M6740 6520 c0 -5 5 -10 10 -10 6 0 10 5 10 10 0 6 -4 10 -10 10 -5 0
-10 -4 -10 -10z"/>
<path d="M7865 6390 c-6 -9 50 -34 63 -29 5 2 -6 11 -24 20 -19 9 -36 13 -39
9z"/>
<path d="M7962 6346 c7 -8 15 -12 17 -11 5 6 -10 25 -20 25 -5 0 -4 -6 3 -14z"/>
<path d="M15885 6149 c-11 -16 -1 -19 13 -3 7 8 8 14 3 14 -5 0 -13 -5 -16
-11z"/>
<path d="M15787 5973 c-4 -3 -7 -39 -7 -80 0 -63 2 -73 18 -72 10 0 12 3 5 6
-9 3 -13 28 -13 73 0 57 3 69 18 73 14 4 14 5 1 6 -9 0 -19 -2 -22 -6z"/>
<path d="M10732 5520 c0 -19 2 -27 5 -17 2 9 2 25 0 35 -3 9 -5 1 -5 -18z"/>
<path d="M10047 5533 c-10 -9 -8 -43 2 -43 5 0 9 11 9 25 0 27 -1 28 -11 18z"/>
<path d="M15378 5333 c7 -3 16 -2 19 1 4 3 -2 6 -13 5 -11 0 -14 -3 -6 -6z"/>
<path d="M15327 5233 c-4 -3 -7 -13 -7 -22 1 -13 3 -13 11 2 11 19 8 33 -4 20z"/>
<path d="M15263 5175 c-8 -23 0 -25 21 -4 18 17 18 19 2 19 -9 0 -19 -7 -23
-15z"/>
<path d="M11611 4932 c0 -62 -5 -121 -10 -130 -5 -9 -5 -26 0 -37 5 -13 8 -15
9 -5 0 8 4 44 9 80 4 36 5 97 1 135 -7 67 -7 65 -9 -43z"/>
<path d="M12124 4798 c10 -40 11 -41 14 -15 4 33 -3 57 -17 57 -5 0 -4 -18 3
-42z"/>
<path d="M14588 4833 c-2 -5 -1 -42 2 -83 l6 -75 4 83 c3 45 2 82 -2 82 -4 0
-8 -3 -10 -7z"/>
<path d="M12152 4688 c5 -23 14 -49 21 -57 11 -13 18 -143 7 -136 -3 2 -13
-14 -22 -35 -16 -39 -16 -39 9 -55 17 -12 28 -13 37 -6 7 6 16 8 20 4 4 -4 11
-1 17 7 8 13 11 13 22 0 13 -16 79 -25 105 -15 13 5 10 10 -13 25 -17 11 -24
20 -16 20 20 0 8 10 -18 15 -31 6 -26 -8 12 -30 31 -19 31 -20 9 -23 -15 -2
-33 5 -48 19 -23 21 -24 21 -59 5 -37 -18 -66 -18 -66 -1 0 6 8 11 18 13 16 2
18 13 15 95 -2 56 -8 95 -15 99 -7 4 -12 18 -13 30 -2 56 -5 68 -18 68 -11 0
-12 -8 -4 -42z"/>
<path d="M15032 4690 c0 -14 2 -19 5 -12 2 6 2 18 0 25 -3 6 -5 1 -5 -13z"/>
<path d="M14118 4483 c6 -2 18 -2 25 0 6 3 1 5 -13 5 -14 0 -19 -2 -12 -5z"/>
<path d="M12486 4438 c3 -4 11 -8 18 -8 25 0 38 -29 42 -92 2 -34 9 -65 15
-69 7 -4 8 -13 4 -20 -5 -8 -4 -11 1 -6 5 5 7 41 6 80 -3 58 -7 75 -23 86 -10
7 -19 19 -19 25 0 7 -11 12 -24 12 -14 0 -22 -4 -20 -8z"/>
<path d="M11831 4408 l-1 -38 69 0 c71 0 82 -6 88 -44 5 -28 13 -33 23 -16 7
10 5 16 -5 18 -8 2 -11 10 -8 18 3 7 -2 17 -12 20 -9 4 -14 12 -12 19 3 6 -1
12 -9 12 -7 0 -10 -5 -7 -10 4 -7 -1 -8 -13 -3 -19 8 -41 12 -77 15 -10 0 -22
11 -27 24 -8 19 -9 17 -9 -15z"/>
<path d="M12602 4330 c0 -14 2 -19 5 -12 2 6 2 18 0 25 -3 6 -5 1 -5 -13z"/>
<path d="M12603 4290 c2 -8 12 -16 23 -17 13 -2 15 -1 4 4 -8 3 -19 11 -23 17
-6 7 -7 6 -4 -4z"/>
<path d="M12315 4279 c2 -3 -12 -6 -32 -7 -20 -1 -38 -4 -42 -7 -3 -4 41 -5
97 -4 56 1 99 5 96 8 -7 8 -123 18 -119 10z"/>
<path d="M12457 4243 c-4 -3 -7 -28 -7 -55 0 -45 2 -48 26 -48 17 0 28 -6 31
-19 3 -11 12 -22 20 -25 7 -3 11 -2 8 3 -3 5 -1 12 5 16 18 11 11 27 -9 20
-11 -3 -22 -1 -26 5 -3 5 -15 10 -27 10 -17 0 -18 2 -8 15 7 8 8 15 3 15 -6 0
-9 16 -7 35 2 37 2 39 -9 28z"/>
<path d="M12670 4246 c0 -1 14 -15 30 -29 22 -20 30 -23 30 -12 0 8 -7 15 -15
15 -8 0 -15 4 -15 9 0 5 -7 11 -15 15 -8 3 -15 4 -15 2z"/>
<path d="M12725 4170 c-3 -6 1 -7 9 -4 18 7 21 14 7 14 -6 0 -13 -4 -16 -10z"/>
<path d="M13360 3500 c0 -5 5 -10 10 -10 6 0 10 5 10 10 0 6 -4 10 -10 10 -5
0 -10 -4 -10 -10z"/>
</g>
</svg>
