<svg xmlns="http://www.w3.org/2000/svg" width="20" height="20" viewBox="0 0 40 40" fill="none">
  <g clip-path="url(#clip0_139_93)">
    <path d="M19.9996 0.00195312C8.97245 0.00195312 0 8.96994 0 19.9999C0 31.0256 8.97245 39.998 19.9996 39.998C31.0281 39.998 40 31.0256 40 19.9999C40 8.96994 31.0281 0.00195312 19.9996 0.00195312ZM19.9996 35.5426C11.4282 35.5426 4.45558 28.5703 4.45558 20C4.45558 11.4261 11.4282 4.45394 19.9996 4.45394C28.572 4.45394 35.5446 11.4262 35.5446 20C35.5445 28.5703 28.5719 35.5426 19.9996 35.5426Z" fill="white"/>
    <path d="M26.5641 23.6227C25.2865 25.8151 22.9108 27.1751 20.3643 27.1751C16.4097 27.1751 13.1885 23.9547 13.1885 20.0001C13.1885 16.0422 16.4097 12.8207 20.3643 12.8207C22.9109 12.8207 25.2865 14.1857 26.5641 16.3737L26.7292 16.6597H31.5493L31.2599 15.8837C30.4212 13.6617 28.9495 11.7724 27.0014 10.4239C25.0483 9.07197 22.7542 8.35474 20.3643 8.35474C13.944 8.35474 8.72284 13.5803 8.72284 20.0001C8.72284 26.4202 13.944 31.641 20.3643 31.641C22.7542 31.641 25.0482 30.9261 27.0014 29.5721C28.9495 28.2233 30.4212 26.3347 31.2599 24.1127L31.5493 23.3362H26.7292L26.5641 23.6227Z" fill="white"/>
  </g>
  <defs>
    <clipPath id="clip0_139_93">
      <rect width="40" height="40" fill="white"/>
    </clipPath>
  </defs>
</svg>