<?xml version="1.0" encoding="utf-8"?>
<!-- Generator: Adobe Illustrator 26.5.0, SVG Export Plug-In . SVG Version: 6.00 Build 0)  -->
<svg version="1.0" id="katman_1" xmlns="http://www.w3.org/2000/svg" xmlns:xlink="http://www.w3.org/1999/xlink" x="0px" y="0px"
	 viewBox="0 0 636 479" style="enable-background:new 0 0 636 479;" xml:space="preserve">
<style type="text/css">
	.st0{fill:#0062FF;}
</style>
<g>
	<path class="st0" d="M62,288.61c0,6.58,4.27,10.86,10.86,10.86l31.73,0c18.93,0,34.41-6.4,44.94-17.61H62V288.61z M104.59,179
		l-31.73,0C66.27,179,62,183.27,62,189.86v6.75h87.54C139.01,185.4,123.52,179,104.59,179z M132.28,256.4
		c0,5.33,3.47,8.78,8.82,8.78h19.01c2.16-5.35,3.6-11.22,4.28-17.57h-23.29C135.76,247.62,132.28,251.07,132.28,256.4z
		 M105.93,222.11c0,5.33,3.47,8.78,8.82,8.78h49.65c-0.67-6.34-2.12-12.22-4.28-17.57h-45.37
		C109.4,213.33,105.93,216.79,105.93,222.11z M114.75,256.4c0-5.33-3.47-8.78-8.82-8.78H62v17.57h43.92
		C111.28,265.18,114.75,261.73,114.75,256.4z M88.39,222.11c0-5.33-3.47-8.78-8.82-8.78H62v17.57h17.57
		C84.92,230.9,88.39,227.44,88.39,222.11z"/>
	<path class="st0" d="M233.67,257.31c-9.4,0-15.06-6.74-15.06-15.06c0-8.32,5.76-15.06,15.06-15.06s15.06,6.74,15.06,15.06
		C248.73,250.56,243.08,257.31,233.67,257.31z M247.7,223.1c-3.76-4.51-9.09-7.28-15.71-7.28c-14.79,0-25.43,11.98-25.43,26.76
		c0,14.78,10.54,26.76,25.43,26.76c6.62,0,11.95-2.76,15.71-7.28v5.96h13.07v-70.96H247.7V223.1z M285.31,237.42
		c1.41-6.87,5.98-10.37,11.98-10.37c5.95,0,10.3,3.65,11.69,10.37H285.31z M297.62,215.14c-15.29,0-24.79,12.24-24.79,27.21
		c0,15.5,10.16,27,25.26,27c10.41,0,16.73-4.83,20.64-10.9l-9.72-6.22c-2.44,3.35-6.35,5.11-10.55,5.11
		c-6.86,0-11.45-3.22-13.01-9.65h25.66l9.35,0.08c0.35-1.69,0.56-3.44,0.56-5.42C321.01,229.31,313,215.14,297.62,215.14z
		 M360.99,241.36c3.55,2.48,5.8,6.2,5.8,11.1c0,9.91-6.68,16.79-19.18,16.79c-11.76,0-18.06-6.02-20.57-12.11l10.79-6.3l0.1,0.36
		c0.45,1.38,2.51,6.21,9.48,6.21c5.04,0,6.59-2.23,6.59-4.19l-0.03-0.47c-0.14-0.95-0.81-2.33-3.84-3.53l-1.47-0.53
		c-7.46-2.52-19.64-4.42-19.64-16.56c0-10.62,8.33-16.29,18.59-16.29c9.6,0,15.77,5.97,18.11,10.62l-10.56,6.17l-0.22-0.48
		c-0.66-1.28-2.83-4.68-7.23-4.68c-5.42,0-5.91,3.14-5.91,4.05c0,2.48,2.36,3.59,7.4,5.13l3.72,1.11c2.18,0.67,4.41,1.46,6.7,2.75
		L360.99,241.36z M397.84,256.51c5.18,0,9.17-2.58,11.19-6.82l10.83,6.49c-4.24,7.77-12.15,13.18-22.01,13.18
		c-14.96,0-25.42-11.96-25.42-26.71c0-14.75,10.56-26.71,25.42-26.71c9.72,0,17.6,5.32,21.89,12.99l-10.81,6.63
		c-2.05-4.18-6.01-6.78-11.08-6.78c-7.56,0-12.93,6.2-12.93,13.86C384.91,250.3,390.23,256.51,397.84,256.51z M441.57,225.76
		c2.34-6.09,7.11-9.57,14.3-9.59v14.47c-8.1-0.82-14.04,3.29-14.29,13l-0.01,1.17v22.61h-12.14v-50.25h12.14V225.76z M464.19,267.42
		v-50.25h12.14v50.25H464.19z M464.19,210.46v-13.39h12.54v13.39H464.19z M514.24,215.66c13.74,0,23.61,11.88,23.61,26.53
		c0,14.65-9.78,26.53-23.61,26.53c-6.15,0-11.1-2.74-14.58-7.21v25.91h-12.14v-70.35h12.14v5.81
		C503.15,218.4,508.1,215.66,514.24,215.66z M512.69,228.03c-8.04,0-13.03,6.34-13.03,14.17c0,7.83,4.89,14.17,13.03,14.17
		c8.14,0,13.03-6.34,13.03-14.17C525.72,234.37,520.74,228.03,512.69,228.03z M574,229.8h-10.94v21.04c0,6.58,6.39,5.16,10.94,5.16
		v11.84l-1.2,0.15c-1.1,0.11-2.94,0.25-5.38,0.25l-1.78-0.04c-8.46-0.38-15.08-3.73-15.08-17.36V229.8h-8.43v-12.54h8.43v-14.16
		h12.49v14.16H574V229.8z"/>
</g>
</svg>
