<?xml version="1.0" encoding="utf-8"?>
<!-- Generator: Adobe Illustrator 26.0.3, SVG Export Plug-In . SVG Version: 6.00 Build 0)  -->
<svg version="1.0" id="katman_1" xmlns="http://www.w3.org/2000/svg" xmlns:xlink="http://www.w3.org/1999/xlink" x="0px" y="0px"
	 viewBox="0 0 600 450" style="enable-background:new 0 0 600 450;" xml:space="preserve">
<style type="text/css">
	.st0{fill:#2D5FD4;}
</style>
<g>
	<g>
		<path class="st0" d="M64,191.8c-3.4,3.5-6.3,7.4-8.7,11.7l-3.7-1.9c-0.5-2.4-2.7-4-5.2-3.7c-2.6,0.3-4.5,2.7-4.1,5.4
			c0.2,2.6,2.6,4.5,5.3,4.2c0.5-0.1,1-0.2,1.4-0.5l3.6,1.9c-2,4.5-3.4,9.1-4.2,14l5.9,1.1c1.8-10.5,6.7-20.1,14-27.8L64,191.8z
			 M64,191.8"/>
		<path class="st0" d="M107.1,173.4c-1.3,0-2.7,0.1-4,0.1l-0.5-5c1.4-1.2,2.3-3.1,2.1-5.2c-0.3-3.1-3.1-5.4-6.2-5
			c-3.1,0.3-5.3,3.2-4.9,6.4c0.3,2,1.5,3.7,3.2,4.5l0.6,5c-5.6,0.9-11,2.6-16.2,5.2l2.6,5.5c7.3-3.6,15.4-5.4,23.5-5.4
			c3.9,0,7.8,0.5,11.6,1.3l1.2-5.9C115.8,173.9,111.5,173.4,107.1,173.4L107.1,173.4z M107.1,173.4"/>
	</g>
</g>
<path class="st0" d="M159,193.8c2.6-0.3,4.5-2.7,4.1-5.4c-0.4-2.6-2.7-4.6-5.3-4.2c-2.4,0.3-4.2,2.5-4.2,4.8l-3.3,2.9
	c-3.3-3.5-7-6.5-11.1-9.1l-3.1,5.1c8.8,5.7,15.8,13.8,20.1,23.4l5.5-2.4c-2-4.4-4.5-8.6-7.4-12.4l3.1-2.8
	C157.9,193.8,158.4,193.9,159,193.8L159,193.8z M159,193.8"/>
<path class="st0" d="M102.8,255.2c-3,0.2-6.1,0.3-9.1,0.3c-6.9,0-13.6-0.5-19.5-1.5c-3-0.5-6.6-1.3-10-2.4c8.2,14.9,24.1,25,42.3,25
	c22.4,0,41.3-15.3,46.8-36.1c-5.4,3.6-11.8,6.6-19.3,9C124.8,252.6,114,254.5,102.8,255.2L102.8,255.2z M102.8,255.2"/>
<path class="st0" d="M127.4,230.5c-5.9,0-10.6-4.9-10.6-10.9c0-6,4.8-10.9,10.6-10.9c5.9,0,10.7,4.9,10.7,10.9
	C138.1,225.6,133.3,230.5,127.4,230.5L127.4,230.5z M90.3,237.7c-8,0-14.5-6.6-14.5-14.8c0-8.2,6.5-14.8,14.5-14.8
	c8,0,14.5,6.7,14.5,14.8S98.2,237.7,90.3,237.7L90.3,237.7z M107.2,185.6c-26.3,0-47.7,21.4-47.7,47.6c0,3.4,0.4,6.8,1.1,10.1
	c5.3,3.9,21.3,7.1,42,5.9c22.6-1.4,41.6-7.7,52.4-17.3c0-1.5-0.2-3.1-0.3-4.6C151.6,203.4,131.2,185.6,107.2,185.6L107.2,185.6z
	 M107.2,185.6"/>
<path class="st0" d="M235.4,199.6c-2.3-0.9-6.4-2.4-10.9-1.9c-4.3,0.6-6.7,2.7-6.7,8v6.9h17.6v13.7h-17.6v43.6h-15.3v-43.6H192
	v-13.7h10.6v-7.1c0-13.4,7.1-22.2,20.3-22.2c5,0,9.2,1,12.6,2.4L235.4,199.6z M235.4,199.6"/>
<path class="st0" d="M272.6,226.2c-1.4-0.2-2.8-0.4-4.1-0.4c-7.1,0-12,4.4-12,12.9v31.2h-15.3v-57.3H256v6.3c3.6-5.4,9-7.8,15.9-7.8
	c3.2,0,6.7,1,8.6,2.7L272.6,226.2z M272.6,226.2"/>
<path class="st0" d="M292.7,235.9h25.1c-1.5-7.4-5.8-11.5-12.3-11.5C298.3,224.5,294.1,228.8,292.7,235.9L292.7,235.9z M333.1,241.2
	c0,1.7-0.1,3.9-0.3,5.2h-40.2c1.6,8.3,7.4,11.9,14.6,11.9c5,0,10.3-2,14.3-5.5l8.9,9.9c-6.5,6-14.7,8.7-24.1,8.7
	c-17.3,0-29.4-11.9-29.4-30c0-18,11.7-30.3,28.7-30.3C321.9,211.1,333.1,223.4,333.1,241.2L333.1,241.2z M333.1,241.2"/>
<path class="st0" d="M353.2,235.9h25.1c-1.4-7.4-5.7-11.5-12.3-11.5C358.7,224.5,354.5,228.8,353.2,235.9L353.2,235.9z M393.5,241.2
	c0,1.7-0.1,3.9-0.3,5.2h-40.2c1.6,8.3,7.4,11.9,14.6,11.9c4.9,0,10.3-2,14.3-5.5l8.9,9.9c-6.5,6-14.7,8.7-24.1,8.7
	c-17.4,0-29.4-11.9-29.4-30c0-18,11.7-30.3,28.7-30.3C382.4,211.1,393.5,223.4,393.5,241.2L393.5,241.2z M393.5,241.2"/>
<path class="st0" d="M414.7,241.3c0,9,5.9,15.8,14.6,15.8c9,0,14.7-7,14.7-15.8c0-8.8-5.6-15.8-14.7-15.8
	C420.6,225.5,414.7,232.3,414.7,241.3L414.7,241.3z M459.5,241.3c0,17.2-11.8,30.2-27.4,30.2c-7.6,0-12.9-3-16.6-7.4v29.6h-15.2
	v-80.9h14.9v6.4c3.7-4.6,9.1-7.8,16.9-7.8C447.7,211.1,459.5,224.1,459.5,241.3L459.5,241.3z M459.5,241.3"/>
<path class="st0" d="M482,269.9h-15.3v-57.3H482V269.9z M484.1,193.9c0,5.6-4.2,9.8-9.8,9.8c-5.5,0-9.7-4.3-9.7-9.8
	c0-5.5,4.2-9.9,9.7-9.9C479.8,184,484.1,188.4,484.1,193.9L484.1,193.9z M484.1,193.9"/>
<path class="st0" d="M507.4,233.1l21.4-20.5h18.7L520,239.6l27.6,30.3h-18.8l-21.5-23.2v23.2h-15.3v-85h15.3v48.3H507.4z
	 M507.4,233.1"/>
</svg>
