<?xml version="1.0" encoding="utf-8"?>
<!-- Generator: Adobe Illustrator 25.0.0, SVG Export Plug-In . SVG Version: 6.00 Build 0)  -->
<svg version="1.1" id="katman_1" xmlns="http://www.w3.org/2000/svg" xmlns:xlink="http://www.w3.org/1999/xlink" x="0px" y="0px"
	 viewBox="0 0 494 354" style="enable-background:new 0 0 494 354;" xml:space="preserve">
<style type="text/css">
	.st0{fill:#9ADAF6;}
	.st1{fill:#1C9FE7;}
</style>
<path class="st0" d="M247,327c-82.7,0-150-67.3-150-150S164.3,27,247,27s150,67.3,150,150S329.7,327,247,327 M247,67
	c-60.7,0-110,49.3-110,110s49.3,110,110,110s110-49.3,110-110S307.7,67,247,67"/>
<path class="st1" d="M247,297c-66.2,0-120-53.8-120-120S180.8,57,247,57s120,53.8,120,120S313.2,297,247,297 M247,82
	c-52.4,0-95,42.6-95,95s42.6,95,95,95s95-42.6,95-95S299.4,82,247,82"/>
</svg>
