<?xml version="1.0" encoding="utf-8"?>
<!-- Generator: Adobe Illustrator 25.0.1, SVG Export Plug-In . SVG Version: 6.00 Build 0)  -->
<svg version="1.0" id="Layer_1" xmlns="http://www.w3.org/2000/svg" xmlns:xlink="http://www.w3.org/1999/xlink" x="0px" y="0px"
	 viewBox="0 0 965.9 647" style="enable-background:new 0 0 965.9 647;" xml:space="preserve">
<style type="text/css">
	.st0{fill:#FFAC41;}
</style>
<path id="logo" class="st0" d="M220,303.8v45.1l-2.8,2.8l-22.6,22.5l-14.1,14.1c-6.4,6.1-16.5,5.8-22.6-0.6c-5.9-6.2-5.9-15.8,0-22
	l0,0l14.1-14.1l22.6-22.5l2.8-2.8L220,303.8z M520,299.9c8,0,14.3,2.5,18.8,7.5s7,12.1,7.4,21.3c0.1,0.9,0.1,2.1,0.1,3.6v1
	c0,2,0,3.5-0.1,4.7c-0.3,8.9-2.8,15.9-7.4,21s-10.9,7.7-18.8,7.7c-8,0-14-2.7-17.9-8.2v27.3c0.1,1.7-1.3,3-2.9,3.1
	c-0.1,0-0.1,0-0.2,0h-16c-0.8,0-1.7-0.3-2.3-0.9c-0.6-0.6-1-1.4-0.9-2.2v-81.6c0-0.8,0.3-1.7,0.9-2.2c0.6-0.6,1.4-0.9,2.3-0.9h14.7
	c1.7-0.1,3,1.3,3.1,2.9c0,0.1,0,0.1,0,0.2v4.5C505.2,302.8,511.6,299.9,520,299.9z M281.3,277.7c6.5-0.2,12.9,1.1,18.9,3.8
	c4.8,2.1,9,5.3,12.2,9.4c2.9,3.8,4.4,7.4,4.5,11.1c0,0.7-0.3,1.4-0.7,1.9c-0.5,0.5-1.1,0.8-1.9,0.8H297c-1.7,0.1-3.3-0.8-4.2-2.2
	c-0.7-1.9-2-3.5-3.8-4.4c-2.4-1.3-5-1.9-7.7-1.8c-3.5,0-6.1,0.6-8,1.9c-1.9,1.2-2.9,3.2-2.8,5.4c0,2.4,1.2,4.3,3.7,5.6
	c2.5,1.4,7.1,2.7,13.8,4.1c7.8,1.4,13.9,3.1,18.5,5.2c4.1,1.7,7.6,4.5,10.1,8.2c2.2,3.3,3.3,7.6,3.3,12.7c0.1,5.3-1.6,10.4-4.8,14.6
	c-3.5,4.3-8.1,7.6-13.4,9.5c-6.3,2.3-12.9,3.4-19.5,3.3c-8,0-14.8-1.2-20.4-3.5c-5.6-2.3-9.8-5.4-12.7-9.2
	c-2.8-3.5-4.4-7.9-4.6-12.3c0-0.7,0.3-1.4,0.8-1.9c0.5-0.5,1.2-0.8,1.9-0.7h16.4c0.8,0,1.7,0.1,2.4,0.5c0.8,0.5,1.4,1,2,1.7
	c1.2,2.1,2.9,3.8,5,4.9c2.8,1.4,5.9,2.1,9.1,1.9c4.5,0,7.9-0.7,10.3-2c2.4-1.3,3.6-3.2,3.6-5.6c0-1.6-0.6-3.2-1.9-4.3
	c-1.8-1.4-3.8-2.4-5.9-3c-2.7-0.9-6.6-1.8-11.7-2.9c-10-2-17.5-5-22.4-9c-4.9-4-7.4-9.8-7.4-17.3c-0.1-4.9,1.4-9.7,4.3-13.7
	c3.1-4.2,7.3-7.4,12.1-9.3C268.9,278.7,275.1,277.5,281.3,277.7z M745,299.9c7.1,0,13.1,1.4,18,4.3c4.8,2.7,8.6,6.8,11,11.8
	c2.5,5.3,3.7,11.1,3.6,17v3.1c0,1.7-1.3,3.2-3.1,3.2c-0.1,0-0.1,0-0.2,0h-39.2v0.7c-0.1,3.2,0.8,6.3,2.6,9c1.6,2.2,4.2,3.5,7,3.4
	c1.7,0.1,3.3-0.3,4.8-1.2c1.3-0.8,2.4-1.8,3.4-3c0.5-0.6,1.1-1.1,1.8-1.5c0.7-0.2,1.4-0.4,2.2-0.3h16.2c0.7,0,1.4,0.2,1.9,0.7
	c0.5,0.4,0.8,1,0.8,1.7c0,2.1-1.2,4.7-3.6,7.5c-2.9,3.2-6.6,5.8-10.6,7.4c-5.2,2.2-10.8,3.2-16.5,3.1c-10.1,0-18-2.7-23.8-8.1
	s-8.7-13.2-8.9-23.5v-3.8c0.3-9.8,3.4-17.5,9.2-23S735.1,299.9,745,299.9z M849.8,277.7c0.8,0,1.7,0.3,2.3,0.9
	c0.6,0.6,1,1.4,0.9,2.2v81.6c0,0.8-0.3,1.7-0.9,2.2c-0.6,0.6-1.4,0.9-2.3,0.9H835c-1.7,0-3.1-1.4-3.1-3.1v-3.8
	c-4.4,5.4-10.8,8.1-19.2,8.2c-8,0-14.3-2.5-18.9-7.5c-4.6-5-7-12.2-7.3-21.5l-0.1-4.3l0.1-4.5c0.3-9,2.8-16.1,7.4-21.2
	c4.6-5.1,10.9-7.7,18.8-7.7c7.4,0,13.4,2.4,17.9,7.2v-26.3c0-0.8,0.3-1.6,0.9-2.2c0.6-0.6,1.4-0.9,2.2-0.9L849.8,277.7z M349,301.1
	c0.8,0,1.7,0.3,2.3,0.9c0.6,0.6,1,1.4,0.9,2.2v58.1c0,0.8-0.3,1.6-0.9,2.2c-0.6,0.6-1.4,0.9-2.3,0.9h-15.5c-1.7,0-3.1-1.4-3.1-3.1
	v-58.1c0-0.8,0.3-1.7,0.9-2.2c0.6-0.6,1.4-0.9,2.2-0.9H349z M443.4,299.9c6.8,0,12.3,2.3,16.5,6.9c4.2,4.6,6.4,11.4,6.4,20.5v35.1
	c0,0.8-0.3,1.6-0.9,2.2c-0.6,0.6-1.4,0.9-2.2,0.9H448c-0.8,0-1.7-0.3-2.3-0.9c-0.6-0.6-0.9-1.4-0.9-2.2v-34.2c0-3.8-0.8-6.6-2.4-8.3
	c-1.7-1.8-4-2.8-6.5-2.7c-2.4-0.1-4.7,0.9-6.2,2.7c-1.6,1.8-2.4,4.6-2.4,8.3v34.2c0,0.8-0.3,1.6-0.9,2.2c-0.6,0.6-1.4,0.9-2.2,0.9
	H409c-0.8,0-1.7-0.3-2.3-0.9c-0.6-0.6-1-1.4-0.9-2.2v-34.3c0-3.8-0.8-6.6-2.5-8.3c-1.7-1.8-4-2.7-6.4-2.7c-2.4-0.1-4.7,0.9-6.3,2.7
	c-1.6,1.8-2.5,4.5-2.5,8.2v34.4c0,0.8-0.3,1.6-0.9,2.2c-0.6,0.6-1.4,0.9-2.2,0.9h-15.6c-1.7,0-3.1-1.4-3.1-3.1v-58.1
	c0-0.8,0.3-1.7,0.9-2.2c0.6-0.6,1.4-0.9,2.2-0.9h14.3c1.7-0.1,3,1.3,3.1,2.9c0,0.1,0,0.1,0,0.2v4.2c2.1-2.5,4.7-4.6,7.7-6
	c3.3-1.7,6.9-2.5,10.6-2.5c9.1,0,15.3,3.5,18.7,10.6c2.1-3.2,4.9-5.8,8.3-7.7C435.5,300.9,439.4,299.9,443.4,299.9z M576.8,277.7
	c1.6-0.1,3,1.2,3.1,2.8c0,0.1,0,0.2,0,0.3v81.6c0,0.8-0.3,1.6-0.9,2.2c-0.6,0.6-1.4,1-2.2,0.9h-15.5c-0.8,0-1.7-0.3-2.3-0.9
	c-0.6-0.6-1-1.4-0.9-2.2v-81.6c0-0.8,0.3-1.7,0.9-2.2c0.6-0.6,1.4-0.9,2.3-0.9H576.8z M612.5,301.1c0.8,0,1.7,0.3,2.3,0.9
	c0.6,0.6,1,1.4,0.9,2.2v58.1c0,0.8-0.3,1.7-0.9,2.2c-0.6,0.6-1.4,0.9-2.3,0.9h-15.5c-1.7,0-3.1-1.4-3.1-3.1v-58.1
	c0-0.8,0.3-1.7,0.9-2.2c0.6-0.6,1.4-0.9,2.2-0.9H612.5z M697.7,274c0.8,0,1.6,0.3,2.2,0.9c0.6,0.6,0.9,1.4,0.9,2.2v10.6
	c0,0.8-0.3,1.6-0.9,2.2c-0.6,0.6-1.4,1-2.2,0.9H666c-2.7,0-4.5,0.6-5.6,1.8c-1.1,1.2-1.6,3-1.7,5.5v3.1h39.1c1.7,0,3,1.3,3.1,2.9
	c0,0.1,0,0.1,0,0.2v58.1c0,0.8-0.3,1.6-0.9,2.2c-0.6,0.6-1.4,1-2.2,0.9h-15.1c-0.8,0-1.7-0.3-2.3-0.9c-0.6-0.6-1-1.4-0.9-2.2V318
	h-20.8v44.4c0,0.8-0.3,1.6-0.9,2.2c-0.6,0.6-1.4,1-2.2,0.9h-15.1c-0.8,0-1.7-0.3-2.3-0.9c-0.6-0.6-1-1.4-0.9-2.2V318H628
	c-0.8,0-1.7-0.3-2.3-0.9c-0.6-0.6-1-1.4-0.9-2.2v-10.6c0-0.8,0.3-1.7,0.9-2.2c0.6-0.6,1.4-0.9,2.3-0.9h9.3v-3.7
	c0-8.2,2.4-14.2,7.2-17.9c4.8-3.7,11.6-5.6,20.6-5.6H697.7z M820,317.1c-3.7,0-6.4,1.1-8,3.3s-2.5,5.2-2.8,9.1l-0.1,3.8l0.1,3.8
	c0.3,3.9,1.2,6.9,2.8,9.1s4.3,3.3,8,3.3c3.5,0,6.2-1.1,7.9-3.4c1.8-2.5,2.8-5.5,2.8-8.6c0.2-2.3,0.2-3.9,0.2-4.7s-0.1-2.4-0.2-4.6
	c0-2.9-1.1-5.7-2.9-8C826,318.1,823.4,317.1,820,317.1z M512.8,317.1c-3.5,0-6.2,1.1-7.9,3.4c-1.8,2.5-2.8,5.5-2.9,8.6
	c-0.1,0.9-0.1,2.1-0.1,3.7v1c0,2,0,3.5,0.1,4.6c0.1,2.9,1.1,5.7,2.9,8c1.8,2.1,4.4,3.1,7.9,3.1c3.7,0,6.4-1.1,8-3.3
	c1.6-2.2,2.5-5.2,2.8-9.1c0.1-0.8,0.1-2.1,0.1-3.8s0-3-0.1-3.8c-0.2-3.9-1.2-6.9-2.8-9.1S516.5,317.1,512.8,317.1L512.8,317.1z
	 M214.4,298.2l-22.5,22.5l-2.8,2.8l-22.5,22.5l-2.8,2.8h-45.1l25.4-25.4l22.6-22.5l2.8-2.8H214.4z M152.4,258.7
	c6.4-6,16.5-5.7,22.5,0.7c5.8,6.1,5.7,15.7,0,21.8l0,0l-39.5,39.5L113,343.2v-45.1l2.8-2.8l22.5-22.5L152.4,258.7z M745,313.9
	c-2.8-0.2-5.5,1.1-7.2,3.3c-1.7,2.2-2.5,5.3-2.5,9.2v0.2h19.7v-0.2c0-4-0.9-7-2.6-9.2C750.5,315,747.8,313.7,745,313.9z M349,274.3
	c0.9,0,1.7,0.3,2.3,0.9c0.6,0.6,0.9,1.4,0.9,2.3V289c0,0.9-0.3,1.7-0.9,2.3c-0.6,0.6-1.4,0.9-2.3,0.9h-15.5c-0.8,0-1.7-0.3-2.2-0.9
	c-0.6-0.6-0.9-1.4-0.9-2.3v-11.5c0-0.9,0.3-1.7,0.9-2.3c0.6-0.6,1.3-0.9,2.2-0.9L349,274.3z M612.5,274.3c1.8,0,3.2,1.4,3.2,3.1
	c0,0,0,0,0,0.1V289c0,1.7-1.4,3.2-3.1,3.2c0,0-0.1,0-0.1,0h-15.5c-0.8,0-1.7-0.3-2.2-0.9c-0.6-0.6-0.9-1.4-0.9-2.3v-11.5
	c0-0.9,0.3-1.7,0.9-2.3c0.6-0.6,1.3-0.9,2.2-0.9L612.5,274.3z"/>
</svg>
