<?xml version="1.0" encoding="utf-8"?>
<!-- Generator: Adobe Illustrator 26.0.3, SVG Export Plug-In . SVG Version: 6.00 Build 0)  -->
<svg version="1.0" id="katman_1" xmlns="http://www.w3.org/2000/svg" xmlns:xlink="http://www.w3.org/1999/xlink" x="0px" y="0px"
	 viewBox="0 0 233 170" style="enable-background:new 0 0 233 170;" xml:space="preserve">
<style type="text/css">
	.st0{fill:#0F141E;}
	.st1{clip-path:url(#SVGID_00000134928498191921738670000000681958006470385302_);}
	.st2{fill:url(#SVGID_00000164482787966646177660000003144761009292447367_);}
	.st3{fill:url(#SVGID_00000018201316711665827890000011324688290782560953_);}
	.st4{fill:url(#SVGID_00000163788358264760835460000017994191293122012829_);}
	.st5{fill:url(#SVGID_00000135685602207571551370000015142803228798148235_);}
	.st6{fill:url(#SVGID_00000063604969376149084930000012686632230663119252_);}
	.st7{fill:url(#SVGID_00000036238939156180489860000010306683990322000006_);}
	.st8{fill:url(#SVGID_00000103951584094763217440000012020955149242685116_);}
	.st9{fill:url(#SVGID_00000169545120646391036240000012690203402996186301_);}
</style>
<path class="st0" d="M68.8,88.5l2.8-0.6c0.3,1.9,1.6,2.8,3.6,2.8c2.1,0,3.2-0.9,3.2-2.2c0-3.9-9.1-0.8-9.1-7.2
	c0-2.7,2.4-4.7,5.9-4.7c2.9,0,5.5,1.6,5.9,4.4l-2.7,0.8c-0.3-1.6-1.6-2.5-3.4-2.5c-1.7,0-2.9,0.8-2.9,2c0,3.5,9.3,0.4,9.3,6.9
	c0,3.1-2.5,5.2-6.3,5.2C71.6,93.4,69.2,91.6,68.8,88.5z"/>
<path class="st0" d="M102.7,77h3v2.1h0.2c0.7-1.3,2.3-2.5,4.6-2.5c3.6,0,5.9,2.7,5.9,6.1V93h-3v-9.7c0-2.3-1.7-3.8-3.7-3.8
	c-2.2,0-4,1.7-4,4.1V93h-3L102.7,77z"/>
<path class="st0" d="M134.5,72.4h3v6.7h0.2c0.7-1.3,2.3-2.5,4.6-2.5c3.6,0,5.9,2.7,5.9,6.1V93h-3v-9.7c0-2.3-1.7-3.8-3.8-3.8
	c-2.2,0-4,1.7-4,3.9V93h-3V72.4z"/>
<path class="st0" d="M151.9,85c0-5.1,3.6-8.4,7.9-8.4c4.9,0,7.7,3.5,7.7,8.2v1h-12.5c0,3.1,1.9,5,4.9,5c2,0,3.9-1.1,4.4-3.1l2.9,0.7
	c-1,3.2-3.8,5-7.3,5C155.1,93.4,151.9,89.9,151.9,85z M164.4,83.5c-0.2-2.7-2.2-4.2-4.6-4.2c-2.5,0-4.5,1.8-4.7,4.2H164.4z"/>
<path class="st0" d="M170.5,88.5l2.8-0.6c0.3,1.9,1.6,2.8,3.6,2.8c2.1,0,3.2-0.9,3.2-2.2c0-3.9-9.1-0.8-9.1-7.2
	c0-2.7,2.4-4.7,5.9-4.7c2.9,0,5.5,1.6,5.9,4.4l-2.7,0.8c-0.3-1.6-1.6-2.5-3.4-2.5c-1.7,0-2.9,0.8-2.9,2c0,3.5,9.3,0.4,9.3,6.9
	c0,3.1-2.5,5.2-6.3,5.2C173.3,93.4,170.9,91.6,170.5,88.5z"/>
<path class="st0" d="M193.5,85c0-4.8,3.1-8.4,7.5-8.4c3.1,0,4.6,1.8,5.2,2.7h0.2V77h3v12.5c0,0.5,0.3,0.7,0.8,0.7h0.7V93h-2.2
	c-1.3,0-2.3-0.8-2.3-2.2h-0.2c-0.6,0.8-1.9,2.6-5.1,2.6C196.8,93.4,193.5,89.9,193.5,85z M206.6,85c0-3.6-2.3-5.6-5-5.6
	c-2.9,0-5,2.3-5,5.6c0,3.4,2.2,5.6,5,5.6C204.6,90.6,206.6,88.1,206.6,85z"/>
<path class="st0" d="M187.2,77.9V93h3V76.6L187.2,77.9z"/>
<path class="st0" d="M99.5,77h-3.3l-4.5,13.1h-0.2L87.1,77h-3.3l5.7,16h0.8l0,0.1c-0.5,1.1-1.1,1.7-2.4,1.7H85v2.8h2.9
	c2.5,0,4.1-0.9,5-3.1L99.5,77z"/>
<path class="st0" d="M190.3,72.4h-3v3h3V72.4z"/>
<path class="st0" d="M130.4,79.6V77h-4.7v-4.6l-2.8,1.2V77h-3.1v2.6h2.9v8.7c0,3.3,2,4.7,5,4.7h2.6v-2.7h-2.5c-1.4,0-2-0.6-2-2.1
	v-8.6H130.4z"/>
<g>
	<defs>
		<rect id="SVGID_1_" x="21" y="65" width="40" height="40"/>
	</defs>
	<clipPath id="SVGID_00000053541640123064415580000004073085514785618063_">
		<use xlink:href="#SVGID_1_"  style="overflow:visible;"/>
	</clipPath>
	<g style="clip-path:url(#SVGID_00000053541640123064415580000004073085514785618063_);">
		
			<radialGradient id="SVGID_00000134221538782455772300000004187473504787831988_" cx="-169.8792" cy="297.8771" r="1" gradientTransform="matrix(15.5478 0 0 -15.5453 2682.4143 4697.9927)" gradientUnits="userSpaceOnUse">
			<stop  offset="0.15" style="stop-color:#004BFF"/>
			<stop  offset="1" style="stop-color:#004BFF;stop-opacity:0.1"/>
		</radialGradient>
		<path style="fill:url(#SVGID_00000134221538782455772300000004187473504787831988_);" d="M29,75.9c-0.6,0-1.3-0.2-1.7-0.7
			c-0.5-0.4-0.7-1-0.8-1.7s0.2-1.3,0.6-1.8c0.4-0.5,1-0.8,1.7-0.8c4-0.4,7.7-2.3,10.5-5.2c0.2-0.2,0.5-0.4,0.8-0.6
			c0.3-0.1,0.6-0.2,0.9-0.2c0.3,0,0.6,0,1,0.2c0.3,0.1,0.6,0.3,0.8,0.5c0.2,0.2,0.4,0.5,0.6,0.8c0.1,0.3,0.2,0.6,0.2,0.9
			c0,0.3,0,0.6-0.2,1c-0.1,0.3-0.3,0.6-0.5,0.8c-3.6,3.8-8.4,6.2-13.6,6.7C29.2,75.9,29.1,75.9,29,75.9L29,75.9z"/>
		
			<radialGradient id="SVGID_00000002371781529516845480000002865941580773872804_" cx="-196.1208" cy="324.1229" r="1" gradientTransform="matrix(-15.5478 0 0 15.5453 -3008.3704 -4935.9551)" gradientUnits="userSpaceOnUse">
			<stop  offset="0.15" style="stop-color:#004BFF"/>
			<stop  offset="1" style="stop-color:#004BFF;stop-opacity:0.1"/>
		</radialGradient>
		<path style="fill:url(#SVGID_00000002371781529516845480000002865941580773872804_);" d="M53,94.1c0.6,0,1.3,0.2,1.7,0.7
			s0.7,1,0.8,1.7c0,0.6-0.2,1.3-0.6,1.8c-0.4,0.5-1,0.8-1.7,0.8c-4,0.4-7.7,2.3-10.5,5.2c-0.2,0.2-0.5,0.4-0.8,0.6
			c-0.3,0.1-0.6,0.2-0.9,0.2c-0.3,0-0.6,0-1-0.2c-0.3-0.1-0.6-0.3-0.8-0.5c-0.2-0.2-0.4-0.5-0.6-0.8c-0.1-0.3-0.2-0.6-0.2-0.9
			c0-0.3,0-0.6,0.2-1c0.1-0.3,0.3-0.6,0.5-0.8c3.6-3.8,8.4-6.2,13.6-6.7C52.9,94.1,53,94.1,53,94.1L53,94.1z"/>
		
			<radialGradient id="SVGID_00000145032814045110148330000012274291926808333443_" cx="-169.8771" cy="324.1208" r="1" gradientTransform="matrix(9.518751e-16 15.5453 15.5478 -9.520282e-16 -4980.7266 2725.9534)" gradientUnits="userSpaceOnUse">
			<stop  offset="0.15" style="stop-color:#004BFF"/>
			<stop  offset="1" style="stop-color:#004BFF;stop-opacity:0.1"/>
		</radialGradient>
		<path style="fill:url(#SVGID_00000145032814045110148330000012274291926808333443_);" d="M50.1,73c0-0.6,0.2-1.3,0.7-1.7
			c0.4-0.5,1-0.7,1.7-0.8c0.6,0,1.3,0.2,1.8,0.6c0.5,0.4,0.8,1,0.8,1.7c0.4,4,2.3,7.7,5.2,10.5c0.2,0.2,0.4,0.5,0.6,0.8
			c0.1,0.3,0.2,0.6,0.2,0.9c0,0.3,0,0.6-0.2,1c-0.1,0.3-0.3,0.6-0.5,0.8c-0.2,0.2-0.5,0.4-0.8,0.6c-0.3,0.1-0.6,0.2-0.9,0.2
			c-0.3,0-0.6,0-1-0.2c-0.3-0.1-0.6-0.3-0.8-0.5c-3.8-3.6-6.2-8.4-6.7-13.6C50.1,73.2,50.1,73.1,50.1,73L50.1,73z"/>
		
			<radialGradient id="SVGID_00000129919781049419563400000000431648194678796202_" cx="-196.1229" cy="297.8792" r="1" gradientTransform="matrix(9.518751e-16 -15.5453 -15.5478 -9.520282e-16 4654.7705 -2963.916)" gradientUnits="userSpaceOnUse">
			<stop  offset="0.15" style="stop-color:#004BFF"/>
			<stop  offset="1" style="stop-color:#004BFF;stop-opacity:0.1"/>
		</radialGradient>
		<path style="fill:url(#SVGID_00000129919781049419563400000000431648194678796202_);" d="M31.9,97c0,0.6-0.2,1.3-0.7,1.7
			c-0.4,0.5-1,0.7-1.7,0.8c-0.6,0-1.3-0.2-1.8-0.6c-0.5-0.4-0.8-1-0.8-1.7c-0.4-4-2.3-7.7-5.2-10.5c-0.2-0.2-0.4-0.5-0.6-0.8
			c-0.1-0.3-0.2-0.6-0.2-0.9c0-0.3,0-0.6,0.2-1c0.1-0.3,0.3-0.6,0.5-0.8c0.2-0.2,0.5-0.4,0.8-0.6c0.3-0.1,0.6-0.2,0.9-0.2
			c0.3,0,0.6,0,1,0.2c0.3,0.1,0.6,0.3,0.8,0.5c3.8,3.6,6.2,8.4,6.7,13.6C31.9,96.9,31.9,97,31.9,97L31.9,97z"/>
		
			<radialGradient id="SVGID_00000135656489878429548240000000503186762078628284_" cx="-164.4429" cy="310.9985" r="1" gradientTransform="matrix(10.994 10.9922 10.9922 -10.994 -1557.0999 5299.3735)" gradientUnits="userSpaceOnUse">
			<stop  offset="0.15" style="stop-color:#004BFF"/>
			<stop  offset="1" style="stop-color:#004BFF;stop-opacity:0.1"/>
		</radialGradient>
		<path style="fill:url(#SVGID_00000135656489878429548240000000503186762078628284_);" d="M39,70.1c-0.5-0.4-0.7-1.1-0.8-1.7
			c0-0.6,0.2-1.3,0.6-1.7c0.4-0.5,1-0.8,1.7-0.8s1.3,0.2,1.8,0.6c3.1,2.5,7.1,3.9,11.1,3.8c0.3,0,0.6,0,1,0.2
			c0.3,0.1,0.6,0.3,0.8,0.5c0.2,0.2,0.4,0.5,0.6,0.8c0.1,0.3,0.2,0.6,0.2,0.9c0,0.3,0,0.6-0.2,1c-0.1,0.3-0.3,0.6-0.5,0.8
			c-0.2,0.2-0.5,0.4-0.8,0.6c-0.3,0.1-0.6,0.2-0.9,0.2c-5.2,0.1-10.3-1.6-14.3-4.9C39.1,70.2,39,70.1,39,70.1L39,70.1z"/>
		
			<radialGradient id="SVGID_00000100382857905370341340000014457544511327873181_" cx="-201.5571" cy="311.0016" r="1" gradientTransform="matrix(-10.9941 -10.9921 -10.9921 10.9941 1231.1057 -5537.3457)" gradientUnits="userSpaceOnUse">
			<stop  offset="0.15" style="stop-color:#004BFF"/>
			<stop  offset="1" style="stop-color:#004BFF;stop-opacity:0.1"/>
		</radialGradient>
		<path style="fill:url(#SVGID_00000100382857905370341340000014457544511327873181_);" d="M43.1,100c0.5,0.4,0.7,1.1,0.8,1.7
			c0,0.6-0.2,1.3-0.6,1.7c-0.4,0.5-1,0.8-1.7,0.8c-0.6,0-1.3-0.2-1.8-0.6c-3.1-2.5-7.1-3.9-11.1-3.8c-0.3,0-0.6,0-1-0.2
			c-0.3-0.1-0.6-0.3-0.8-0.5c-0.2-0.2-0.4-0.5-0.6-0.8c-0.1-0.3-0.2-0.6-0.2-0.9c0-0.3,0-0.6,0.2-1c0.1-0.3,0.3-0.6,0.5-0.8
			s0.5-0.4,0.8-0.6c0.3-0.1,0.6-0.2,0.9-0.2c5.2-0.1,10.3,1.6,14.3,4.9C42.9,99.8,43,99.9,43.1,100L43.1,100z"/>
		
			<radialGradient id="SVGID_00000183228416689806638370000014518292396428667267_" cx="-183.0016" cy="329.5571" r="1" gradientTransform="matrix(-10.9941 10.9921 10.9921 10.9941 -5581.0947 -1514.0154)" gradientUnits="userSpaceOnUse">
			<stop  offset="0.15" style="stop-color:#004BFF"/>
			<stop  offset="1" style="stop-color:#004BFF;stop-opacity:0.1"/>
		</radialGradient>
		<path style="fill:url(#SVGID_00000183228416689806638370000014518292396428667267_);" d="M56,83c0.4-0.5,1.1-0.7,1.7-0.8
			c0.6,0,1.3,0.2,1.7,0.6c0.5,0.4,0.8,1,0.8,1.7c0,0.6-0.2,1.3-0.6,1.8c-2.5,3.1-3.9,7.1-3.8,11.1c0,0.3,0,0.6-0.2,1
			c-0.1,0.3-0.3,0.6-0.5,0.8c-0.2,0.2-0.5,0.4-0.8,0.6c-0.3,0.1-0.6,0.2-0.9,0.2c-0.3,0-0.6,0-1-0.2c-0.3-0.1-0.6-0.3-0.8-0.5
			c-0.2-0.2-0.4-0.5-0.6-0.8c-0.1-0.3-0.2-0.6-0.2-0.9c-0.1-5.2,1.6-10.3,4.9-14.3C55.9,83.1,55.9,83,56,83L56,83z"/>
		
			<radialGradient id="SVGID_00000160162606718215898720000000010769979752101788_" cx="-182.9985" cy="292.4429" r="1" gradientTransform="matrix(10.994 -10.9922 -10.9922 -10.994 5255.1484 1276.0148)" gradientUnits="userSpaceOnUse">
			<stop  offset="0.15" style="stop-color:#004BFF"/>
			<stop  offset="1" style="stop-color:#004BFF;stop-opacity:0.1"/>
		</radialGradient>
		<path style="fill:url(#SVGID_00000160162606718215898720000000010769979752101788_);" d="M26.1,87.1c-0.4,0.5-1.1,0.7-1.7,0.8
			c-0.6,0-1.3-0.2-1.7-0.6c-0.5-0.4-0.8-1-0.8-1.7c0-0.6,0.2-1.3,0.6-1.8c2.5-3.1,3.9-7.1,3.8-11.1c0-0.3,0-0.6,0.2-1
			c0.1-0.3,0.3-0.6,0.5-0.8c0.2-0.2,0.5-0.4,0.8-0.6c0.3-0.1,0.6-0.2,0.9-0.2s0.6,0,1,0.2c0.3,0.1,0.6,0.3,0.8,0.5
			c0.2,0.2,0.4,0.5,0.6,0.8c0.1,0.3,0.2,0.6,0.2,0.9c0.1,5.2-1.6,10.3-4.9,14.3C26.2,86.9,26.1,87,26.1,87.1L26.1,87.1z"/>
	</g>
</g>
</svg>
